STARTFONT 2.1
FONT -FontForge-Good Times Rg-Book-R-Normal--136-1310-75-75-P-1010-ISO10646-1
SIZE 131 75 75
FONTBOUNDINGBOX 271 160 -38 -27
COMMENT "Generated by fontforge, http://fontforge.sourceforge.net"
COMMENT "(c) 1998-2012 Typodermic Fonts Inc. See attached license agreement. If agreement is missing visit typodermicfonts.com for more info. Languages by Chikako Larabie"
STARTPROPERTIES 39
FOUNDRY "FontForge"
FAMILY_NAME "Good Times Rg"
WEIGHT_NAME "Book"
SLANT "R"
SETWIDTH_NAME "Normal"
ADD_STYLE_NAME ""
PIXEL_SIZE 136
POINT_SIZE 1310
RESOLUTION_X 75
RESOLUTION_Y 75
SPACING "P"
AVERAGE_WIDTH 1010
CHARSET_REGISTRY "ISO10646"
CHARSET_ENCODING "1"
FONTNAME_REGISTRY ""
CHARSET_COLLECTIONS "ISO8859-2 ISO8859-9 ISO8859-4 ISO10646-1"
FONT_NAME "GoodTimesRg-Regular"
FACE_NAME "GoodTimesRg-Regular"
COPYRIGHT "(c) 1998-2012 Typodermic Fonts Inc. See attached license agreement. If agreement is missing visit typodermicfonts.com for more info. Languages by Chikako Larabie"
FONT_VERSION "4.001"
FONT_ASCENT 109
FONT_DESCENT 27
UNDERLINE_POSITION -19
UNDERLINE_THICKNESS 3
X_HEIGHT 98
CAP_HEIGHT 98
RAW_ASCENT 799
RAW_DESCENT 201
NORM_SPACE 40
RELATIVE_WEIGHT 40
RELATIVE_SETWIDTH 50
SUPERSCRIPT_X 0
SUPERSCRIPT_Y 40
SUPERSCRIPT_SIZE 40
SUBSCRIPT_X 0
SUBSCRIPT_Y 0
SUBSCRIPT_SIZE 40
AVG_LOWERCASE_WIDTH 1159
AVG_UPPERCASE_WIDTH 1155
ENDPROPERTIES
CHARS 372
STARTCHAR space
ENCODING 32
SWIDTH 294 0
DWIDTH 40 0
BBX 1 1 0 0
BITMAP
00
ENDCHAR
STARTCHAR exclam
ENCODING 33
SWIDTH 298 0
DWIDTH 41 0
BBX 19 99 11 0
BITMAP
7FFF80
7FFF80
7FFF80
7FFF80
7FFF80
7FFF80
7FFF80
7FFF80
7FFF80
7FFF80
7FFF80
7FFF80
7FFF80
7FFF80
7FFF80
7FFF80
7FFF80
7FFF80
7FFF80
7FFF80
7FFF80
7FFF80
7FFF80
7FFF80
7FFF80
7FFF80
7FFF80
7FFF80
7FFF80
7FFF80
7FFF80
7FFF80
7FFF80
7FFF80
7FFF80
7FFF80
7FFF80
7FFF80
7FFF80
7FFF80
7FFF80
7FFF80
7FFF80
7FFF80
7FFF80
7FFF80
7FFF80
7FFF80
7FFF80
7FFF80
7FFF80
7FFF80
7FFF80
7FFF80
7FFF80
7FFF80
7FFF80
7FFF80
7FFF80
7FFF80
7FFF80
7FFF80
7FFF80
7FFF80
7FFF80
7FFF80
7FFF80
000000
000000
000000
000000
000000
000000
000000
000000
000000
000000
000000
000000
000000
03F800
0FFE00
1FFF00
3FFF80
7FFFC0
7FFFC0
7FFFC0
FFFFE0
FFFFE0
FFFFE0
FFFFE0
FFFFE0
7FFFC0
7FFFC0
7FFFC0
3FFF80
1FFF00
0FFE00
03F800
ENDCHAR
STARTCHAR quotedbl
ENCODING 34
SWIDTH 452 0
DWIDTH 61 0
BBX 43 36 9 63
BITMAP
FFFFC03FFFE0
FFFFC03FFFE0
FFFFC03FFFE0
7FFFC03FFFE0
7FFF803FFFE0
7FFF803FFFE0
7FFF803FFFE0
7FFF803FFFE0
7FFF803FFFC0
7FFF801FFFC0
7FFF801FFFC0
7FFF801FFFC0
7FFF801FFFC0
7FFF801FFFC0
3FFF801FFFC0
3FFF001FFFC0
3FFF001FFFC0
3FFF001FFFC0
3FFF001FFFC0
3FFF001FFFC0
3FFF000FFF80
3FFF000FFF80
3FFF000FFF80
3FFF000FFF80
3FFF000FFF80
3FFF000FFF80
1FFE000FFF80
1FFE000FFF80
1FFE000FFF80
1FFE000FFF80
1FFE000FFF80
1FFE0007FF00
1FFE0007FF00
1FFE0007FF00
1FFE0007FF00
1FFE0007FF00
ENDCHAR
STARTCHAR numbersign
ENCODING 35
SWIDTH 697 0
DWIDTH 95 0
BBX 83 99 6 0
BITMAP
000000003FFC00003FFE00
000000003FFC00003FFC00
000000007FFC00003FFC00
000000007FF800007FFC00
000000007FF800007FF800
00000000FFF800007FF800
00000000FFF000007FF800
00000000FFF00000FFF800
00000001FFF00000FFF000
00000001FFF00000FFF000
00000001FFE00001FFF000
00000001FFE00001FFE000
00000003FFE00001FFE000
00000003FFC00001FFE000
00000003FFC00003FFE000
00000007FFC00003FFC000
00000007FFC00003FFC000
00000007FF800007FFC000
00000007FF800007FF8000
0000000FFF800007FF8000
0000000FFF00000FFF8000
0000000FFF00000FFF0000
0000001FFF00000FFF0000
0000001FFF00000FFF0000
0000001FFE00001FFF0000
0000001FFE00001FFE0000
003FFFFFFFFFFFFFFFFFE0
003FFFFFFFFFFFFFFFFFE0
003FFFFFFFFFFFFFFFFFE0
003FFFFFFFFFFFFFFFFFE0
003FFFFFFFFFFFFFFFFFE0
003FFFFFFFFFFFFFFFFFE0
003FFFFFFFFFFFFFFFFFE0
003FFFFFFFFFFFFFFFFFE0
003FFFFFFFFFFFFFFFFFE0
003FFFFFFFFFFFFFFFFFE0
003FFFFFFFFFFFFFFFFFE0
000001FFE00001FFE00000
000003FFE00001FFE00000
000003FFC00001FFE00000
000003FFC00003FFE00000
000007FFC00003FFC00000
000007FF800003FFC00000
000007FF800007FFC00000
000007FF800007FF800000
00000FFF000007FF800000
00000FFF00000FFF800000
00000FFF00000FFF000000
00001FFF00000FFF000000
00001FFE00001FFF000000
00001FFE00001FFE000000
00003FFE00001FFE000000
00003FFC00001FFE000000
00003FFC00003FFE000000
00007FFC00003FFC000000
00007FF800003FFC000000
00007FF800007FFC000000
00007FF800007FF8000000
0000FFF000007FF8000000
0000FFF00000FFF8000000
FFFFFFFFFFFFFFFFFF8000
FFFFFFFFFFFFFFFFFF8000
FFFFFFFFFFFFFFFFFF8000
FFFFFFFFFFFFFFFFFF8000
FFFFFFFFFFFFFFFFFF8000
FFFFFFFFFFFFFFFFFF8000
FFFFFFFFFFFFFFFFFF8000
FFFFFFFFFFFFFFFFFF8000
FFFFFFFFFFFFFFFFFF8000
FFFFFFFFFFFFFFFFFF8000
FFFFFFFFFFFFFFFFFF8000
FFFFFFFFFFFFFFFFFF8000
000FFF000007FF80000000
000FFF00000FFF80000000
001FFF00000FFF00000000
001FFE00000FFF00000000
001FFE00001FFF00000000
001FFE00001FFE00000000
003FFE00001FFE00000000
003FFC00003FFE00000000
003FFC00003FFC00000000
007FFC00003FFC00000000
007FF800003FFC00000000
007FF800007FFC00000000
007FF800007FF800000000
00FFF000007FF800000000
00FFF00000FFF800000000
00FFF00000FFF000000000
01FFF00000FFF000000000
01FFE00000FFF000000000
01FFE00001FFE000000000
01FFE00001FFE000000000
03FFC00001FFE000000000
03FFC00003FFE000000000
03FFC00003FFC000000000
07FF800003FFC000000000
07FF800007FFC000000000
07FF800007FF8000000000
0FFF800007FF8000000000
ENDCHAR
STARTCHAR dollar
ENCODING 36
SWIDTH 744 0
DWIDTH 101 0
BBX 85 99 8 0
BITMAP
0000000001FE0000000000
0000000001FE0000000000
0000000001FE0000000000
0000000001FE0000000000
0000000001FE0000000000
0000000001FE0000000000
0000000001FE0000000000
0000000001FE0000000000
0000000001FE0000000000
0000000001FE0000000000
00003FFFFFFFFFFFFFFF80
0003FFFFFFFFFFFFFFFF80
000FFFFFFFFFFFFFFFFF80
003FFFFFFFFFFFFFFFFF80
00FFFFFFFFFFFFFFFFFF80
01FFFFFFFFFFFFFFFFFF80
03FFFFFFFFFFFFFFFFFF80
07FFFFFFFFFFFFFFFFFF80
0FFFFFFFFFFFFFFFFFFF80
1FFFFFFFFFFFFFFFFFFF80
1FFFFFFFFFFFFFFFFFFF80
3FFFFFFFFFFFFFFFFFFF80
3FFFFFFFFFFFFFFFFFFF80
7FFFFFFFFFFFFFFFFFFF80
7FFFF00001FE0000000000
7FFFC00001FE0000000000
FFFF800001FE0000000000
FFFF000001FE0000000000
FFFE000001FE0000000000
FFFE000001FE0000000000
FFFE000001FE0000000000
FFFC000001FE0000000000
FFFC000001FE0000000000
FFFC000001FE0000000000
FFFC000001FE0000000000
FFFC000001FE0000000000
FFFE000001FE0000000000
FFFE000001FE0000000000
7FFE000001FE0000000000
7FFF000001FE0000000000
7FFF800001FE0000000000
3FFFC00001FE0000000000
3FFFF80001FE0000000000
1FFFFFFFFFFFFFFFE00000
0FFFFFFFFFFFFFFFFE0000
0FFFFFFFFFFFFFFFFFC000
07FFFFFFFFFFFFFFFFF000
03FFFFFFFFFFFFFFFFFC00
01FFFFFFFFFFFFFFFFFE00
00FFFFFFFFFFFFFFFFFF00
003FFFFFFFFFFFFFFFFF80
000FFFFFFFFFFFFFFFFF80
0003FFFFFFFFFFFFFFFFC0
00003FFFFFFFFFFFFFFFE0
0000000001FE00007FFFE0
0000000001FE00001FFFF0
0000000001FE000007FFF0
0000000001FE000003FFF0
0000000001FE000001FFF0
0000000001FE000001FFF8
0000000001FE000001FFF8
0000000001FE000000FFF8
0000000001FE000000FFF8
0000000001FE000000FFF8
0000000001FE000000FFF8
0000000001FE000000FFF8
0000000001FE000000FFF8
0000000001FE000000FFF8
0000000001FE000001FFF8
0000000001FE000001FFF8
0000000001FE000003FFF8
0000000001FE000003FFF8
0000000001FE000007FFF0
0000000001FE00001FFFF0
0000000001FE00007FFFF0
7FFFFFFFFFFFFFFFFFFFF0
7FFFFFFFFFFFFFFFFFFFE0
7FFFFFFFFFFFFFFFFFFFE0
7FFFFFFFFFFFFFFFFFFFC0
7FFFFFFFFFFFFFFFFFFF80
7FFFFFFFFFFFFFFFFFFF80
7FFFFFFFFFFFFFFFFFFF00
7FFFFFFFFFFFFFFFFFFE00
7FFFFFFFFFFFFFFFFFFC00
7FFFFFFFFFFFFFFFFFF800
7FFFFFFFFFFFFFFFFFE000
7FFFFFFFFFFFFFFFFF8000
7FFFFFFFFFFFFFFFFE0000
7FFFFFFFFFFFFFFFE00000
0000000001FE0000000000
0000000001FE0000000000
0000000001FE0000000000
0000000001FE0000000000
0000000001FE0000000000
0000000001FE0000000000
0000000001FE0000000000
0000000001FE0000000000
0000000001FE0000000000
0000000001FE0000000000
ENDCHAR
STARTCHAR percent
ENCODING 37
SWIDTH 965 0
DWIDTH 131 0
BBX 120 114 6 -9
BITMAP
000000000000000000000000FFF000
000000000000000000000001FFE000
000000000000000000000001FFC000
000000000000000000000003FF8000
00000FFE0000000000000007FF8000
0000FFFFC00000000000000FFF0000
0003FFFFF80000000000001FFE0000
000FFFFFFE0000000000001FFC0000
003FFFFFFF0000000000003FF80000
007FFFFFFFC000000000007FF80000
00FFFFFFFFE00000000000FFF00000
01FFFFFFFFF00000000000FFE00000
03FFFFFFFFF80000000001FFC00000
07FFF003FFFC0000000003FFC00000
0FFF80007FFE0000000007FF800000
1FFE00001FFE000000000FFF000000
1FFC000007FF000000000FFE000000
3FF8000003FF000000001FFC000000
3FF0000001FF800000003FFC000000
7FE0000001FF800000007FF8000000
7FE0000000FFC0000000FFF0000000
7FC00000007FC0000000FFE0000000
FFC00000007FC0000001FFE0000000
FF800000007FC0000003FFC0000000
FF800000003FE0000007FF80000000
FF800000003FE0000007FF00000000
FF000000003FE000000FFE00000000
FF000000003FE000001FFE00000000
FF000000003FE000003FFC00000000
FF000000003FE000007FF800000000
FF000000003FE000007FF000000000
FF000000003FE00000FFF000000000
FF000000003FE00001FFE000000000
FF800000003FE00003FFC000000000
FF800000003FC00007FF8000000000
FF800000007FC00007FF0000000000
7FC00000007FC0000FFF0000000000
7FC0000000FFC0001FFE0000000000
7FE0000000FF80003FFC0000000000
3FE0000001FF80003FF80000000000
3FF0000001FF00007FF00000000000
1FF8000003FF0000FFF00000000000
1FFC000007FE0001FFE00000000000
0FFE00001FFE0003FFC00000000000
07FF80007FFC0003FF800000000000
07FFF003FFF80007FF800000000000
03FFFFFFFFF0000FFF000000000000
01FFFFFFFFE0001FFE000000000000
00FFFFFFFFC0001FFC000000000000
007FFFFFFF80003FF8000000000000
001FFFFFFF00007FF8000000000000
000FFFFFFC0000FFF0000000000000
0003FFFFF00001FFE0000000000000
0000FFFFC00001FFC0000000000000
00000FFE000003FFC0000000000000
00000000000007FF80000000000000
0000000000000FFF000000FFE00000
0000000000001FFE000007FFFE0000
0000000000001FFC00003FFFFF8000
0000000000003FFC0000FFFFFFE000
0000000000007FF80001FFFFFFF800
000000000000FFF00007FFFFFFFC00
000000000000FFE0000FFFFFFFFF00
000000000001FFE0001FFFFFFFFF80
000000000003FFC0003FFFFFFFFF80
000000000007FF80007FFF801FFFC0
00000000000FFF00007FFC0003FFE0
00000000000FFE0000FFF00000FFF0
00000000001FFE0001FFE000007FF0
00000000003FFC0001FF8000003FF8
00000000007FF80003FF0000001FF8
0000000000FFF00003FF0000000FFC
0000000000FFE00003FE00000007FC
0000000001FFE00007FE00000007FC
0000000003FFC00007FC00000003FE
0000000007FF800007FC00000003FE
0000000007FF000007F800000003FE
000000000FFF00000FF800000003FE
000000001FFE00000FF800000001FE
000000003FFC00000FF800000001FE
000000007FF800000FF800000001FF
000000007FF000000FF800000001FF
00000000FFF000000FF800000001FE
00000001FFE000000FF800000001FE
00000003FFC000000FF800000001FE
00000003FF80000007F800000003FE
00000007FF80000007F800000003FE
0000000FFF00000007FC00000003FE
0000001FFE00000007FC00000007FC
0000003FFC00000003FE00000007FC
0000003FF800000003FE0000000FFC
0000007FF800000003FF0000000FF8
000000FFF000000001FF8000001FF8
000001FFE000000001FF8000003FF0
000003FFC000000000FFE000007FF0
000003FFC000000000FFF00000FFE0
000007FF80000000007FFC0003FFE0
00000FFF00000000003FFF801FFFC0
00001FFE00000000001FFFFFFFFF80
00001FFC00000000000FFFFFFFFF00
00003FFC000000000007FFFFFFFE00
00007FF8000000000003FFFFFFFC00
0000FFF0000000000001FFFFFFF000
0001FFE00000000000007FFFFFE000
0001FFC00000000000001FFFFF8000
0003FFC000000000000007FFFE0000
0007FF80000000000000007FE00000
000FFF000000000000000000000000
001FFE000000000000000000000000
001FFE000000000000000000000000
003FFC000000000000000000000000
007FF8000000000000000000000000
00FFF0000000000000000000000000
01FFE0000000000000000000000000
ENDCHAR
STARTCHAR ampersand
ENCODING 38
SWIDTH 759 0
DWIDTH 103 0
BBX 92 99 7 0
BITMAP
0000003FFFFFF00000000000
000007FFFFFFF00000000000
00003FFFFFFFF00000000000
0001FFFFFFFFF00000000000
0007FFFFFFFFF00000000000
000FFFFFFFFFF00000000000
003FFFFFFFFFF00000000000
007FFFFFFFFFF00000000000
00FFFFFFFFFFF00000000000
01FFFFFFFFFFF00000000000
03FFFFFFFFFFF00000000000
03FFFFFFFFFFF00000000000
07FFFFFFFFFFF00000000000
0FFFFFFFFFFFF00000000000
0FFFFFFFFFFFF00000000000
1FFFFFFFFFFFF00000000000
1FFFFFFFFFFFF00000000000
1FFFFFFC0000000000000000
3FFFFFC00000000000000000
3FFFFF000000000000000000
3FFFFC000000000000000000
3FFFF8000000000000000000
3FFFF8000000000000000000
3FFFF0000000000000000000
3FFFF0000000000000000000
3FFFE0000000000000000000
3FFFE0000000000000000000
3FFFE0000000000000000000
3FFFE0000000000000000000
3FFFE0000000000000000000
3FFFE0000000000000000000
3FFFE0000000000000000000
3FFFE0000000000000000000
3FFFE0000000000000000000
1FFFF0000000000000000000
1FFFF0000000000000000000
1FFFF8000000000000000000
0FFFF8000000000000000000
0FFFFC000000000000000000
07FFFE000000000000000000
03FFFF800000000000000000
03FFFFF00000000000000000
01FFFFFFFFFFFFFFFFFFFC00
00FFFFFFFFFFFFFFFFFFFC00
003FFFFFFFFFFFFFFFFFFC00
001FFFFFFFFFFFFFFFFFFC00
0007FFFFFFFFFFFFFFFFFC00
0001FFFFFFFFFFFFFFFFFC00
000FFFFFFFFFFFFFFFFFFC00
003FFFFFFFFFFFFFFFFFFC00
007FFFFFFFFFFFFFFFFFFC00
00FFFFFFFFFFFFFFFFFFFC00
03FFFFFFFFFFFFFFFFFFFC00
07FFFFFFFFFFFFFFFFFFFC00
07FFFFFFFFFFFFFFFFFFFC00
0FFFFFFFFFFFFFFFFFFFFC00
1FFFFFF00000007FFFC00000
3FFFFF000000007FFFC00000
3FFFFC000000007FFFC00000
7FFFF8000000007FFFC00000
7FFFF0000000007FFFC00000
7FFFE0000000007FFFC00000
FFFFC0000000007FFFC00000
FFFFC0000000007FFFC00000
FFFFC0000000007FFFC00000
FFFF80000000007FFFC00000
FFFF80000000007FFFC00000
FFFF80000000007FFFC00000
FFFF80000000007FFFC00000
FFFF80000000007FFFC00000
FFFF80000000007FFFC00000
FFFF80000000007FFFC00000
FFFFC0000000007FFFC00000
FFFFC0000000007FFFC00000
FFFFC0000000007FFFC00000
FFFFE0000000007FFFC00000
FFFFF0000000007FFFC00000
7FFFF8000000007FFFC00000
7FFFFC000000007FFFC00000
7FFFFE000000007FFFC00000
3FFFFFC00000007FFFC00000
3FFFFFFC0000007FFFC00000
3FFFFFFFFFFFFFFFFFFFFFF0
1FFFFFFFFFFFFFFFFFFFFFF0
1FFFFFFFFFFFFFFFFFFFFFF0
0FFFFFFFFFFFFFFFFFFFFFF0
07FFFFFFFFFFFFFFFFFFFFF0
07FFFFFFFFFFFFFFFFFFFFF0
03FFFFFFFFFFFFFFFFFFFFF0
01FFFFFFFFFFFFFFFFFFFFF0
00FFFFFFFFFFFFFFFFFFFFF0
007FFFFFFFFFFFFFFFFFFFF0
003FFFFFFFFFFFFFFFFFFFF0
001FFFFFFFFFFFFFFFFFFFF0
0007FFFFFFFFFFFFFFFFFFF0
0001FFFFFFFFFFFFFFFFFFF0
00007FFFFFFFFFFFFFFFFFF0
00000FFFFFFFFFFFFFFFFFF0
0000007FFFFFFFFFFFFFFFF0
ENDCHAR
STARTCHAR quotesingle
ENCODING 39
SWIDTH 255 0
DWIDTH 35 0
BBX 17 36 9 63
BITMAP
FFFF80
FFFF80
FFFF80
FFFF80
FFFF80
FFFF80
FFFF80
FFFF00
FFFF00
FFFF00
7FFF00
7FFF00
7FFF00
7FFF00
7FFF00
7FFF00
7FFF00
7FFF00
7FFE00
7FFE00
7FFE00
3FFE00
3FFE00
3FFE00
3FFE00
3FFE00
3FFE00
3FFE00
3FFE00
3FFC00
3FFC00
3FFC00
1FFC00
1FFC00
1FFC00
1FFC00
ENDCHAR
STARTCHAR parenleft
ENCODING 40
SWIDTH 356 0
DWIDTH 48 0
BBX 27 125 13 -12
BITMAP
0003FFC0
0003FFC0
0007FFC0
0007FF80
000FFF80
000FFF00
000FFF00
001FFF00
001FFE00
003FFE00
003FFC00
003FFC00
007FFC00
007FF800
00FFF800
00FFF000
00FFF000
01FFF000
01FFE000
01FFE000
03FFE000
03FFC000
03FFC000
03FFC000
07FF8000
07FF8000
07FF8000
0FFF0000
0FFF0000
0FFF0000
0FFF0000
1FFE0000
1FFE0000
1FFE0000
1FFC0000
1FFC0000
3FFC0000
3FFC0000
3FF80000
3FF80000
3FF80000
7FF80000
7FF80000
7FF80000
7FF00000
7FF00000
7FF00000
7FF00000
FFF00000
FFF00000
FFE00000
FFE00000
FFE00000
FFE00000
FFE00000
FFE00000
FFE00000
FFE00000
FFE00000
FFE00000
FFE00000
FFE00000
FFE00000
FFE00000
FFE00000
FFE00000
FFE00000
FFE00000
FFE00000
FFE00000
FFE00000
FFE00000
FFE00000
FFE00000
FFE00000
FFF00000
7FF00000
7FF00000
7FF00000
7FF00000
7FF00000
7FF00000
7FF80000
7FF80000
3FF80000
3FF80000
3FF80000
3FFC0000
3FFC0000
1FFC0000
1FFC0000
1FFC0000
1FFE0000
1FFE0000
0FFE0000
0FFF0000
0FFF0000
0FFF0000
07FF0000
07FF8000
07FF8000
03FF8000
03FFC000
03FFC000
01FFC000
01FFE000
01FFE000
00FFE000
00FFF000
00FFF000
007FF800
007FF800
007FF800
003FFC00
003FFC00
001FFE00
001FFE00
001FFE00
000FFF00
000FFF00
0007FF80
0007FF80
0007FFC0
0003FFC0
0003FFE0
ENDCHAR
STARTCHAR parenright
ENCODING 41
SWIDTH 355 0
DWIDTH 48 0
BBX 27 125 9 -12
BITMAP
FFF00000
FFF80000
7FF80000
7FFC0000
3FFC0000
3FFC0000
1FFE0000
1FFE0000
1FFF0000
0FFF0000
0FFF0000
07FF8000
07FF8000
07FF8000
03FFC000
03FFC000
03FFC000
01FFE000
01FFE000
01FFE000
00FFF000
00FFF000
00FFF000
007FF800
007FF800
007FF800
003FFC00
003FFC00
003FFC00
001FFC00
001FFE00
001FFE00
001FFE00
000FFE00
000FFF00
000FFF00
000FFF00
0007FF00
0007FF00
0007FF80
0007FF80
0007FF80
0003FF80
0003FF80
0003FF80
0003FFC0
0003FFC0
0003FFC0
0001FFC0
0001FFC0
0001FFC0
0001FFC0
0001FFC0
0001FFC0
0001FFC0
0001FFC0
0001FFC0
0001FFE0
0001FFE0
0001FFE0
0001FFE0
0001FFE0
0001FFE0
0001FFE0
0001FFE0
0001FFE0
0001FFE0
0001FFE0
0001FFC0
0001FFC0
0001FFC0
0001FFC0
0001FFC0
0001FFC0
0001FFC0
0001FFC0
0001FFC0
0003FFC0
0003FFC0
0003FF80
0003FF80
0003FF80
0003FF80
0007FF80
0007FF80
0007FF80
0007FF00
0007FF00
000FFF00
000FFF00
000FFF00
000FFE00
000FFE00
001FFE00
001FFE00
001FFC00
003FFC00
003FFC00
003FFC00
003FF800
007FF800
007FF800
007FF000
00FFF000
00FFF000
00FFF000
01FFE000
01FFE000
03FFE000
03FFC000
03FFC000
07FF8000
07FF8000
07FF8000
0FFF0000
0FFF0000
1FFE0000
1FFE0000
3FFE0000
3FFC0000
3FFC0000
7FF80000
7FF80000
FFF00000
FFF00000
ENDCHAR
STARTCHAR asterisk
ENCODING 42
SWIDTH 469 0
DWIDTH 64 0
BBX 46 45 9 54
BITMAP
00001FE00000
00001FE00000
00001FE00000
00001FE00000
00001FE00000
00001FE00000
00001FE00000
00001FE00000
00001FE00000
00001FE00000
00001FE00000
00001FE00000
20001FE00010
3C001FE000F0
7F801FE00FF0
7FF81FE07FF8
7FFF1FE3FFF8
FFFFFFFFFFF8
FFFFFFFFFFFC
FFFFFFFFFFFC
3FFFFFFFFFF0
07FFFFFFFF80
00FFFFFFFC00
001FFFFFC000
0003FFFE0000
0000FFFC0000
0001FFFC0000
0001FFFE0000
0003FFFF0000
0007FFFF8000
000FFDFF8000
000FFCFFC000
001FF87FE000
003FF07FE000
003FF03FF000
007FE01FF800
00FFC00FF800
00FF800FFC00
01FF8007FE00
03FF0003FF00
01FE0003FE00
00FE0001FC00
003C0000F000
001800006000
000800004000
ENDCHAR
STARTCHAR plus
ENCODING 43
SWIDTH 690 0
DWIDTH 94 0
BBX 76 77 9 12
BITMAP
00000000FFF000000000
00000000FFF000000000
00000000FFF000000000
00000000FFF000000000
00000000FFF000000000
00000000FFF000000000
00000000FFF000000000
00000000FFF000000000
00000000FFF000000000
00000000FFF000000000
00000000FFF000000000
00000000FFF000000000
00000000FFF000000000
00000000FFF000000000
00000000FFF000000000
00000000FFF000000000
00000000FFF000000000
00000000FFF000000000
00000000FFF000000000
00000000FFF000000000
00000000FFF000000000
00000000FFF000000000
00000000FFF000000000
00000000FFF000000000
00000000FFF000000000
00000000FFF000000000
00000000FFF000000000
00000000FFF000000000
00000000FFF000000000
00000000FFF000000000
00000000FFF000000000
00000000FFF000000000
00000000FFF000000000
FFFFFFFFFFFFFFFFFFF0
FFFFFFFFFFFFFFFFFFF0
FFFFFFFFFFFFFFFFFFF0
FFFFFFFFFFFFFFFFFFF0
FFFFFFFFFFFFFFFFFFF0
FFFFFFFFFFFFFFFFFFF0
FFFFFFFFFFFFFFFFFFF0
FFFFFFFFFFFFFFFFFFF0
FFFFFFFFFFFFFFFFFFF0
FFFFFFFFFFFFFFFFFFF0
FFFFFFFFFFFFFFFFFFF0
00000000FFF000000000
00000000FFF000000000
00000000FFF000000000
00000000FFF000000000
00000000FFF000000000
00000000FFF000000000
00000000FFF000000000
00000000FFF000000000
00000000FFF000000000
00000000FFF000000000
00000000FFF000000000
00000000FFF000000000
00000000FFF000000000
00000000FFF000000000
00000000FFF000000000
00000000FFF000000000
00000000FFF000000000
00000000FFF000000000
00000000FFF000000000
00000000FFF000000000
00000000FFF000000000
00000000FFF000000000
00000000FFF000000000
00000000FFF000000000
00000000FFF000000000
00000000FFF000000000
00000000FFF000000000
00000000FFF000000000
00000000FFF000000000
00000000FFF000000000
00000000FFF000000000
00000000FFF000000000
00000000FFF000000000
ENDCHAR
STARTCHAR comma
ENCODING 44
SWIDTH 259 0
DWIDTH 35 0
BBX 18 35 9 -16
BITMAP
FFFFC0
FFFF80
FFFF80
FFFF80
FFFF80
FFFF80
FFFF00
FFFF00
FFFF00
FFFF00
FFFF00
FFFE00
FFFE00
FFFE00
FFFE00
FFFE00
FFFC00
FFFC00
FFFC00
FFFC00
FFFC00
FFF800
FFF800
FFF800
FFF800
FFF800
FFF800
FFF000
FFF000
FFF000
FFF000
FFF000
FFE000
FFE000
FFE000
ENDCHAR
STARTCHAR hyphen
ENCODING 45
SWIDTH 296 0
DWIDTH 40 0
BBX 33 12 4 45
BITMAP
FFFFFFFF80
FFFFFFFF80
FFFFFFFF80
FFFFFFFF80
FFFFFFFF80
FFFFFFFF80
FFFFFFFF80
FFFFFFFF80
FFFFFFFF80
FFFFFFFF80
FFFFFFFF80
FFFFFFFF80
ENDCHAR
STARTCHAR period
ENCODING 46
SWIDTH 262 0
DWIDTH 36 0
BBX 18 19 9 0
BITMAP
03F000
0FFC00
3FFE00
7FFF00
7FFF80
FFFF80
FFFFC0
FFFFC0
FFFFC0
FFFFC0
FFFFC0
FFFFC0
FFFFC0
FFFF80
7FFF80
7FFF00
3FFE00
0FFC00
07F000
ENDCHAR
STARTCHAR slash
ENCODING 47
SWIDTH 444 0
DWIDTH 60 0
BBX 58 99 1 0
BITMAP
000000000003FFC0
000000000003FF80
000000000003FF80
000000000007FF00
000000000007FF00
00000000000FFE00
00000000000FFE00
00000000001FFE00
00000000001FFC00
00000000003FFC00
00000000003FF800
00000000007FF800
00000000007FF000
0000000000FFF000
0000000000FFE000
0000000001FFE000
0000000001FFC000
0000000003FFC000
0000000003FF8000
0000000003FF8000
0000000007FF8000
0000000007FF0000
000000000FFF0000
000000000FFE0000
000000001FFE0000
000000001FFC0000
000000003FFC0000
000000003FF80000
000000007FF80000
000000007FF00000
00000000FFF00000
00000000FFE00000
00000001FFE00000
00000001FFE00000
00000001FFC00000
00000003FFC00000
00000003FF800000
00000007FF800000
00000007FF000000
0000000FFF000000
0000000FFE000000
0000001FFE000000
0000001FFC000000
0000003FFC000000
0000003FF8000000
0000007FF8000000
0000007FF8000000
000000FFF0000000
000000FFF0000000
000001FFE0000000
000001FFE0000000
000001FFC0000000
000003FFC0000000
000003FF80000000
000007FF80000000
000007FF00000000
00000FFF00000000
00000FFE00000000
00001FFE00000000
00001FFC00000000
00003FFC00000000
00003FFC00000000
00007FF800000000
00007FF800000000
0000FFF000000000
0000FFF000000000
0001FFE000000000
0001FFE000000000
0001FFC000000000
0003FFC000000000
0003FF8000000000
0007FF8000000000
0007FF0000000000
000FFF0000000000
000FFF0000000000
001FFE0000000000
001FFE0000000000
003FFC0000000000
003FFC0000000000
007FF80000000000
007FF80000000000
00FFF00000000000
00FFF00000000000
01FFE00000000000
01FFE00000000000
01FFC00000000000
03FFC00000000000
03FFC00000000000
07FF800000000000
07FF800000000000
0FFF000000000000
0FFF000000000000
1FFE000000000000
1FFE000000000000
3FFC000000000000
3FFC000000000000
7FF8000000000000
7FF8000000000000
FFF0000000000000
ENDCHAR
STARTCHAR zero
ENCODING 48
SWIDTH 838 0
DWIDTH 114 0
BBX 102 99 6 0
BITMAP
00000000001FFFE00000000000
0000000003FFFFFF0000000000
000000003FFFFFFFF000000000
00000001FFFFFFFFFE00000000
00000007FFFFFFFFFF80000000
0000003FFFFFFFFFFFF0000000
000000FFFFFFFFFFFFF8000000
000001FFFFFFFFFFFFFE000000
000007FFFFFFFFFFFFFF800000
00000FFFFFFFFFFFFFFFC00000
00003FFFFFFFFFFFFFFFF00000
00007FFFFFFFFFFFFFFFF80000
0000FFFFFFFFFFFFFFFFFC0000
0001FFFFFFFFFFFFFFFFFE0000
0003FFFFFFFFFFFFFFFFFF0000
0007FFFFFFFFFFFFFFFFFF8000
000FFFFFFFFFFFFFFFFFFFC000
001FFFFFFFFC01FFFFFFFFE000
003FFFFFFF000007FFFFFFF000
007FFFFFF80000007FFFFFF800
00FFFFFFE00000001FFFFFF800
00FFFFFF8000000007FFFFFC00
01FFFFFE0000000001FFFFFE00
03FFFFF800000000007FFFFE00
03FFFFF000000000003FFFFF00
07FFFFE000000000001FFFFF80
07FFFFC000000000000FFFFF80
0FFFFF80000000000007FFFFC0
0FFFFF00000000000003FFFFC0
1FFFFE00000000000001FFFFE0
1FFFFC00000000000001FFFFE0
1FFFFC00000000000000FFFFE0
3FFFF8000000000000007FFFF0
3FFFF8000000000000007FFFF0
3FFFF0000000000000003FFFF0
7FFFF0000000000000003FFFF8
7FFFE0000000000000001FFFF8
7FFFE0000000000000001FFFF8
7FFFE0000000000000001FFFF8
FFFFC0000000000000000FFFF8
FFFFC0000000000000000FFFFC
FFFFC0000000000000000FFFFC
FFFFC0000000000000000FFFFC
FFFF80000000000000000FFFFC
FFFF800000000000000007FFFC
FFFF800000000000000007FFFC
FFFF800000000000000007FFFC
FFFF800000000000000007FFFC
FFFF800000000000000007FFFC
FFFF800000000000000007FFFC
FFFF800000000000000007FFFC
FFFF800000000000000007FFFC
FFFF800000000000000007FFFC
FFFF800000000000000007FFFC
FFFF80000000000000000FFFFC
FFFF80000000000000000FFFFC
FFFFC0000000000000000FFFFC
FFFFC0000000000000000FFFF8
7FFFC0000000000000000FFFF8
7FFFC0000000000000001FFFF8
7FFFE0000000000000001FFFF8
7FFFE0000000000000001FFFF8
3FFFE0000000000000003FFFF0
3FFFF0000000000000003FFFF0
3FFFF0000000000000003FFFF0
1FFFF8000000000000007FFFE0
1FFFF8000000000000007FFFE0
1FFFFC00000000000000FFFFE0
0FFFFE00000000000001FFFFC0
0FFFFE00000000000001FFFFC0
07FFFF00000000000003FFFF80
07FFFF80000000000007FFFF80
03FFFFC000000000000FFFFF00
03FFFFE000000000001FFFFF00
01FFFFF000000000003FFFFE00
01FFFFFC0000000000FFFFFE00
00FFFFFE0000000001FFFFFC00
007FFFFF8000000007FFFFF800
007FFFFFE00000001FFFFFF000
003FFFFFF80000007FFFFFF000
001FFFFFFF000007FFFFFFE000
000FFFFFFFFC01FFFFFFFFC000
0007FFFFFFFFFFFFFFFFFF8000
0003FFFFFFFFFFFFFFFFFF0000
0001FFFFFFFFFFFFFFFFFE0000
0000FFFFFFFFFFFFFFFFFC0000
00007FFFFFFFFFFFFFFFF80000
00003FFFFFFFFFFFFFFFF00000
00001FFFFFFFFFFFFFFFE00000
000007FFFFFFFFFFFFFF800000
000003FFFFFFFFFFFFFF000000
000000FFFFFFFFFFFFFC000000
0000007FFFFFFFFFFFF0000000
0000001FFFFFFFFFFFE0000000
00000007FFFFFFFFFF80000000
00000000FFFFFFFFFC00000000
000000003FFFFFFFE000000000
0000000003FFFFFF0000000000
00000000001FFFC00000000000
ENDCHAR
STARTCHAR one
ENCODING 49
SWIDTH 385 0
DWIDTH 52 0
BBX 41 99 3 0
BITMAP
FFFF80000000
FFFFF8000000
FFFFFF000000
FFFFFFC00000
FFFFFFF00000
FFFFFFF80000
FFFFFFFE0000
FFFFFFFF0000
FFFFFFFF8000
FFFFFFFFC000
FFFFFFFFC000
FFFFFFFFE000
FFFFFFFFF000
FFFFFFFFF000
FFFFFFFFF800
FFFFFFFFF800
FFFFFFFFFC00
0007FFFFFC00
0000FFFFFE00
00003FFFFE00
00001FFFFE00
00000FFFFF00
000007FFFF00
000003FFFF00
000003FFFF00
000001FFFF00
000001FFFF00
000001FFFF80
000001FFFF80
000001FFFF80
000000FFFF80
000000FFFF80
000000FFFF80
000000FFFF80
000000FFFF80
000000FFFF80
000000FFFF80
000000FFFF80
000000FFFF80
000000FFFF80
000000FFFF80
000000FFFF80
000000FFFF80
000000FFFF80
000000FFFF80
000000FFFF80
000000FFFF80
000000FFFF80
000000FFFF80
000000FFFF80
000000FFFF80
000000FFFF80
000000FFFF80
000000FFFF80
000000FFFF80
000000FFFF80
000000FFFF80
000000FFFF80
000000FFFF80
000000FFFF80
000000FFFF80
000000FFFF80
000000FFFF80
000000FFFF80
000000FFFF80
000000FFFF80
000000FFFF80
000000FFFF80
000000FFFF80
000000FFFF80
000000FFFF80
000000FFFF80
000000FFFF80
000000FFFF80
000000FFFF80
000000FFFF80
000000FFFF80
000000FFFF80
000000FFFF80
000000FFFF80
000000FFFF80
000000FFFF80
000000FFFF80
000000FFFF80
000000FFFF80
000000FFFF80
000000FFFF80
000000FFFF80
000000FFFF80
000000FFFF80
000000FFFF80
000000FFFF80
000000FFFF80
000000FFFF80
000000FFFF80
000000FFFF80
000000FFFF80
000000FFFF80
000000FFFF80
ENDCHAR
STARTCHAR two
ENCODING 50
SWIDTH 825 0
DWIDTH 112 0
BBX 96 99 9 0
BITMAP
FFFFFFFFFFFFFFFFFF800000
FFFFFFFFFFFFFFFFFFF80000
FFFFFFFFFFFFFFFFFFFF0000
FFFFFFFFFFFFFFFFFFFFC000
FFFFFFFFFFFFFFFFFFFFF000
FFFFFFFFFFFFFFFFFFFFF800
FFFFFFFFFFFFFFFFFFFFFE00
FFFFFFFFFFFFFFFFFFFFFF00
FFFFFFFFFFFFFFFFFFFFFF80
FFFFFFFFFFFFFFFFFFFFFFC0
FFFFFFFFFFFFFFFFFFFFFFE0
FFFFFFFFFFFFFFFFFFFFFFE0
FFFFFFFFFFFFFFFFFFFFFFF0
FFFFFFFFFFFFFFFFFFFFFFF8
FFFFFFFFFFFFFFFFFFFFFFF8
FFFFFFFFFFFFFFFFFFFFFFFC
FFFFFFFFFFFFFFFFFFFFFFFC
000000000000000007FFFFFC
000000000000000000FFFFFE
0000000000000000003FFFFE
0000000000000000001FFFFE
0000000000000000000FFFFF
00000000000000000007FFFF
00000000000000000007FFFF
00000000000000000003FFFF
00000000000000000003FFFF
00000000000000000003FFFF
00000000000000000003FFFF
00000000000000000003FFFF
00000000000000000003FFFF
00000000000000000003FFFF
00000000000000000003FFFF
00000000000000000003FFFF
00000000000000000003FFFF
00000000000000000007FFFE
00000000000000000007FFFE
0000000000000000000FFFFE
0000000000000000001FFFFE
0000000000000000003FFFFC
0000000000000000007FFFFC
000000000000000003FFFFF8
000001FFFFFFFFFFFFFFFFF8
00003FFFFFFFFFFFFFFFFFF0
0001FFFFFFFFFFFFFFFFFFF0
0007FFFFFFFFFFFFFFFFFFE0
001FFFFFFFFFFFFFFFFFFFC0
007FFFFFFFFFFFFFFFFFFF80
00FFFFFFFFFFFFFFFFFFFF80
01FFFFFFFFFFFFFFFFFFFF00
03FFFFFFFFFFFFFFFFFFFC00
07FFFFFFFFFFFFFFFFFFF800
0FFFFFFFFFFFFFFFFFFFE000
0FFFFFFFFFFFFFFFFFFFC000
1FFFFFFFFFFFFFFFFFFF0000
1FFFFFFFFFFFFFFFFFF80000
3FFFFFFFFFFFFFFFFF800000
3FFFFF800000000000000000
7FFFFC000000000000000000
7FFFF0000000000000000000
7FFFE0000000000000000000
FFFFC0000000000000000000
FFFFC0000000000000000000
FFFF80000000000000000000
FFFF80000000000000000000
FFFF00000000000000000000
FFFF00000000000000000000
FFFF00000000000000000000
FFFF00000000000000000000
FFFF00000000000000000000
FFFF00000000000000000000
FFFF00000000000000000000
FFFF00000000000000000000
FFFF00000000000000000000
FFFF00000000000000000000
FFFF00000000000000000000
FFFF00000000000000000000
FFFF00000000000000000000
FFFF00000000000000000000
FFFF00000000000000000000
FFFF00000000000000000000
FFFF00000000000000000000
FFFF00000000000000000000
FFFFFFFFFFFFFFFFFFFFFFFE
FFFFFFFFFFFFFFFFFFFFFFFE
FFFFFFFFFFFFFFFFFFFFFFFE
FFFFFFFFFFFFFFFFFFFFFFFE
FFFFFFFFFFFFFFFFFFFFFFFE
FFFFFFFFFFFFFFFFFFFFFFFE
FFFFFFFFFFFFFFFFFFFFFFFE
FFFFFFFFFFFFFFFFFFFFFFFE
FFFFFFFFFFFFFFFFFFFFFFFE
FFFFFFFFFFFFFFFFFFFFFFFE
FFFFFFFFFFFFFFFFFFFFFFFE
FFFFFFFFFFFFFFFFFFFFFFFE
FFFFFFFFFFFFFFFFFFFFFFFE
FFFFFFFFFFFFFFFFFFFFFFFE
FFFFFFFFFFFFFFFFFFFFFFFE
FFFFFFFFFFFFFFFFFFFFFFFE
FFFFFFFFFFFFFFFFFFFFFFFE
ENDCHAR
STARTCHAR three
ENCODING 51
SWIDTH 827 0
DWIDTH 112 0
BBX 100 99 6 0
BITMAP
7FFFFFFFFFFFFFFFFFC0000000
7FFFFFFFFFFFFFFFFFFE000000
7FFFFFFFFFFFFFFFFFFFC00000
7FFFFFFFFFFFFFFFFFFFF00000
7FFFFFFFFFFFFFFFFFFFFC0000
7FFFFFFFFFFFFFFFFFFFFF0000
7FFFFFFFFFFFFFFFFFFFFF8000
7FFFFFFFFFFFFFFFFFFFFFC000
7FFFFFFFFFFFFFFFFFFFFFF000
7FFFFFFFFFFFFFFFFFFFFFF000
7FFFFFFFFFFFFFFFFFFFFFF800
7FFFFFFFFFFFFFFFFFFFFFFC00
7FFFFFFFFFFFFFFFFFFFFFFE00
7FFFFFFFFFFFFFFFFFFFFFFE00
7FFFFFFFFFFFFFFFFFFFFFFF00
7FFFFFFFFFFFFFFFFFFFFFFF00
7FFFFFFFFFFFFFFFFFFFFFFF00
00000000000000001FFFFFFF80
000000000000000000FFFFFF80
0000000000000000001FFFFF80
00000000000000000007FFFF80
00000000000000000003FFFFC0
00000000000000000001FFFFC0
00000000000000000001FFFFC0
00000000000000000000FFFFC0
00000000000000000000FFFFC0
00000000000000000000FFFFC0
00000000000000000000FFFFC0
00000000000000000000FFFFC0
00000000000000000000FFFFC0
00000000000000000000FFFFC0
00000000000000000000FFFF80
00000000000000000000FFFF80
00000000000000000000FFFF80
00000000000000000000FFFF80
00000000000000000001FFFF00
00000000000000000001FFFF00
00000000000000000003FFFE00
00000000000000000007FFFE00
0000000000000000001FFFFC00
000000000000000000FFFFF800
000000FFFFFFFFFFFFFFFFF000
000000FFFFFFFFFFFFFFFFE000
000000FFFFFFFFFFFFFFFFC000
000000FFFFFFFFFFFFFFFF8000
000000FFFFFFFFFFFFFFFE0000
000000FFFFFFFFFFFFFFF80000
000000FFFFFFFFFFFFFFFE0000
000000FFFFFFFFFFFFFFFF8000
000000FFFFFFFFFFFFFFFFC000
000000FFFFFFFFFFFFFFFFF000
000000FFFFFFFFFFFFFFFFF800
000000FFFFFFFFFFFFFFFFFC00
000000FFFFFFFFFFFFFFFFFE00
000000FFFFFFFFFFFFFFFFFE00
000000FFFFFFFFFFFFFFFFFF00
000000000000000000FFFFFF80
0000000000000000000FFFFF80
00000000000000000007FFFFC0
00000000000000000001FFFFC0
00000000000000000000FFFFE0
00000000000000000000FFFFE0
000000000000000000007FFFE0
000000000000000000007FFFE0
000000000000000000003FFFE0
000000000000000000003FFFF0
000000000000000000003FFFF0
000000000000000000003FFFF0
000000000000000000003FFFF0
000000000000000000003FFFF0
000000000000000000003FFFF0
000000000000000000003FFFF0
000000000000000000003FFFF0
000000000000000000007FFFF0
000000000000000000007FFFE0
00000000000000000000FFFFE0
00000000000000000001FFFFE0
00000000000000000003FFFFE0
00000000000000000007FFFFE0
0000000000000000001FFFFFC0
0000000000000000007FFFFFC0
00000000000000000FFFFFFF80
FFFFFFFFFFFFFFFFFFFFFFFF80
FFFFFFFFFFFFFFFFFFFFFFFF80
FFFFFFFFFFFFFFFFFFFFFFFF00
FFFFFFFFFFFFFFFFFFFFFFFE00
FFFFFFFFFFFFFFFFFFFFFFFE00
FFFFFFFFFFFFFFFFFFFFFFFC00
FFFFFFFFFFFFFFFFFFFFFFF800
FFFFFFFFFFFFFFFFFFFFFFF000
FFFFFFFFFFFFFFFFFFFFFFE000
FFFFFFFFFFFFFFFFFFFFFFC000
FFFFFFFFFFFFFFFFFFFFFF8000
FFFFFFFFFFFFFFFFFFFFFF0000
FFFFFFFFFFFFFFFFFFFFFC0000
FFFFFFFFFFFFFFFFFFFFF00000
FFFFFFFFFFFFFFFFFFFFC00000
FFFFFFFFFFFFFFFFFFFE000000
FFFFFFFFFFFFFFFFFFC0000000
ENDCHAR
STARTCHAR four
ENCODING 52
SWIDTH 845 0
DWIDTH 115 0
BBX 105 99 7 0
BITMAP
FFFF800000000000007FFFC00000
FFFF800000000000007FFFC00000
FFFF800000000000007FFFC00000
FFFF800000000000007FFFC00000
FFFF800000000000007FFFC00000
FFFF800000000000007FFFC00000
FFFF800000000000007FFFC00000
FFFF800000000000007FFFC00000
FFFF800000000000007FFFC00000
FFFF800000000000007FFFC00000
FFFF800000000000007FFFC00000
FFFF800000000000007FFFC00000
FFFF800000000000007FFFC00000
FFFF800000000000007FFFC00000
FFFF800000000000007FFFC00000
FFFF800000000000007FFFC00000
FFFF800000000000007FFFC00000
FFFF800000000000007FFFC00000
FFFF800000000000007FFFC00000
FFFF800000000000007FFFC00000
FFFF800000000000007FFFC00000
FFFF800000000000007FFFC00000
FFFF800000000000007FFFC00000
FFFF800000000000007FFFC00000
FFFF800000000000007FFFC00000
FFFF800000000000007FFFC00000
FFFF800000000000007FFFC00000
FFFF800000000000007FFFC00000
FFFF800000000000007FFFC00000
FFFF800000000000007FFFC00000
FFFF800000000000007FFFC00000
FFFF800000000000007FFFC00000
FFFF800000000000007FFFC00000
FFFF800000000000007FFFC00000
FFFF800000000000007FFFC00000
FFFF800000000000007FFFC00000
FFFF800000000000007FFFC00000
FFFF800000000000007FFFC00000
FFFF800000000000007FFFC00000
FFFF800000000000007FFFC00000
FFFF800000000000007FFFC00000
FFFF800000000000007FFFC00000
FFFF800000000000007FFFC00000
FFFF800000000000007FFFC00000
FFFF800000000000007FFFC00000
FFFF800000000000007FFFC00000
FFFF800000000000007FFFC00000
FFFFC00000000000007FFFC00000
FFFFC00000000000007FFFC00000
FFFFC00000000000007FFFC00000
FFFFE00000000000007FFFC00000
7FFFE00000000000007FFFC00000
7FFFF00000000000007FFFC00000
7FFFFC0000000000007FFFC00000
7FFFFE0000000000007FFFC00000
3FFFFFE000000000007FFFC00000
3FFFFFFFFFFFFFFFFFFFFFFFFF80
3FFFFFFFFFFFFFFFFFFFFFFFFF80
1FFFFFFFFFFFFFFFFFFFFFFFFF80
1FFFFFFFFFFFFFFFFFFFFFFFFF80
0FFFFFFFFFFFFFFFFFFFFFFFFF80
07FFFFFFFFFFFFFFFFFFFFFFFF80
07FFFFFFFFFFFFFFFFFFFFFFFF80
03FFFFFFFFFFFFFFFFFFFFFFFF80
01FFFFFFFFFFFFFFFFFFFFFFFF80
00FFFFFFFFFFFFFFFFFFFFFFFF80
007FFFFFFFFFFFFFFFFFFFFFFF80
001FFFFFFFFFFFFFFFFFFFFFFF80
000FFFFFFFFFFFFFFFFFFFFFFF80
0003FFFFFFFFFFFFFFFFFFFFFF80
0000FFFFFFFFFFFFFFFFFFFFFF80
00000FFFFFFFFFFFFFFFFFFFFF80
000000FFFFFFFFFFFFFFFFFFFF80
0000000000000000007FFFC00000
0000000000000000007FFFC00000
0000000000000000007FFFC00000
0000000000000000007FFFC00000
0000000000000000007FFFC00000
0000000000000000007FFFC00000
0000000000000000007FFFC00000
0000000000000000007FFFC00000
0000000000000000007FFFC00000
0000000000000000007FFFC00000
0000000000000000007FFFC00000
0000000000000000007FFFC00000
0000000000000000007FFFC00000
0000000000000000007FFFC00000
0000000000000000007FFFC00000
0000000000000000007FFFC00000
0000000000000000007FFFC00000
0000000000000000007FFFC00000
0000000000000000007FFFC00000
0000000000000000007FFFC00000
0000000000000000007FFFC00000
0000000000000000007FFFC00000
0000000000000000007FFFC00000
0000000000000000007FFFC00000
0000000000000000007FFFC00000
0000000000000000007FFFC00000
ENDCHAR
STARTCHAR five
ENCODING 53
SWIDTH 885 0
DWIDTH 120 0
BBX 104 99 9 0
BITMAP
FFFFFFFFFFFFFFFFFFFFFFFFF0
FFFFFFFFFFFFFFFFFFFFFFFFF0
FFFFFFFFFFFFFFFFFFFFFFFFF0
FFFFFFFFFFFFFFFFFFFFFFFFF0
FFFFFFFFFFFFFFFFFFFFFFFFF0
FFFFFFFFFFFFFFFFFFFFFFFFF0
FFFFFFFFFFFFFFFFFFFFFFFFF0
FFFFFFFFFFFFFFFFFFFFFFFFF0
FFFFFFFFFFFFFFFFFFFFFFFFF0
FFFFFFFFFFFFFFFFFFFFFFFFF0
FFFFFFFFFFFFFFFFFFFFFFFFF0
FFFFFFFFFFFFFFFFFFFFFFFFF0
FFFFFFFFFFFFFFFFFFFFFFFFF0
FFFFFFFFFFFFFFFFFFFFFFFFF0
FFFFFFFFFFFFFFFFFFFFFFFFF0
FFFFFFFFFFFFFFFFFFFFFFFFF0
FFFFFFFFFFFFFFFFFFFFFFFFF0
FFFF8000000000000000000000
FFFF8000000000000000000000
FFFF8000000000000000000000
FFFF8000000000000000000000
FFFF8000000000000000000000
FFFF8000000000000000000000
FFFF8000000000000000000000
FFFF8000000000000000000000
FFFF8000000000000000000000
FFFF8000000000000000000000
FFFF8000000000000000000000
FFFF8000000000000000000000
FFFF8000000000000000000000
FFFF8000000000000000000000
FFFF8000000000000000000000
FFFF8000000000000000000000
FFFF8000000000000000000000
FFFF8000000000000000000000
FFFF8000000000000000000000
FFFF8000000000000000000000
FFFF8000000000000000000000
FFFF8000000000000000000000
FFFF8000000000000000000000
FFFF8000000000000000000000
FFFFFFFFFFFFFFFFFFFF800000
FFFFFFFFFFFFFFFFFFFFFC0000
FFFFFFFFFFFFFFFFFFFFFF8000
FFFFFFFFFFFFFFFFFFFFFFE000
FFFFFFFFFFFFFFFFFFFFFFF800
FFFFFFFFFFFFFFFFFFFFFFFC00
FFFFFFFFFFFFFFFFFFFFFFFF00
FFFFFFFFFFFFFFFFFFFFFFFF80
FFFFFFFFFFFFFFFFFFFFFFFFC0
FFFFFFFFFFFFFFFFFFFFFFFFE0
FFFFFFFFFFFFFFFFFFFFFFFFE0
FFFFFFFFFFFFFFFFFFFFFFFFF0
FFFFFFFFFFFFFFFFFFFFFFFFF8
FFFFFFFFFFFFFFFFFFFFFFFFF8
FFFFFFFFFFFFFFFFFFFFFFFFFC
00000000000000000001FFFFFC
000000000000000000003FFFFC
000000000000000000001FFFFE
0000000000000000000007FFFE
0000000000000000000003FFFE
0000000000000000000003FFFF
0000000000000000000001FFFF
0000000000000000000001FFFF
0000000000000000000001FFFF
0000000000000000000000FFFF
0000000000000000000000FFFF
0000000000000000000000FFFF
0000000000000000000000FFFF
0000000000000000000000FFFF
0000000000000000000000FFFF
0000000000000000000000FFFF
0000000000000000000000FFFF
0000000000000000000001FFFF
0000000000000000000001FFFF
0000000000000000000003FFFF
0000000000000000000003FFFF
0000000000000000000007FFFE
000000000000000000000FFFFE
000000000000000000001FFFFE
000000000000000000007FFFFE
00000000000000000007FFFFFC
FFFFFFFFFFFFFFFFFFFFFFFFFC
FFFFFFFFFFFFFFFFFFFFFFFFFC
FFFFFFFFFFFFFFFFFFFFFFFFF8
FFFFFFFFFFFFFFFFFFFFFFFFF8
FFFFFFFFFFFFFFFFFFFFFFFFF0
FFFFFFFFFFFFFFFFFFFFFFFFE0
FFFFFFFFFFFFFFFFFFFFFFFFE0
FFFFFFFFFFFFFFFFFFFFFFFFC0
FFFFFFFFFFFFFFFFFFFFFFFF80
FFFFFFFFFFFFFFFFFFFFFFFF00
FFFFFFFFFFFFFFFFFFFFFFFE00
FFFFFFFFFFFFFFFFFFFFFFF800
FFFFFFFFFFFFFFFFFFFFFFF000
FFFFFFFFFFFFFFFFFFFFFFC000
FFFFFFFFFFFFFFFFFFFFFF0000
FFFFFFFFFFFFFFFFFFFFF80000
FFFFFFFFFFFFFFFFFFFF800000
ENDCHAR
STARTCHAR six
ENCODING 54
SWIDTH 872 0
DWIDTH 119 0
BBX 105 99 6 0
BITMAP
000000000FFFFFFFFFFFFFFFF800
00000001FFFFFFFFFFFFFFFFF800
0000001FFFFFFFFFFFFFFFFFF800
000000FFFFFFFFFFFFFFFFFFF800
000003FFFFFFFFFFFFFFFFFFF800
00000FFFFFFFFFFFFFFFFFFFF800
00003FFFFFFFFFFFFFFFFFFFF800
00007FFFFFFFFFFFFFFFFFFFF800
0001FFFFFFFFFFFFFFFFFFFFF800
0003FFFFFFFFFFFFFFFFFFFFF800
0007FFFFFFFFFFFFFFFFFFFFF800
000FFFFFFFFFFFFFFFFFFFFFF800
001FFFFFFFFFFFFFFFFFFFFFF800
003FFFFFFFFFFFFFFFFFFFFFF800
007FFFFFFFFFFFFFFFFFFFFFF800
00FFFFFFFFFFFFFFFFFFFFFFF800
00FFFFFFFFFFFFFFFFFFFFFFF800
01FFFFFFFF800000000000000000
03FFFFFFE0000000000000000000
03FFFFFF00000000000000000000
07FFFFF800000000000000000000
07FFFFF000000000000000000000
0FFFFFC000000000000000000000
0FFFFF8000000000000000000000
0FFFFF0000000000000000000000
1FFFFE0000000000000000000000
1FFFFC0000000000000000000000
3FFFFC0000000000000000000000
3FFFF80000000000000000000000
3FFFF80000000000000000000000
3FFFF00000000000000000000000
7FFFF00000000000000000000000
7FFFE00000000000000000000000
7FFFE00000000000000000000000
7FFFE00000000000000000000000
7FFFC00000000000000000000000
FFFFC00000000000000000000000
FFFFC00000000000000000000000
FFFFC00000000000000000000000
FFFFC00000000000000000000000
FFFF800000000000000000000000
FFFFFFFFFFFFFFFFFFFFE0000000
FFFFFFFFFFFFFFFFFFFFFE000000
FFFFFFFFFFFFFFFFFFFFFFC00000
FFFFFFFFFFFFFFFFFFFFFFF80000
FFFFFFFFFFFFFFFFFFFFFFFC0000
FFFFFFFFFFFFFFFFFFFFFFFF0000
FFFFFFFFFFFFFFFFFFFFFFFF8000
FFFFFFFFFFFFFFFFFFFFFFFFC000
FFFFFFFFFFFFFFFFFFFFFFFFE000
FFFFFFFFFFFFFFFFFFFFFFFFF000
FFFFFFFFFFFFFFFFFFFFFFFFF800
FFFFFFFFFFFFFFFFFFFFFFFFFC00
FFFFFFFFFFFFFFFFFFFFFFFFFC00
FFFFFFFFFFFFFFFFFFFFFFFFFE00
FFFFFFFFFFFFFFFFFFFFFFFFFE00
FFFF8000000000000001FFFFFE00
FFFF80000000000000003FFFFF00
FFFFC0000000000000000FFFFF00
FFFFC00000000000000007FFFF00
FFFFC00000000000000003FFFF80
7FFFC00000000000000001FFFF80
7FFFC00000000000000000FFFF80
7FFFE00000000000000000FFFF80
7FFFE00000000000000000FFFF80
7FFFE000000000000000007FFF80
3FFFF000000000000000007FFF80
3FFFF000000000000000007FFF80
3FFFF000000000000000007FFF80
3FFFF800000000000000007FFF80
1FFFF800000000000000007FFF80
1FFFFC0000000000000000FFFF80
1FFFFE0000000000000000FFFF80
0FFFFF0000000000000000FFFF80
0FFFFF0000000000000000FFFF80
07FFFF8000000000000001FFFF80
07FFFFE000000000000003FFFF80
07FFFFF000000000000003FFFF80
03FFFFFC00000000000007FFFF00
01FFFFFF0000000000001FFFFF00
01FFFFFFE000000000007FFFFF00
00FFFFFFFF8000000007FFFFFE00
00FFFFFFFFFFFFFFFFFFFFFFFE00
007FFFFFFFFFFFFFFFFFFFFFFE00
003FFFFFFFFFFFFFFFFFFFFFFC00
001FFFFFFFFFFFFFFFFFFFFFFC00
000FFFFFFFFFFFFFFFFFFFFFF800
0007FFFFFFFFFFFFFFFFFFFFF000
0003FFFFFFFFFFFFFFFFFFFFF000
0001FFFFFFFFFFFFFFFFFFFFE000
0000FFFFFFFFFFFFFFFFFFFFC000
00007FFFFFFFFFFFFFFFFFFF8000
00001FFFFFFFFFFFFFFFFFFF0000
000007FFFFFFFFFFFFFFFFFE0000
000001FFFFFFFFFFFFFFFFF80000
0000007FFFFFFFFFFFFFFFE00000
0000000FFFFFFFFFFFFFFF800000
00000001FFFFFFFFFFFFFE000000
0000000007FFFFFFFFFFC0000000
ENDCHAR
STARTCHAR seven
ENCODING 55
SWIDTH 756 0
DWIDTH 103 0
BBX 94 99 6 0
BITMAP
FFFFFFFFFFFFFFFFFFFFFF00
FFFFFFFFFFFFFFFFFFFFFFC0
FFFFFFFFFFFFFFFFFFFFFFF0
FFFFFFFFFFFFFFFFFFFFFFF0
FFFFFFFFFFFFFFFFFFFFFFF8
FFFFFFFFFFFFFFFFFFFFFFF8
FFFFFFFFFFFFFFFFFFFFFFFC
FFFFFFFFFFFFFFFFFFFFFFFC
FFFFFFFFFFFFFFFFFFFFFFFC
FFFFFFFFFFFFFFFFFFFFFFFC
FFFFFFFFFFFFFFFFFFFFFFFC
FFFFFFFFFFFFFFFFFFFFFFF8
FFFFFFFFFFFFFFFFFFFFFFF8
FFFFFFFFFFFFFFFFFFFFFFF8
FFFFFFFFFFFFFFFFFFFFFFF0
FFFFFFFFFFFFFFFFFFFFFFE0
FFFFFFFFFFFFFFFFFFFFFFE0
00000000000000000FFFFFC0
00000000000000001FFFFF80
00000000000000001FFFFF00
00000000000000003FFFFE00
00000000000000007FFFFE00
0000000000000000FFFFFC00
0000000000000001FFFFF800
0000000000000003FFFFF000
0000000000000003FFFFE000
0000000000000007FFFFC000
000000000000000FFFFFC000
000000000000001FFFFF8000
000000000000003FFFFF0000
000000000000007FFFFE0000
000000000000007FFFFC0000
00000000000000FFFFFC0000
00000000000001FFFFF80000
00000000000003FFFFF00000
00000000000007FFFFE00000
0000000000000FFFFFC00000
0000000000000FFFFF800000
0000000000001FFFFF800000
0000000000003FFFFF000000
0000000000007FFFFE000000
000000000000FFFFFC000000
000000000000FFFFF8000000
000000000001FFFFF8000000
000000000003FFFFF0000000
000000000007FFFFE0000000
00000000000FFFFFC0000000
00000000001FFFFF80000000
00000000001FFFFF00000000
00000000003FFFFF00000000
00000000007FFFFE00000000
0000000000FFFFFC00000000
0000000001FFFFF800000000
0000000003FFFFF000000000
0000000003FFFFF000000000
0000000007FFFFE000000000
000000000FFFFFC000000000
000000001FFFFF8000000000
000000003FFFFF0000000000
000000007FFFFE0000000000
000000007FFFFE0000000000
00000000FFFFFC0000000000
00000001FFFFF80000000000
00000003FFFFF00000000000
00000007FFFFE00000000000
0000000FFFFFE00000000000
0000000FFFFFC00000000000
0000001FFFFF800000000000
0000003FFFFF000000000000
0000007FFFFE000000000000
000000FFFFFE000000000000
000000FFFFFC000000000000
000001FFFFF8000000000000
000003FFFFF0000000000000
000007FFFFE0000000000000
00000FFFFFC0000000000000
00001FFFFFC0000000000000
00001FFFFF80000000000000
00003FFFFF00000000000000
00007FFFFE00000000000000
0000FFFFFC00000000000000
0001FFFFFC00000000000000
0003FFFFF800000000000000
0003FFFFF000000000000000
0007FFFFE000000000000000
000FFFFFC000000000000000
001FFFFF8000000000000000
003FFFFF8000000000000000
007FFFFF0000000000000000
007FFFFE0000000000000000
00FFFFFC0000000000000000
01FFFFF80000000000000000
03FFFFF80000000000000000
07FFFFF00000000000000000
0FFFFFE00000000000000000
0FFFFFC00000000000000000
1FFFFF800000000000000000
3FFFFF000000000000000000
7FFFFF000000000000000000
ENDCHAR
STARTCHAR eight
ENCODING 56
SWIDTH 898 0
DWIDTH 122 0
BBX 108 99 7 0
BITMAP
0000003FFFFFFFFFFFFFC0000000
000007FFFFFFFFFFFFFFFE000000
00003FFFFFFFFFFFFFFFFFC00000
0000FFFFFFFFFFFFFFFFFFF80000
0003FFFFFFFFFFFFFFFFFFFE0000
000FFFFFFFFFFFFFFFFFFFFF0000
003FFFFFFFFFFFFFFFFFFFFFC000
007FFFFFFFFFFFFFFFFFFFFFE000
00FFFFFFFFFFFFFFFFFFFFFFF000
01FFFFFFFFFFFFFFFFFFFFFFF800
03FFFFFFFFFFFFFFFFFFFFFFFC00
03FFFFFFFFFFFFFFFFFFFFFFFC00
07FFFFFFFFFFFFFFFFFFFFFFFE00
07FFFFFFFFFFFFFFFFFFFFFFFF00
0FFFFFFFFFFFFFFFFFFFFFFFFF00
0FFFFFFFFFFFFFFFFFFFFFFFFF80
1FFFFFFFFFFFFFFFFFFFFFFFFF80
1FFFFFFF00000000000FFFFFFF80
1FFFFFE00000000000007FFFFFC0
3FFFFF800000000000000FFFFFC0
3FFFFE0000000000000007FFFFC0
3FFFFC0000000000000003FFFFC0
3FFFF80000000000000001FFFFC0
3FFFF00000000000000000FFFFC0
3FFFF00000000000000000FFFFC0
3FFFF00000000000000000FFFFC0
3FFFE000000000000000007FFFC0
3FFFE000000000000000007FFFC0
3FFFE000000000000000007FFFC0
3FFFE000000000000000007FFFC0
3FFFE000000000000000007FFFC0
3FFFE000000000000000007FFFC0
1FFFF000000000000000007FFFC0
1FFFF00000000000000000FFFF80
1FFFF00000000000000000FFFF80
1FFFF00000000000000000FFFF80
0FFFF80000000000000001FFFF00
0FFFFC0000000000000003FFFF00
07FFFE0000000000000007FFFE00
03FFFF800000000000001FFFFE00
03FFFFF0000000000000FFFFFC00
01FFFFFFFFFFFFFFFFFFFFFFF800
00FFFFFFFFFFFFFFFFFFFFFFF000
003FFFFFFFFFFFFFFFFFFFFFE000
001FFFFFFFFFFFFFFFFFFFFF8000
0007FFFFFFFFFFFFFFFFFFFE0000
0001FFFFFFFFFFFFFFFFFFF80000
0007FFFFFFFFFFFFFFFFFFFE0000
001FFFFFFFFFFFFFFFFFFFFF8000
007FFFFFFFFFFFFFFFFFFFFFE000
00FFFFFFFFFFFFFFFFFFFFFFF000
01FFFFFFFFFFFFFFFFFFFFFFF800
03FFFFFFFFFFFFFFFFFFFFFFFC00
07FFFFFFFFFFFFFFFFFFFFFFFE00
0FFFFFFFFFFFFFFFFFFFFFFFFF00
0FFFFFFFFFFFFFFFFFFFFFFFFF80
1FFFFFE00000000000007FFFFF80
3FFFFF000000000000000FFFFFC0
3FFFFC0000000000000003FFFFC0
3FFFF80000000000000001FFFFE0
7FFFF00000000000000000FFFFE0
7FFFE000000000000000007FFFE0
7FFFE000000000000000007FFFE0
FFFFC000000000000000003FFFF0
FFFFC000000000000000003FFFF0
FFFFC000000000000000003FFFF0
FFFF8000000000000000001FFFF0
FFFF8000000000000000001FFFF0
FFFF8000000000000000001FFFF0
FFFF8000000000000000001FFFF0
FFFF8000000000000000001FFFF0
FFFFC000000000000000001FFFF0
FFFFC000000000000000003FFFF0
FFFFC000000000000000003FFFF0
FFFFE000000000000000007FFFF0
FFFFE000000000000000007FFFF0
7FFFF00000000000000000FFFFE0
7FFFF80000000000000001FFFFE0
7FFFFE0000000000000003FFFFE0
7FFFFF000000000000000FFFFFE0
3FFFFFE00000000000007FFFFFC0
3FFFFFFF00000000000FFFFFFFC0
1FFFFFFFFFFFFFFFFFFFFFFFFF80
1FFFFFFFFFFFFFFFFFFFFFFFFF80
0FFFFFFFFFFFFFFFFFFFFFFFFF00
0FFFFFFFFFFFFFFFFFFFFFFFFF00
07FFFFFFFFFFFFFFFFFFFFFFFE00
03FFFFFFFFFFFFFFFFFFFFFFFC00
03FFFFFFFFFFFFFFFFFFFFFFFC00
01FFFFFFFFFFFFFFFFFFFFFFF800
00FFFFFFFFFFFFFFFFFFFFFFF000
007FFFFFFFFFFFFFFFFFFFFFE000
001FFFFFFFFFFFFFFFFFFFFFC000
000FFFFFFFFFFFFFFFFFFFFF0000
0007FFFFFFFFFFFFFFFFFFFE0000
0001FFFFFFFFFFFFFFFFFFF80000
00003FFFFFFFFFFFFFFFFFC00000
00000FFFFFFFFFFFFFFFFF000000
0000007FFFFFFFFFFFFFE0000000
ENDCHAR
STARTCHAR nine
ENCODING 57
SWIDTH 861 0
DWIDTH 117 0
BBX 105 99 6 0
BITMAP
000001FFFFFFFFFFF00000000000
00001FFFFFFFFFFFFFC000000000
0000FFFFFFFFFFFFFFF800000000
0003FFFFFFFFFFFFFFFF00000000
0007FFFFFFFFFFFFFFFFC0000000
001FFFFFFFFFFFFFFFFFF0000000
003FFFFFFFFFFFFFFFFFFC000000
007FFFFFFFFFFFFFFFFFFF000000
00FFFFFFFFFFFFFFFFFFFF800000
01FFFFFFFFFFFFFFFFFFFFC00000
03FFFFFFFFFFFFFFFFFFFFE00000
07FFFFFFFFFFFFFFFFFFFFF00000
07FFFFFFFFFFFFFFFFFFFFF80000
0FFFFFFFFFFFFFFFFFFFFFFC0000
1FFFFFFFFFFFFFFFFFFFFFFE0000
1FFFFFFFFFFFFFFFFFFFFFFF0000
1FFFFFFFFFFFFFFFFFFFFFFF8000
3FFFFFF000000001FFFFFFFF8000
3FFFFF800000000003FFFFFFC000
7FFFFE0000000000007FFFFFC000
7FFFFC0000000000001FFFFFE000
7FFFF800000000000007FFFFE000
7FFFF000000000000003FFFFF000
FFFFE000000000000001FFFFF000
FFFFE000000000000000FFFFF800
FFFFC0000000000000007FFFF800
FFFFC0000000000000003FFFFC00
FFFFC0000000000000001FFFFC00
FFFFC0000000000000001FFFFC00
FFFF80000000000000000FFFFE00
FFFF80000000000000000FFFFE00
FFFF800000000000000007FFFE00
FFFF800000000000000007FFFE00
FFFF800000000000000003FFFF00
FFFF800000000000000003FFFF00
FFFF800000000000000003FFFF00
FFFFC00000000000000001FFFF00
FFFFC00000000000000001FFFF00
FFFFC00000000000000001FFFF80
FFFFE00000000000000001FFFF80
7FFFE00000000000000001FFFF80
7FFFF00000000000000000FFFF80
7FFFF80000000000000000FFFF80
7FFFFC0000000000000000FFFF80
3FFFFF0000000000000000FFFF80
3FFFFFE000000000000000FFFF80
3FFFFFFFFFFFFFFFFFFFFFFFFF80
1FFFFFFFFFFFFFFFFFFFFFFFFF80
0FFFFFFFFFFFFFFFFFFFFFFFFF80
0FFFFFFFFFFFFFFFFFFFFFFFFF80
07FFFFFFFFFFFFFFFFFFFFFFFF80
03FFFFFFFFFFFFFFFFFFFFFFFF80
01FFFFFFFFFFFFFFFFFFFFFFFF80
00FFFFFFFFFFFFFFFFFFFFFFFF80
007FFFFFFFFFFFFFFFFFFFFFFF80
003FFFFFFFFFFFFFFFFFFFFFFF80
000FFFFFFFFFFFFFFFFFFFFFFF80
0003FFFFFFFFFFFFFFFFFFFFFF80
00007FFFFFFFFFFFFFFFFFFFFF80
000007FFFFFFFFFFFFFFFFFFFF80
0000000000000000000001FFFF80
0000000000000000000001FFFF80
0000000000000000000001FFFF80
0000000000000000000003FFFF00
0000000000000000000003FFFF00
0000000000000000000003FFFF00
0000000000000000000003FFFF00
0000000000000000000007FFFF00
0000000000000000000007FFFE00
000000000000000000000FFFFE00
000000000000000000000FFFFE00
000000000000000000001FFFFE00
000000000000000000003FFFFC00
000000000000000000003FFFFC00
000000000000000000007FFFF800
00000000000000000000FFFFF800
00000000000000000001FFFFF800
00000000000000000007FFFFF000
0000000000000000000FFFFFF000
0000000000000000007FFFFFE000
000000000000000003FFFFFFE000
0000000000000000FFFFFFFFC000
001FFFFFFFFFFFFFFFFFFFFF8000
001FFFFFFFFFFFFFFFFFFFFF8000
001FFFFFFFFFFFFFFFFFFFFF0000
001FFFFFFFFFFFFFFFFFFFFE0000
001FFFFFFFFFFFFFFFFFFFFC0000
001FFFFFFFFFFFFFFFFFFFF80000
001FFFFFFFFFFFFFFFFFFFF00000
001FFFFFFFFFFFFFFFFFFFE00000
001FFFFFFFFFFFFFFFFFFFC00000
001FFFFFFFFFFFFFFFFFFF800000
001FFFFFFFFFFFFFFFFFFE000000
001FFFFFFFFFFFFFFFFFF8000000
001FFFFFFFFFFFFFFFFFE0000000
001FFFFFFFFFFFFFFFFF80000000
001FFFFFFFFFFFFFFFFC00000000
001FFFFFFFFFFFFFFFE000000000
001FFFFFFFFFFFFFF80000000000
ENDCHAR
STARTCHAR colon
ENCODING 58
SWIDTH 262 0
DWIDTH 36 0
BBX 18 64 9 0
BITMAP
03F000
0FFC00
3FFE00
3FFF00
7FFF80
FFFF80
FFFFC0
FFFFC0
FFFFC0
FFFFC0
FFFFC0
FFFFC0
FFFFC0
FFFF80
7FFF80
7FFF00
3FFE00
1FFC00
07F000
000000
000000
000000
000000
000000
000000
000000
000000
000000
000000
000000
000000
000000
000000
000000
000000
000000
000000
000000
000000
000000
000000
000000
000000
000000
000000
03F000
0FFC00
3FFE00
7FFF00
7FFF80
FFFF80
FFFFC0
FFFFC0
FFFFC0
FFFFC0
FFFFC0
FFFFC0
FFFFC0
FFFF80
7FFF80
7FFF00
3FFE00
0FFC00
07F000
ENDCHAR
STARTCHAR semicolon
ENCODING 59
SWIDTH 262 0
DWIDTH 36 0
BBX 18 79 9 -16
BITMAP
03F000
0FFC00
3FFE00
3FFF00
7FFF80
FFFF80
FFFFC0
FFFFC0
FFFFC0
FFFFC0
FFFFC0
FFFFC0
FFFFC0
FFFF80
7FFF80
3FFF00
3FFE00
0FFC00
03F000
000000
000000
000000
000000
000000
000000
000000
000000
000000
000000
000000
000000
000000
000000
000000
000000
000000
000000
000000
000000
000000
000000
000000
000000
000000
FFFFC0
FFFF80
FFFF80
FFFF80
FFFF80
FFFF80
FFFF00
FFFF00
FFFF00
FFFF00
FFFF00
FFFE00
FFFE00
FFFE00
FFFE00
FFFE00
FFFC00
FFFC00
FFFC00
FFFC00
FFFC00
FFF800
FFF800
FFF800
FFF800
FFF800
FFF800
FFF000
FFF000
FFF000
FFF000
FFF000
FFE000
FFE000
FFE000
ENDCHAR
STARTCHAR less
ENCODING 60
SWIDTH 690 0
DWIDTH 94 0
BBX 76 73 9 14
BITMAP
00000000000000000010
00000000000000000070
000000000000000003F0
00000000000000000FF0
00000000000000007FF0
0000000000000001FFF0
0000000000000007FFF0
000000000000003FFFF0
00000000000000FFFFF0
00000000000003FFFFF0
0000000000001FFFFFF0
0000000000007FFFFFF0
000000000003FFFFFFF0
00000000000FFFFFFF80
00000000003FFFFFFE00
0000000001FFFFFFF000
0000000007FFFFFFC000
000000003FFFFFFE0000
00000000FFFFFFF80000
00000003FFFFFFC00000
0000001FFFFFFF000000
0000007FFFFFF8000000
000001FFFFFFC0000000
00000FFFFFFF00000000
00003FFFFFF800000000
0001FFFFFFE000000000
0007FFFFFF0000000000
001FFFFFFC0000000000
00FFFFFFE00000000000
03FFFFFF000000000000
0FFFFFFC000000000000
3FFFFFE0000000000000
7FFFFF80000000000000
FFFFFC00000000000000
FFFFF000000000000000
FFFF8000000000000000
FFFE0000000000000000
FFFF8000000000000000
FFFFE000000000000000
FFFFFC00000000000000
7FFFFF00000000000000
3FFFFFE0000000000000
1FFFFFF8000000000000
07FFFFFF000000000000
00FFFFFFC00000000000
003FFFFFF80000000000
000FFFFFFE0000000000
0001FFFFFFC000000000
00007FFFFFF000000000
00000FFFFFFE00000000
000003FFFFFF80000000
000000FFFFFFF0000000
0000001FFFFFFC000000
00000007FFFFFF800000
00000001FFFFFFF00000
000000003FFFFFFC0000
000000000FFFFFFF8000
0000000001FFFFFFE000
00000000007FFFFFFC00
00000000001FFFFFFF00
000000000003FFFFFFE0
000000000000FFFFFFF0
0000000000003FFFFFF0
00000000000007FFFFF0
00000000000001FFFFF0
000000000000003FFFF0
000000000000000FFFF0
0000000000000003FFF0
00000000000000007FF0
00000000000000001FF0
000000000000000007F0
000000000000000000F0
00000000000000000030
ENDCHAR
STARTCHAR equal
ENCODING 61
SWIDTH 690 0
DWIDTH 94 0
BBX 76 48 9 26
BITMAP
FFFFFFFFFFFFFFFFFFF0
FFFFFFFFFFFFFFFFFFF0
FFFFFFFFFFFFFFFFFFF0
FFFFFFFFFFFFFFFFFFF0
FFFFFFFFFFFFFFFFFFF0
FFFFFFFFFFFFFFFFFFF0
FFFFFFFFFFFFFFFFFFF0
FFFFFFFFFFFFFFFFFFF0
FFFFFFFFFFFFFFFFFFF0
FFFFFFFFFFFFFFFFFFF0
FFFFFFFFFFFFFFFFFFF0
00000000000000000000
00000000000000000000
00000000000000000000
00000000000000000000
00000000000000000000
00000000000000000000
00000000000000000000
00000000000000000000
00000000000000000000
00000000000000000000
00000000000000000000
00000000000000000000
00000000000000000000
00000000000000000000
00000000000000000000
00000000000000000000
00000000000000000000
00000000000000000000
00000000000000000000
00000000000000000000
00000000000000000000
00000000000000000000
00000000000000000000
00000000000000000000
00000000000000000000
00000000000000000000
FFFFFFFFFFFFFFFFFFF0
FFFFFFFFFFFFFFFFFFF0
FFFFFFFFFFFFFFFFFFF0
FFFFFFFFFFFFFFFFFFF0
FFFFFFFFFFFFFFFFFFF0
FFFFFFFFFFFFFFFFFFF0
FFFFFFFFFFFFFFFFFFF0
FFFFFFFFFFFFFFFFFFF0
FFFFFFFFFFFFFFFFFFF0
FFFFFFFFFFFFFFFFFFF0
FFFFFFFFFFFFFFFFFFF0
ENDCHAR
STARTCHAR greater
ENCODING 62
SWIDTH 690 0
DWIDTH 94 0
BBX 76 73 9 14
BITMAP
80000000000000000000
E0000000000000000000
FC000000000000000000
FF000000000000000000
FFC00000000000000000
FFF80000000000000000
FFFE0000000000000000
FFFFC000000000000000
FFFFF000000000000000
FFFFFC00000000000000
FFFFFF80000000000000
FFFFFFE0000000000000
FFFFFFF8000000000000
3FFFFFFF000000000000
07FFFFFFC00000000000
00FFFFFFF80000000000
003FFFFFFE0000000000
0007FFFFFF8000000000
0001FFFFFFF000000000
00003FFFFFFC00000000
00000FFFFFFF80000000
000001FFFFFFE0000000
0000007FFFFFF8000000
0000000FFFFFFF000000
00000001FFFFFFC00000
000000007FFFFFF00000
000000000FFFFFFE0000
0000000003FFFFFF8000
00000000007FFFFFF000
00000000001FFFFFFC00
000000000003FFFFFF00
000000000000FFFFFFC0
0000000000001FFFFFE0
00000000000003FFFFE0
00000000000000FFFFF0
000000000000001FFFF0
0000000000000007FFF0
000000000000001FFFF0
000000000000007FFFF0
00000000000003FFFFF0
0000000000000FFFFFE0
0000000000007FFFFFC0
000000000001FFFFFF80
00000000000FFFFFFC00
00000000003FFFFFF000
0000000001FFFFFFC000
0000000007FFFFFE0000
000000003FFFFFF80000
00000000FFFFFFE00000
00000007FFFFFF000000
0000003FFFFFFC000000
000000FFFFFFF0000000
000007FFFFFF80000000
00001FFFFFFE00000000
0000FFFFFFF000000000
0003FFFFFFC000000000
001FFFFFFF0000000000
007FFFFFF80000000000
03FFFFFFE00000000000
0FFFFFFF800000000000
7FFFFFFC000000000000
FFFFFFF0000000000000
FFFFFF80000000000000
FFFFFE00000000000000
FFFFF800000000000000
FFFFC000000000000000
FFFF0000000000000000
FFFC0000000000000000
FFE00000000000000000
FF800000000000000000
FC000000000000000000
F0000000000000000000
C0000000000000000000
ENDCHAR
STARTCHAR question
ENCODING 63
SWIDTH 776 0
DWIDTH 106 0
BBX 95 99 6 0
BITMAP
FFFFFFFFFFFFFFFFFF000000
FFFFFFFFFFFFFFFFFFF80000
FFFFFFFFFFFFFFFFFFFE0000
FFFFFFFFFFFFFFFFFFFFC000
FFFFFFFFFFFFFFFFFFFFE000
FFFFFFFFFFFFFFFFFFFFF800
FFFFFFFFFFFFFFFFFFFFFC00
FFFFFFFFFFFFFFFFFFFFFE00
FFFFFFFFFFFFFFFFFFFFFF00
FFFFFFFFFFFFFFFFFFFFFF80
FFFFFFFFFFFFFFFFFFFFFFC0
FFFFFFFFFFFFFFFFFFFFFFE0
FFFFFFFFFFFFFFFFFFFFFFF0
FFFFFFFFFFFFFFFFFFFFFFF0
FFFFFFFFFFFFFFFFFFFFFFF8
FFFFFFFFFFFFFFFFFFFFFFF8
FFFFFFFFFFFFFFFFFFFFFFFC
00000000000000000FFFFFFC
000000000000000000FFFFFC
0000000000000000007FFFFC
0000000000000000001FFFFE
0000000000000000000FFFFE
0000000000000000000FFFFE
00000000000000000007FFFE
00000000000000000007FFFE
00000000000000000007FFFE
00000000000000000003FFFE
00000000000000000003FFFE
00000000000000000003FFFE
00000000000000000003FFFE
00000000000000000003FFFE
00000000000000000007FFFE
00000000000000000007FFFE
00000000000000000007FFFE
0000000000000000000FFFFE
0000000000000000000FFFFC
0000000000000000001FFFFC
0000000000000000003FFFFC
000000000000000000FFFFF8
000000000000000003FFFFF8
0000003FFFFFFFFFFFFFFFF0
000007FFFFFFFFFFFFFFFFF0
00001FFFFFFFFFFFFFFFFFE0
00007FFFFFFFFFFFFFFFFFE0
0000FFFFFFFFFFFFFFFFFFC0
0001FFFFFFFFFFFFFFFFFF80
0003FFFFFFFFFFFFFFFFFF00
0007FFFFFFFFFFFFFFFFFE00
000FFFFFFFFFFFFFFFFFFC00
000FFFFFFFFFFFFFFFFFF800
001FFFFFFFFFFFFFFFFFE000
001FFFFFFFFFFFFFFFFF8000
003FFFFFFFFFFFFFFFFE0000
003FFFFFFFFFFFFFFFF00000
003FFFFFFFFFFFFFFF000000
003FFFF80000000000000000
007FFFE00000000000000000
007FFFC00000000000000000
007FFFC00000000000000000
007FFFC00000000000000000
007FFFC00000000000000000
007FFFC00000000000000000
007FFFC00000000000000000
007FFFC00000000000000000
007FFFC00000000000000000
007FFFC00000000000000000
000000000000000000000000
000000000000000000000000
000000000000000000000000
000000000000000000000000
000000000000000000000000
000000000000000000000000
000000000000000000000000
000000000000000000000000
000000000000000000000000
000000000000000000000000
000000000000000000000000
000000000000000000000000
000000000000000000000000
000000000000000000000000
0001F8000000000000000000
000FFE000000000000000000
001FFF000000000000000000
003FFF800000000000000000
003FFFC00000000000000000
007FFFC00000000000000000
007FFFE00000000000000000
007FFFE00000000000000000
00FFFFE00000000000000000
00FFFFE00000000000000000
00FFFFE00000000000000000
007FFFE00000000000000000
007FFFE00000000000000000
007FFFC00000000000000000
003FFFC00000000000000000
003FFF800000000000000000
001FFF000000000000000000
000FFE000000000000000000
0003F8000000000000000000
ENDCHAR
STARTCHAR at
ENCODING 64
SWIDTH 833 0
DWIDTH 113 0
BBX 99 99 6 0
BITMAP
00000000003FFFFFFFFFFFFFE0
0000000007FFFFFFFFFFFFFFE0
000000007FFFFFFFFFFFFFFFE0
00000001FFFFFFFFFFFFFFFFE0
0000000FFFFFFFFFFFFFFFFFE0
0000003FFFFFFFFFFFFFFFFFE0
000000FFFFFFFFFFFFFFFFFFE0
000001FFFFFFFFFFFFFFFFFFE0
000007FFFFFFFFFFFFFFFFFFE0
00000FFFFFFFFFFFFFFFFFFFE0
00003FFFFFFFFFFFFFFFFFFFE0
00007FFFFFFFFFFFFFFFFFFFE0
0000FFFFFFFFFFFFFFFFFFFFE0
0001FFFFFFE00000000003FFE0
0003FFFFFC000000000003FFE0
0007FFFFE0000000000003FFE0
000FFFFF00000000000003FFE0
001FFFFC00000000000003FFE0
003FFFF800000000000003FFE0
003FFFE000000000000003FFE0
007FFFC000000000000003FFE0
00FFFF0000000000000003FFE0
00FFFE0000000000000003FFE0
01FFFC0000000000000003FFE0
03FFF80000000000000003FFE0
03FFF00000000000000003FFE0
07FFF00000000000000003FFE0
07FFE000001FFFFFFFC003FFE0
0FFFC00000FFFFFFFFC003FFE0
0FFFC00003FFFFFFFFC003FFE0
0FFF80000FFFFFFFFFC003FFE0
1FFF80001FFFFFFFFFC003FFE0
1FFF00003FFFFFFFFFC003FFE0
3FFF00007FFFFFFFFFC003FFE0
3FFE0000FFFFFFFFFFC003FFE0
3FFE0000FFFFFFFFFFC003FFE0
7FFC0001FFFFFFFFFFC003FFE0
7FFC0001FFFE0001FFC003FFE0
7FFC0003FFF80001FFC003FFE0
7FFC0003FFE00001FFC003FFE0
7FF80007FFC00001FFC003FFE0
FFF80007FF800001FFC003FFE0
FFF80007FF800001FFC003FFE0
FFF8000FFF000001FFC003FFE0
FFF8000FFF000001FFC003FFE0
FFF8000FFF000001FFC003FFE0
FFF8000FFF000001FFC003FFE0
FFF8000FFF000001FFC003FFE0
FFF8000FFE000001FFC003FFE0
FFF8000FFE000001FFC003FFE0
FFF8000FFE000001FFC003FFE0
FFF8000FFF000001FFC003FFE0
FFF8000FFF000001FFC003FFE0
FFF8000FFF000001FFC003FFE0
FFF8000FFF000001FFC003FFE0
FFF8000FFF800001FFC003FFE0
FFF80007FF800001FFC003FFE0
FFF80007FFC00001FFC003FFE0
FFF80007FFE00001FFC003FFE0
FFFC0007FFF00001FFC003FFE0
7FFC0003FFF80001FFC003FFE0
7FFC0003FFFE0001FFC003FFE0
7FFE0001FFFFFFFFFFFFFFFFE0
7FFE0001FFFFFFFFFFFFFFFFE0
7FFE0000FFFFFFFFFFFFFFFFE0
3FFF00007FFFFFFFFFFFFFFFE0
3FFF00007FFFFFFFFFFFFFFFE0
3FFF80003FFFFFFFFFFFFFFFE0
1FFF80001FFFFFFFFFFFFFFFE0
1FFFC00007FFFFFFFFFFFFFFE0
1FFFC00003FFFFFFFFFFFFFFE0
0FFFE00000FFFFFFFFFFFFFFE0
0FFFF000001FFFFFFFFFFFFFE0
07FFF000000000000000000000
07FFF800000000000000000000
03FFFC00000000000000000000
03FFFE00000000000000000000
01FFFF00000000000000000000
00FFFFC0000000000000000000
00FFFFE0000000000000000000
007FFFF0000000000000000000
003FFFFC000000000000000000
001FFFFF000000000000000000
000FFFFFE00000000000000000
0007FFFFFC0000000000000000
0003FFFFFFE000000000000000
0001FFFFFFFFFFFFFFFFFFFFE0
0000FFFFFFFFFFFFFFFFFFFFE0
00007FFFFFFFFFFFFFFFFFFFE0
00003FFFFFFFFFFFFFFFFFFFE0
00000FFFFFFFFFFFFFFFFFFFE0
000007FFFFFFFFFFFFFFFFFFE0
000001FFFFFFFFFFFFFFFFFFE0
0000007FFFFFFFFFFFFFFFFFE0
0000001FFFFFFFFFFFFFFFFFE0
00000007FFFFFFFFFFFFFFFFE0
00000000FFFFFFFFFFFFFFFFE0
000000000FFFFFFFFFFFFFFFE0
00000000007FFFFFFFFFFFFFE0
ENDCHAR
STARTCHAR A
ENCODING 65
SWIDTH 989 0
DWIDTH 135 0
BBX 130 101 2 0
BITMAP
0000000000000000400000000000000000
0000000000000007F80000000000000000
000000000000000FFE0000000000000000
000000000000001FFF0000000000000000
000000000000003FFF0000000000000000
000000000000007FFF8000000000000000
00000000000000FFFFC000000000000000
00000000000000FFFFC000000000000000
00000000000001FFFFE000000000000000
00000000000001FFFFF000000000000000
00000000000003FFFFF000000000000000
00000000000007FFFFF800000000000000
00000000000007FFFFF800000000000000
0000000000000FFFFFFC00000000000000
0000000000000FFFFFFE00000000000000
0000000000001FFFFFFE00000000000000
0000000000003FFFFFFF00000000000000
0000000000003FFFFFFF00000000000000
0000000000007FFFFFFF80000000000000
0000000000007FFFFFFFC0000000000000
000000000000FFFFFFFFC0000000000000
000000000000FFFFFFFFE0000000000000
000000000001FFFFFFFFE0000000000000
000000000003FFFFFFFFF0000000000000
000000000003FFFFFFFFF8000000000000
000000000007FFFF7FFFF8000000000000
000000000007FFFF7FFFFC000000000000
00000000000FFFFE3FFFFC000000000000
00000000001FFFFC1FFFFE000000000000
00000000001FFFFC1FFFFF000000000000
00000000003FFFF80FFFFF000000000000
00000000003FFFF80FFFFF800000000000
00000000007FFFF007FFFF800000000000
0000000000FFFFE003FFFFC00000000000
0000000000FFFFE003FFFFE00000000000
0000000001FFFFC001FFFFE00000000000
0000000001FFFFC001FFFFF00000000000
0000000003FFFF8000FFFFF00000000000
0000000007FFFF80007FFFF80000000000
0000000007FFFF00007FFFFC0000000000
000000000FFFFE00003FFFFC0000000000
000000000FFFFE00003FFFFE0000000000
000000001FFFFC00001FFFFE0000000000
000000003FFFFC00000FFFFF0000000000
000000003FFFF800000FFFFF8000000000
000000007FFFF0000007FFFF8000000000
000000007FFFF0000007FFFFC000000000
00000000FFFFE0000003FFFFC000000000
00000001FFFFE0000001FFFFE000000000
00000001FFFFC0000001FFFFF000000000
00000003FFFF80000000FFFFF000000000
00000003FFFF80000000FFFFF800000000
00000007FFFF000000007FFFF800000000
0000000FFFFF000000007FFFFC00000000
0000000FFFFE000000003FFFFE00000000
0000001FFFFC000000001FFFFE00000000
0000001FFFFC000000001FFFFF00000000
0000003FFFF8000000000FFFFF00000000
0000007FFFF8000000000FFFFF80000000
0000007FFFF00000000007FFFFC0000000
000000FFFFF00000000003FFFFC0000000
000000FFFFE00000000003FFFFE0000000
000001FFFFC000FFFFFFFFFFFFE0000000
000003FFFFC001FFFFFFFFFFFFF0000000
000003FFFF8001FFFFFFFFFFFFF8000000
000007FFFF8003FFFFFFFFFFFFF8000000
000007FFFF0003FFFFFFFFFFFFFC000000
00000FFFFE0007FFFFFFFFFFFFFC000000
00001FFFFE000FFFFFFFFFFFFFFE000000
00001FFFFC000FFFFFFFFFFFFFFF000000
00003FFFFC001FFFFFFFFFFFFFFF000000
00003FFFF8001FFFFFFFFFFFFFFF800000
00007FFFF0003FFFFFFFFFFFFFFF800000
0000FFFFF0007FFFFFFFFFFFFFFFC00000
0000FFFFE0007FFFFFFFFFFFFFFFE00000
0001FFFFE000FFFFFFFFFFFFFFFFE00000
0001FFFFC000000000000001FFFFF00000
0003FFFFC000000000000000FFFFF00000
0007FFFF8000000000000000FFFFF80000
0007FFFF00000000000000007FFFFC0000
000FFFFF00000000000000007FFFFC0000
000FFFFE00000000000000003FFFFE0000
001FFFFE00000000000000001FFFFE0000
003FFFFC00000000000000001FFFFF0000
003FFFF800000000000000000FFFFF8000
007FFFF800000000000000000FFFFF8000
007FFFF0000000000000000007FFFFC000
00FFFFF0000000000000000003FFFFC000
01FFFFE0000000000000000003FFFFE000
01FFFFC0000000000000000001FFFFF000
03FFFFC0000000000000000001FFFFF000
03FFFF80000000000000000000FFFFF800
07FFFF800000000000000000007FFFF800
0FFFFF000000000000000000007FFFFC00
0FFFFE000000000000000000003FFFFE00
1FFFFE000000000000000000003FFFFE00
1FFFFC000000000000000000001FFFFF00
3FFFFC000000000000000000000FFFFF00
7FFFF8000000000000000000000FFFFF80
7FFFF80000000000000000000007FFFFC0
FFFFF00000000000000000000007FFFFC0
ENDCHAR
STARTCHAR B
ENCODING 66
SWIDTH 891 0
DWIDTH 121 0
BBX 107 99 8 0
BITMAP
FFFFFFFFFFFFFFFFFFFF00000000
FFFFFFFFFFFFFFFFFFFFF8000000
FFFFFFFFFFFFFFFFFFFFFF800000
FFFFFFFFFFFFFFFFFFFFFFE00000
FFFFFFFFFFFFFFFFFFFFFFF80000
FFFFFFFFFFFFFFFFFFFFFFFE0000
FFFFFFFFFFFFFFFFFFFFFFFF0000
FFFFFFFFFFFFFFFFFFFFFFFF8000
FFFFFFFFFFFFFFFFFFFFFFFFC000
FFFFFFFFFFFFFFFFFFFFFFFFE000
FFFFFFFFFFFFFFFFFFFFFFFFF000
FFFFFFFFFFFFFFFFFFFFFFFFF800
FFFFFFFFFFFFFFFFFFFFFFFFF800
FFFFFFFFFFFFFFFFFFFFFFFFFC00
FFFFFFFFFFFFFFFFFFFFFFFFFE00
FFFFFFFFFFFFFFFFFFFFFFFFFE00
FFFFFFFFFFFFFFFFFFFFFFFFFE00
FFFFC0000000000001FFFFFFFF00
FFFFC000000000000001FFFFFF00
FFFFC0000000000000003FFFFF00
FFFFC0000000000000001FFFFF00
FFFFC00000000000000007FFFF80
FFFFC00000000000000007FFFF80
FFFFC00000000000000003FFFF80
FFFFC00000000000000001FFFF80
FFFFC00000000000000001FFFF80
FFFFC00000000000000001FFFF80
FFFFC00000000000000001FFFF80
FFFFC00000000000000001FFFF80
FFFFC00000000000000001FFFF80
FFFFC00000000000000001FFFF80
FFFFC00000000000000001FFFF00
FFFFC00000000000000001FFFF00
FFFFC00000000000000001FFFF00
FFFFC00000000000000001FFFF00
FFFFC00000000000000003FFFE00
FFFFC00000000000000003FFFE00
FFFFC00000000000000007FFFC00
FFFFC0000000000000000FFFFC00
FFFFC0000000000000003FFFF800
FFFFC000000000000001FFFFF000
FFFFC003FFFFFFFFFFFFFFFFE000
FFFFC003FFFFFFFFFFFFFFFFC000
FFFFC003FFFFFFFFFFFFFFFF8000
FFFFC003FFFFFFFFFFFFFFFF0000
FFFFC003FFFFFFFFFFFFFFFC0000
FFFFC003FFFFFFFFFFFFFFE00000
FFFFC003FFFFFFFFFFFFFFFC0000
FFFFC003FFFFFFFFFFFFFFFE0000
FFFFC003FFFFFFFFFFFFFFFF8000
FFFFC003FFFFFFFFFFFFFFFFC000
FFFFC003FFFFFFFFFFFFFFFFF000
FFFFC003FFFFFFFFFFFFFFFFF800
FFFFC003FFFFFFFFFFFFFFFFF800
FFFFC003FFFFFFFFFFFFFFFFFC00
FFFFC003FFFFFFFFFFFFFFFFFE00
FFFFC000000000000001FFFFFF00
FFFFC0000000000000003FFFFF00
FFFFC0000000000000000FFFFF80
FFFFC00000000000000007FFFF80
FFFFC00000000000000003FFFF80
FFFFC00000000000000001FFFFC0
FFFFC00000000000000000FFFFC0
FFFFC00000000000000000FFFFC0
FFFFC000000000000000007FFFC0
FFFFC000000000000000007FFFC0
FFFFC000000000000000007FFFE0
FFFFC000000000000000007FFFE0
FFFFC000000000000000007FFFE0
FFFFC000000000000000007FFFE0
FFFFC000000000000000007FFFE0
FFFFC000000000000000007FFFE0
FFFFC000000000000000007FFFC0
FFFFC00000000000000000FFFFC0
FFFFC00000000000000000FFFFC0
FFFFC00000000000000001FFFFC0
FFFFC00000000000000003FFFFC0
FFFFC00000000000000007FFFFC0
FFFFC0000000000000000FFFFF80
FFFFC0000000000000003FFFFF80
FFFFC000000000000001FFFFFF80
FFFFC00000000000007FFFFFFF00
FFFFFFFFFFFFFFFFFFFFFFFFFF00
FFFFFFFFFFFFFFFFFFFFFFFFFE00
FFFFFFFFFFFFFFFFFFFFFFFFFE00
FFFFFFFFFFFFFFFFFFFFFFFFFC00
FFFFFFFFFFFFFFFFFFFFFFFFFC00
FFFFFFFFFFFFFFFFFFFFFFFFF800
FFFFFFFFFFFFFFFFFFFFFFFFF000
FFFFFFFFFFFFFFFFFFFFFFFFE000
FFFFFFFFFFFFFFFFFFFFFFFFC000
FFFFFFFFFFFFFFFFFFFFFFFF8000
FFFFFFFFFFFFFFFFFFFFFFFF0000
FFFFFFFFFFFFFFFFFFFFFFFE0000
FFFFFFFFFFFFFFFFFFFFFFF80000
FFFFFFFFFFFFFFFFFFFFFFE00000
FFFFFFFFFFFFFFFFFFFFFF800000
FFFFFFFFFFFFFFFFFFFFFC000000
FFFFFFFFFFFFFFFFFFFF80000000
ENDCHAR
STARTCHAR C
ENCODING 67
SWIDTH 829 0
DWIDTH 113 0
BBX 101 99 6 0
BITMAP
0000000000FFFFFFFFFFFFFFF8
000000001FFFFFFFFFFFFFFFF8
00000001FFFFFFFFFFFFFFFFF8
00000007FFFFFFFFFFFFFFFFF8
0000003FFFFFFFFFFFFFFFFFF8
000000FFFFFFFFFFFFFFFFFFF8
000003FFFFFFFFFFFFFFFFFFF8
000007FFFFFFFFFFFFFFFFFFF8
00001FFFFFFFFFFFFFFFFFFFF8
00003FFFFFFFFFFFFFFFFFFFF8
0000FFFFFFFFFFFFFFFFFFFFF8
0001FFFFFFFFFFFFFFFFFFFFF8
0003FFFFFFFFFFFFFFFFFFFFF8
0007FFFFFFFFFFFFFFFFFFFFF8
000FFFFFFFFFFFFFFFFFFFFFF8
001FFFFFFFFFFFFFFFFFFFFFF8
003FFFFFFFFFFFFFFFFFFFFFF8
003FFFFFFFF000000000000000
007FFFFFFE0000000000000000
00FFFFFFF00000000000000000
01FFFFFFC00000000000000000
01FFFFFF000000000000000000
03FFFFFC000000000000000000
03FFFFF8000000000000000000
07FFFFF0000000000000000000
07FFFFC0000000000000000000
0FFFFF80000000000000000000
0FFFFF80000000000000000000
1FFFFF00000000000000000000
1FFFFE00000000000000000000
1FFFFC00000000000000000000
3FFFFC00000000000000000000
3FFFF800000000000000000000
3FFFF800000000000000000000
7FFFF000000000000000000000
7FFFF000000000000000000000
7FFFE000000000000000000000
7FFFE000000000000000000000
7FFFE000000000000000000000
FFFFC000000000000000000000
FFFFC000000000000000000000
FFFFC000000000000000000000
FFFFC000000000000000000000
FFFF8000000000000000000000
FFFF8000000000000000000000
FFFF8000000000000000000000
FFFF8000000000000000000000
FFFF8000000000000000000000
FFFF8000000000000000000000
FFFF8000000000000000000000
FFFF8000000000000000000000
FFFF8000000000000000000000
FFFF8000000000000000000000
FFFF8000000000000000000000
FFFF8000000000000000000000
FFFF8000000000000000000000
FFFFC000000000000000000000
FFFFC000000000000000000000
7FFFC000000000000000000000
7FFFC000000000000000000000
7FFFE000000000000000000000
7FFFE000000000000000000000
7FFFE000000000000000000000
3FFFF000000000000000000000
3FFFF000000000000000000000
3FFFF800000000000000000000
1FFFF800000000000000000000
1FFFFC00000000000000000000
1FFFFC00000000000000000000
0FFFFE00000000000000000000
0FFFFF00000000000000000000
07FFFF80000000000000000000
07FFFFC0000000000000000000
03FFFFE0000000000000000000
03FFFFF0000000000000000000
01FFFFF8000000000000000000
01FFFFFC000000000000000000
00FFFFFF000000000000000000
007FFFFFC00000000000000000
007FFFFFF00000000000000000
003FFFFFFE0000000000000000
001FFFFFFFF000000000000000
000FFFFFFFFFFFFFFFFFFFFFF8
000FFFFFFFFFFFFFFFFFFFFFF8
0007FFFFFFFFFFFFFFFFFFFFF8
0003FFFFFFFFFFFFFFFFFFFFF8
0001FFFFFFFFFFFFFFFFFFFFF8
00007FFFFFFFFFFFFFFFFFFFF8
00003FFFFFFFFFFFFFFFFFFFF8
00001FFFFFFFFFFFFFFFFFFFF8
00000FFFFFFFFFFFFFFFFFFFF8
000003FFFFFFFFFFFFFFFFFFF8
000001FFFFFFFFFFFFFFFFFFF8
0000007FFFFFFFFFFFFFFFFFF8
0000001FFFFFFFFFFFFFFFFFF8
00000007FFFFFFFFFFFFFFFFF8
00000000FFFFFFFFFFFFFFFFF8
000000001FFFFFFFFFFFFFFFF8
0000000000FFFFFFFFFFFFFFF8
ENDCHAR
STARTCHAR D
ENCODING 68
SWIDTH 879 0
DWIDTH 120 0
BBX 105 99 9 0
BITMAP
FFFFFFFFFFFFFFFF800000000000
FFFFFFFFFFFFFFFFFC0000000000
FFFFFFFFFFFFFFFFFF8000000000
FFFFFFFFFFFFFFFFFFF000000000
FFFFFFFFFFFFFFFFFFFC00000000
FFFFFFFFFFFFFFFFFFFF00000000
FFFFFFFFFFFFFFFFFFFFC0000000
FFFFFFFFFFFFFFFFFFFFF0000000
FFFFFFFFFFFFFFFFFFFFF8000000
FFFFFFFFFFFFFFFFFFFFFE000000
FFFFFFFFFFFFFFFFFFFFFF000000
FFFFFFFFFFFFFFFFFFFFFF800000
FFFFFFFFFFFFFFFFFFFFFFC00000
FFFFFFFFFFFFFFFFFFFFFFE00000
FFFFFFFFFFFFFFFFFFFFFFF00000
FFFFFFFFFFFFFFFFFFFFFFF80000
FFFFFFFFFFFFFFFFFFFFFFFC0000
FFFF800000000007FFFFFFFE0000
FFFF8000000000003FFFFFFF0000
FFFF80000000000007FFFFFF0000
FFFF80000000000001FFFFFF8000
FFFF800000000000007FFFFFC000
FFFF800000000000003FFFFFC000
FFFF800000000000000FFFFFE000
FFFF8000000000000007FFFFE000
FFFF8000000000000003FFFFF000
FFFF8000000000000001FFFFF000
FFFF8000000000000000FFFFF800
FFFF80000000000000007FFFF800
FFFF80000000000000003FFFFC00
FFFF80000000000000003FFFFC00
FFFF80000000000000001FFFFC00
FFFF80000000000000000FFFFE00
FFFF80000000000000000FFFFE00
FFFF800000000000000007FFFE00
FFFF800000000000000007FFFE00
FFFF800000000000000007FFFF00
FFFF800000000000000003FFFF00
FFFF800000000000000003FFFF00
FFFF800000000000000003FFFF00
FFFF800000000000000001FFFF00
FFFF800000000000000001FFFF80
FFFF800000000000000001FFFF80
FFFF800000000000000001FFFF80
FFFF800000000000000001FFFF80
FFFF800000000000000000FFFF80
FFFF800000000000000000FFFF80
FFFF800000000000000000FFFF80
FFFF800000000000000000FFFF80
FFFF800000000000000000FFFF80
FFFF800000000000000000FFFF80
FFFF800000000000000000FFFF80
FFFF800000000000000000FFFF80
FFFF800000000000000001FFFF80
FFFF800000000000000001FFFF80
FFFF800000000000000001FFFF80
FFFF800000000000000001FFFF00
FFFF800000000000000001FFFF00
FFFF800000000000000001FFFF00
FFFF800000000000000003FFFF00
FFFF800000000000000003FFFF00
FFFF800000000000000003FFFF00
FFFF800000000000000007FFFE00
FFFF800000000000000007FFFE00
FFFF80000000000000000FFFFE00
FFFF80000000000000000FFFFC00
FFFF80000000000000001FFFFC00
FFFF80000000000000001FFFFC00
FFFF80000000000000003FFFF800
FFFF80000000000000007FFFF800
FFFF80000000000000007FFFF800
FFFF8000000000000000FFFFF000
FFFF8000000000000001FFFFF000
FFFF8000000000000003FFFFE000
FFFF8000000000000007FFFFE000
FFFF800000000000000FFFFFC000
FFFF800000000000003FFFFF8000
FFFF800000000000007FFFFF8000
FFFF80000000000001FFFFFF0000
FFFF80000000000007FFFFFF0000
FFFF8000000000003FFFFFFE0000
FFFF800000000007FFFFFFFC0000
FFFFFFFFFFFFFFFFFFFFFFF80000
FFFFFFFFFFFFFFFFFFFFFFF00000
FFFFFFFFFFFFFFFFFFFFFFE00000
FFFFFFFFFFFFFFFFFFFFFFC00000
FFFFFFFFFFFFFFFFFFFFFF800000
FFFFFFFFFFFFFFFFFFFFFF000000
FFFFFFFFFFFFFFFFFFFFFE000000
FFFFFFFFFFFFFFFFFFFFFC000000
FFFFFFFFFFFFFFFFFFFFF0000000
FFFFFFFFFFFFFFFFFFFFE0000000
FFFFFFFFFFFFFFFFFFFF80000000
FFFFFFFFFFFFFFFFFFFE00000000
FFFFFFFFFFFFFFFFFFF800000000
FFFFFFFFFFFFFFFFFFE000000000
FFFFFFFFFFFFFFFFFF8000000000
FFFFFFFFFFFFFFFFF80000000000
FFFFFFFFFFFFFFFF000000000000
ENDCHAR
STARTCHAR E
ENCODING 69
SWIDTH 759 0
DWIDTH 103 0
BBX 88 99 9 0
BITMAP
FFFFFFFFFFFFFFFFFFFFFF
FFFFFFFFFFFFFFFFFFFFFF
FFFFFFFFFFFFFFFFFFFFFF
FFFFFFFFFFFFFFFFFFFFFF
FFFFFFFFFFFFFFFFFFFFFF
FFFFFFFFFFFFFFFFFFFFFF
FFFFFFFFFFFFFFFFFFFFFF
FFFFFFFFFFFFFFFFFFFFFF
FFFFFFFFFFFFFFFFFFFFFF
FFFFFFFFFFFFFFFFFFFFFF
FFFFFFFFFFFFFFFFFFFFFF
FFFFFFFFFFFFFFFFFFFFFF
FFFFFFFFFFFFFFFFFFFFFF
FFFFFFFFFFFFFFFFFFFFFF
FFFFFFFFFFFFFFFFFFFFFF
FFFFFFFFFFFFFFFFFFFFFF
FFFFFFFFFFFFFFFFFFFFFF
FFFF800000000000000000
FFFF800000000000000000
FFFF800000000000000000
FFFF800000000000000000
FFFF800000000000000000
FFFF800000000000000000
FFFF800000000000000000
FFFF800000000000000000
FFFF800000000000000000
FFFF800000000000000000
FFFF800000000000000000
FFFF800000000000000000
FFFF800000000000000000
FFFF800000000000000000
FFFF800000000000000000
FFFF800000000000000000
FFFF800000000000000000
FFFF800000000000000000
FFFF800000000000000000
FFFF800000000000000000
FFFF800000000000000000
FFFF800000000000000000
FFFF800000000000000000
FFFF800000000000000000
FFFF8007FFFFFFFFFFFFF0
FFFF8007FFFFFFFFFFFFF0
FFFF8007FFFFFFFFFFFFF0
FFFF8007FFFFFFFFFFFFF0
FFFF8007FFFFFFFFFFFFF0
FFFF8007FFFFFFFFFFFFF0
FFFF8007FFFFFFFFFFFFF0
FFFF8007FFFFFFFFFFFFF0
FFFF8007FFFFFFFFFFFFF0
FFFF8007FFFFFFFFFFFFF0
FFFF8007FFFFFFFFFFFFF0
FFFF8007FFFFFFFFFFFFF0
FFFF8007FFFFFFFFFFFFF0
FFFF8007FFFFFFFFFFFFF0
FFFF8007FFFFFFFFFFFFF0
FFFF800000000000000000
FFFF800000000000000000
FFFF800000000000000000
FFFF800000000000000000
FFFF800000000000000000
FFFF800000000000000000
FFFF800000000000000000
FFFF800000000000000000
FFFF800000000000000000
FFFF800000000000000000
FFFF800000000000000000
FFFF800000000000000000
FFFF800000000000000000
FFFF800000000000000000
FFFF800000000000000000
FFFF800000000000000000
FFFF800000000000000000
FFFF800000000000000000
FFFF800000000000000000
FFFF800000000000000000
FFFF800000000000000000
FFFF800000000000000000
FFFF800000000000000000
FFFF800000000000000000
FFFF800000000000000000
FFFF800000000000000000
FFFFFFFFFFFFFFFFFFFFFF
FFFFFFFFFFFFFFFFFFFFFF
FFFFFFFFFFFFFFFFFFFFFF
FFFFFFFFFFFFFFFFFFFFFF
FFFFFFFFFFFFFFFFFFFFFF
FFFFFFFFFFFFFFFFFFFFFF
FFFFFFFFFFFFFFFFFFFFFF
FFFFFFFFFFFFFFFFFFFFFF
FFFFFFFFFFFFFFFFFFFFFF
FFFFFFFFFFFFFFFFFFFFFF
FFFFFFFFFFFFFFFFFFFFFF
FFFFFFFFFFFFFFFFFFFFFF
FFFFFFFFFFFFFFFFFFFFFF
FFFFFFFFFFFFFFFFFFFFFF
FFFFFFFFFFFFFFFFFFFFFF
FFFFFFFFFFFFFFFFFFFFFF
FFFFFFFFFFFFFFFFFFFFFF
ENDCHAR
STARTCHAR F
ENCODING 70
SWIDTH 705 0
DWIDTH 96 0
BBX 83 99 9 0
BITMAP
FFFFFFFFFFFFFFFFFFFFE0
FFFFFFFFFFFFFFFFFFFFE0
FFFFFFFFFFFFFFFFFFFFE0
FFFFFFFFFFFFFFFFFFFFE0
FFFFFFFFFFFFFFFFFFFFE0
FFFFFFFFFFFFFFFFFFFFE0
FFFFFFFFFFFFFFFFFFFFE0
FFFFFFFFFFFFFFFFFFFFE0
FFFFFFFFFFFFFFFFFFFFE0
FFFFFFFFFFFFFFFFFFFFE0
FFFFFFFFFFFFFFFFFFFFE0
FFFFFFFFFFFFFFFFFFFFE0
FFFFFFFFFFFFFFFFFFFFE0
FFFFFFFFFFFFFFFFFFFFE0
FFFFFFFFFFFFFFFFFFFFE0
FFFFFFFFFFFFFFFFFFFFE0
FFFFFFFFFFFFFFFFFFFFE0
FFFF800000000000000000
FFFF800000000000000000
FFFF800000000000000000
FFFF800000000000000000
FFFF800000000000000000
FFFF800000000000000000
FFFF800000000000000000
FFFF800000000000000000
FFFF800000000000000000
FFFF800000000000000000
FFFF800000000000000000
FFFF800000000000000000
FFFF800000000000000000
FFFF800000000000000000
FFFF800000000000000000
FFFF800000000000000000
FFFF800000000000000000
FFFF800000000000000000
FFFF800000000000000000
FFFF800000000000000000
FFFF800000000000000000
FFFF800000000000000000
FFFF800000000000000000
FFFF800000000000000000
FFFF800000000000000000
FFFF800000000000000000
FFFF8007FFFFFFFFFFFE00
FFFF8007FFFFFFFFFFFE00
FFFF8007FFFFFFFFFFFE00
FFFF8007FFFFFFFFFFFE00
FFFF8007FFFFFFFFFFFE00
FFFF8007FFFFFFFFFFFE00
FFFF8007FFFFFFFFFFFE00
FFFF8007FFFFFFFFFFFE00
FFFF8007FFFFFFFFFFFE00
FFFF8007FFFFFFFFFFFE00
FFFF8007FFFFFFFFFFFE00
FFFF8007FFFFFFFFFFFE00
FFFF8007FFFFFFFFFFFE00
FFFF8007FFFFFFFFFFFE00
FFFF8007FFFFFFFFFFFE00
FFFF800000000000000000
FFFF800000000000000000
FFFF800000000000000000
FFFF800000000000000000
FFFF800000000000000000
FFFF800000000000000000
FFFF800000000000000000
FFFF800000000000000000
FFFF800000000000000000
FFFF800000000000000000
FFFF800000000000000000
FFFF800000000000000000
FFFF800000000000000000
FFFF800000000000000000
FFFF800000000000000000
FFFF800000000000000000
FFFF800000000000000000
FFFF800000000000000000
FFFF800000000000000000
FFFF800000000000000000
FFFF800000000000000000
FFFF800000000000000000
FFFF800000000000000000
FFFF800000000000000000
FFFF800000000000000000
FFFF800000000000000000
FFFF800000000000000000
FFFF800000000000000000
FFFF800000000000000000
FFFF800000000000000000
FFFF800000000000000000
FFFF800000000000000000
FFFF800000000000000000
FFFF800000000000000000
FFFF800000000000000000
FFFF800000000000000000
FFFF800000000000000000
FFFF800000000000000000
FFFF800000000000000000
FFFF800000000000000000
FFFF800000000000000000
ENDCHAR
STARTCHAR G
ENCODING 71
SWIDTH 888 0
DWIDTH 121 0
BBX 107 99 6 0
BITMAP
0000000000FFFFFFFFFFFFFFF800
000000001FFFFFFFFFFFFFFFF800
00000001FFFFFFFFFFFFFFFFF800
00000007FFFFFFFFFFFFFFFFF800
0000003FFFFFFFFFFFFFFFFFF800
000000FFFFFFFFFFFFFFFFFFF800
000003FFFFFFFFFFFFFFFFFFF800
000007FFFFFFFFFFFFFFFFFFF800
00001FFFFFFFFFFFFFFFFFFFF800
00003FFFFFFFFFFFFFFFFFFFF800
0000FFFFFFFFFFFFFFFFFFFFF800
0001FFFFFFFFFFFFFFFFFFFFF800
0003FFFFFFFFFFFFFFFFFFFFF800
0007FFFFFFFFFFFFFFFFFFFFF800
000FFFFFFFFFFFFFFFFFFFFFF800
001FFFFFFFFFFFFFFFFFFFFFF800
003FFFFFFFFFFFFFFFFFFFFFF800
003FFFFFFFF00000000000000000
007FFFFFFE000000000000000000
00FFFFFFF0000000000000000000
01FFFFFFC0000000000000000000
01FFFFFF00000000000000000000
03FFFFFC00000000000000000000
03FFFFF800000000000000000000
07FFFFF000000000000000000000
07FFFFC000000000000000000000
0FFFFF8000000000000000000000
0FFFFF8000000000000000000000
1FFFFF0000000000000000000000
1FFFFE0000000000000000000000
1FFFFC0000000000000000000000
3FFFFC0000000000000000000000
3FFFF80000000000000000000000
3FFFF80000000000000000000000
7FFFF00000000000000000000000
7FFFF00000000000000000000000
7FFFE00000000000000000000000
7FFFE00000000000000000000000
7FFFE00000000000000000000000
FFFFC00000000000000000000000
FFFFC00000000000000000000000
FFFFC0000007FFFFFFFFFFFFFFE0
FFFFC0000007FFFFFFFFFFFFFFE0
FFFF80000007FFFFFFFFFFFFFFE0
FFFF80000007FFFFFFFFFFFFFFE0
FFFF80000007FFFFFFFFFFFFFFE0
FFFF80000007FFFFFFFFFFFFFFE0
FFFF80000007FFFFFFFFFFFFFFE0
FFFF80000007FFFFFFFFFFFFFFE0
FFFF80000007FFFFFFFFFFFFFFE0
FFFF80000007FFFFFFFFFFFFFFE0
FFFF80000007FFFFFFFFFFFFFFE0
FFFF80000007FFFFFFFFFFFFFFE0
FFFF80000007FFFFFFFFFFFFFFE0
FFFF80000007FFFFFFFFFFFFFFE0
FFFF80000007FFFFFFFFFFFFFFE0
FFFFC000000000000000003FFFE0
FFFFC000000000000000003FFFE0
7FFFC000000000000000003FFFE0
7FFFC000000000000000003FFFE0
7FFFE000000000000000003FFFE0
7FFFE000000000000000003FFFE0
7FFFE000000000000000003FFFE0
3FFFF000000000000000003FFFE0
3FFFF000000000000000003FFFE0
3FFFF800000000000000003FFFE0
1FFFF800000000000000003FFFE0
1FFFFC00000000000000003FFFE0
1FFFFC00000000000000003FFFE0
0FFFFE00000000000000003FFFE0
0FFFFF00000000000000003FFFE0
07FFFF80000000000000003FFFE0
07FFFFC0000000000000003FFFE0
03FFFFE0000000000000003FFFE0
03FFFFF0000000000000003FFFE0
01FFFFF8000000000000003FFFE0
01FFFFFC000000000000003FFFE0
00FFFFFF000000000000003FFFE0
007FFFFFC00000000000003FFFE0
007FFFFFF00000000000003FFFE0
003FFFFFFE0000000000003FFFE0
001FFFFFFFF000000000003FFFE0
000FFFFFFFFFFFFFFFFFFFFFFFE0
000FFFFFFFFFFFFFFFFFFFFFFFE0
0007FFFFFFFFFFFFFFFFFFFFFFE0
0003FFFFFFFFFFFFFFFFFFFFFFE0
0001FFFFFFFFFFFFFFFFFFFFFFE0
00007FFFFFFFFFFFFFFFFFFFFFE0
00003FFFFFFFFFFFFFFFFFFFFFE0
00001FFFFFFFFFFFFFFFFFFFFFE0
00000FFFFFFFFFFFFFFFFFFFFFE0
000003FFFFFFFFFFFFFFFFFFFFE0
000001FFFFFFFFFFFFFFFFFFFFE0
0000007FFFFFFFFFFFFFFFFFFFE0
0000001FFFFFFFFFFFFFFFFFFFE0
00000007FFFFFFFFFFFFFFFFFFE0
00000000FFFFFFFFFFFFFFFFFFE0
000000001FFFFFFFFFFFFFFFFFE0
0000000000FFFFFFFFFFFFFFFFE0
ENDCHAR
STARTCHAR H
ENCODING 72
SWIDTH 838 0
DWIDTH 114 0
BBX 96 99 9 0
BITMAP
FFFF8000000000000001FFFF
FFFF8000000000000001FFFF
FFFF8000000000000001FFFF
FFFF8000000000000001FFFF
FFFF8000000000000001FFFF
FFFF8000000000000001FFFF
FFFF8000000000000001FFFF
FFFF8000000000000001FFFF
FFFF8000000000000001FFFF
FFFF8000000000000001FFFF
FFFF8000000000000001FFFF
FFFF8000000000000001FFFF
FFFF8000000000000001FFFF
FFFF8000000000000001FFFF
FFFF8000000000000001FFFF
FFFF8000000000000001FFFF
FFFF8000000000000001FFFF
FFFF8000000000000001FFFF
FFFF8000000000000001FFFF
FFFF8000000000000001FFFF
FFFF8000000000000001FFFF
FFFF8000000000000001FFFF
FFFF8000000000000001FFFF
FFFF8000000000000001FFFF
FFFF8000000000000001FFFF
FFFF8000000000000001FFFF
FFFF8000000000000001FFFF
FFFF8000000000000001FFFF
FFFF8000000000000001FFFF
FFFF8000000000000001FFFF
FFFF8000000000000001FFFF
FFFF8000000000000001FFFF
FFFF8000000000000001FFFF
FFFF8000000000000001FFFF
FFFF8000000000000001FFFF
FFFF8000000000000001FFFF
FFFF8000000000000001FFFF
FFFF8000000000000001FFFF
FFFF8000000000000001FFFF
FFFF8000000000000001FFFF
FFFF8000000000000001FFFF
FFFF8007FFFFFFFFFFFFFFFF
FFFF8007FFFFFFFFFFFFFFFF
FFFF8007FFFFFFFFFFFFFFFF
FFFF8007FFFFFFFFFFFFFFFF
FFFF8007FFFFFFFFFFFFFFFF
FFFF8007FFFFFFFFFFFFFFFF
FFFF8007FFFFFFFFFFFFFFFF
FFFF8007FFFFFFFFFFFFFFFF
FFFF8007FFFFFFFFFFFFFFFF
FFFF8007FFFFFFFFFFFFFFFF
FFFF8007FFFFFFFFFFFFFFFF
FFFF8007FFFFFFFFFFFFFFFF
FFFF8007FFFFFFFFFFFFFFFF
FFFF8007FFFFFFFFFFFFFFFF
FFFF8007FFFFFFFFFFFFFFFF
FFFF8000000000000001FFFF
FFFF8000000000000001FFFF
FFFF8000000000000001FFFF
FFFF8000000000000001FFFF
FFFF8000000000000001FFFF
FFFF8000000000000001FFFF
FFFF8000000000000001FFFF
FFFF8000000000000001FFFF
FFFF8000000000000001FFFF
FFFF8000000000000001FFFF
FFFF8000000000000001FFFF
FFFF8000000000000001FFFF
FFFF8000000000000001FFFF
FFFF8000000000000001FFFF
FFFF8000000000000001FFFF
FFFF8000000000000001FFFF
FFFF8000000000000001FFFF
FFFF8000000000000001FFFF
FFFF8000000000000001FFFF
FFFF8000000000000001FFFF
FFFF8000000000000001FFFF
FFFF8000000000000001FFFF
FFFF8000000000000001FFFF
FFFF8000000000000001FFFF
FFFF8000000000000001FFFF
FFFF8000000000000001FFFF
FFFF8000000000000001FFFF
FFFF8000000000000001FFFF
FFFF8000000000000001FFFF
FFFF8000000000000001FFFF
FFFF8000000000000001FFFF
FFFF8000000000000001FFFF
FFFF8000000000000001FFFF
FFFF8000000000000001FFFF
FFFF8000000000000001FFFF
FFFF8000000000000001FFFF
FFFF8000000000000001FFFF
FFFF8000000000000001FFFF
FFFF8000000000000001FFFF
FFFF8000000000000001FFFF
FFFF8000000000000001FFFF
FFFF8000000000000001FFFF
FFFF8000000000000001FFFF
ENDCHAR
STARTCHAR I
ENCODING 73
SWIDTH 267 0
DWIDTH 36 0
BBX 17 99 10 0
BITMAP
FFFF80
FFFF80
FFFF80
FFFF80
FFFF80
FFFF80
FFFF80
FFFF80
FFFF80
FFFF80
FFFF80
FFFF80
FFFF80
FFFF80
FFFF80
FFFF80
FFFF80
FFFF80
FFFF80
FFFF80
FFFF80
FFFF80
FFFF80
FFFF80
FFFF80
FFFF80
FFFF80
FFFF80
FFFF80
FFFF80
FFFF80
FFFF80
FFFF80
FFFF80
FFFF80
FFFF80
FFFF80
FFFF80
FFFF80
FFFF80
FFFF80
FFFF80
FFFF80
FFFF80
FFFF80
FFFF80
FFFF80
FFFF80
FFFF80
FFFF80
FFFF80
FFFF80
FFFF80
FFFF80
FFFF80
FFFF80
FFFF80
FFFF80
FFFF80
FFFF80
FFFF80
FFFF80
FFFF80
FFFF80
FFFF80
FFFF80
FFFF80
FFFF80
FFFF80
FFFF80
FFFF80
FFFF80
FFFF80
FFFF80
FFFF80
FFFF80
FFFF80
FFFF80
FFFF80
FFFF80
FFFF80
FFFF80
FFFF80
FFFF80
FFFF80
FFFF80
FFFF80
FFFF80
FFFF80
FFFF80
FFFF80
FFFF80
FFFF80
FFFF80
FFFF80
FFFF80
FFFF80
FFFF80
FFFF80
ENDCHAR
STARTCHAR J
ENCODING 74
SWIDTH 708 0
DWIDTH 96 0
BBX 86 99 3 0
BITMAP
000000000000000007FFFC
000000000000000007FFFC
000000000000000007FFFC
000000000000000007FFFC
000000000000000007FFFC
000000000000000007FFFC
000000000000000007FFFC
000000000000000007FFFC
000000000000000007FFFC
000000000000000007FFFC
000000000000000007FFFC
000000000000000007FFFC
000000000000000007FFFC
000000000000000007FFFC
000000000000000007FFFC
000000000000000007FFFC
000000000000000007FFFC
000000000000000007FFFC
000000000000000007FFFC
000000000000000007FFFC
000000000000000007FFFC
000000000000000007FFFC
000000000000000007FFFC
000000000000000007FFFC
000000000000000007FFFC
000000000000000007FFFC
000000000000000007FFFC
000000000000000007FFFC
000000000000000007FFFC
000000000000000007FFFC
000000000000000007FFFC
000000000000000007FFFC
000000000000000007FFFC
000000000000000007FFFC
000000000000000007FFFC
000000000000000007FFFC
000000000000000007FFFC
000000000000000007FFFC
000000000000000007FFFC
000000000000000007FFFC
000000000000000007FFFC
000000000000000007FFFC
000000000000000007FFFC
000000000000000007FFFC
000000000000000007FFFC
000000000000000007FFFC
000000000000000007FFFC
000000000000000007FFFC
000000000000000007FFFC
000000000000000007FFFC
000000000000000007FFFC
000000000000000007FFFC
000000000000000007FFFC
000000000000000007FFFC
000000000000000007FFFC
000000000000000007FFFC
000000000000000007FFFC
000000000000000007FFFC
000000000000000007FFFC
000000000000000007FFFC
00000000000000000FFFFC
00000000000000000FFFFC
00000000000000000FFFFC
00000000000000000FFFFC
00000000000000000FFFFC
00000000000000001FFFF8
00000000000000001FFFF8
00000000000000001FFFF8
00000000000000003FFFF8
00000000000000003FFFF8
00000000000000007FFFF0
0000000000000000FFFFF0
0000000000000000FFFFF0
0000000000000001FFFFE0
0000000000000003FFFFE0
0000000000000007FFFFE0
000000000000001FFFFFC0
000000000000003FFFFFC0
00000000000000FFFFFF80
00000000000007FFFFFF80
0000000000003FFFFFFF00
00000000007FFFFFFFFF00
FFFFFFFFFFFFFFFFFFFE00
FFFFFFFFFFFFFFFFFFFC00
FFFFFFFFFFFFFFFFFFFC00
FFFFFFFFFFFFFFFFFFF800
FFFFFFFFFFFFFFFFFFF000
FFFFFFFFFFFFFFFFFFE000
FFFFFFFFFFFFFFFFFFC000
FFFFFFFFFFFFFFFFFF0000
FFFFFFFFFFFFFFFFFE0000
FFFFFFFFFFFFFFFFFC0000
FFFFFFFFFFFFFFFFF00000
FFFFFFFFFFFFFFFFC00000
FFFFFFFFFFFFFFFF000000
FFFFFFFFFFFFFFF8000000
FFFFFFFFFFFFFFC0000000
FFFFFFFFFFFFFC00000000
FFFFFFFFFFFE0000000000
ENDCHAR
STARTCHAR K
ENCODING 75
SWIDTH 875 0
DWIDTH 119 0
BBX 107 99 9 0
BITMAP
FFFF8000000000000003FFFFFF80
FFFF8000000000000007FFFFFE00
FFFF800000000000000FFFFFFC00
FFFF800000000000003FFFFFF800
FFFF800000000000007FFFFFE000
FFFF80000000000000FFFFFFC000
FFFF80000000000003FFFFFF8000
FFFF80000000000007FFFFFE0000
FFFF8000000000000FFFFFFC0000
FFFF8000000000001FFFFFF80000
FFFF8000000000007FFFFFE00000
FFFF800000000000FFFFFFC00000
FFFF800000000001FFFFFF800000
FFFF800000000007FFFFFE000000
FFFF80000000000FFFFFFC000000
FFFF80000000001FFFFFF8000000
FFFF80000000007FFFFFE0000000
FFFF8000000000FFFFFFC0000000
FFFF8000000001FFFFFF80000000
FFFF8000000003FFFFFE00000000
FFFF800000000FFFFFFC00000000
FFFF800000001FFFFFF800000000
FFFF800000003FFFFFE000000000
FFFF80000000FFFFFFC000000000
FFFF80000001FFFFFF8000000000
FFFF80000003FFFFFE0000000000
FFFF8000000FFFFFFC0000000000
FFFF8000001FFFFFF80000000000
FFFF8000003FFFFFE00000000000
FFFF8000007FFFFFC00000000000
FFFF800001FFFFFF800000000000
FFFF800003FFFFFE000000000000
FFFF800007FFFFFC000000000000
FFFF80001FFFFFF8000000000000
FFFF80003FFFFFE0000000000000
FFFF80007FFFFFC0000000000000
FFFF8001FFFFFF80000000000000
FFFF8003FFFFFE00000000000000
FFFF8007FFFFFC00000000000000
FFFF800FFFFFF000000000000000
FFFF803FFFFFE000000000000000
FFFF807FFFFFC000000000000000
FFFF80FFFFFF0000000000000000
FFFF81FFFFFE0000000000000000
FFFF81FFFFFC0000000000000000
FFFF83FFFFF00000000000000000
FFFF83FFFFE00000000000000000
FFFF83FFFFC00000000000000000
FFFF83FFFF800000000000000000
FFFF83FFFFC00000000000000000
FFFF83FFFFE00000000000000000
FFFF81FFFFF80000000000000000
FFFF81FFFFFC0000000000000000
FFFF80FFFFFE0000000000000000
FFFF807FFFFF8000000000000000
FFFF803FFFFFC000000000000000
FFFF801FFFFFE000000000000000
FFFF800FFFFFF800000000000000
FFFF8003FFFFFC00000000000000
FFFF8001FFFFFE00000000000000
FFFF8000FFFFFF80000000000000
FFFF80007FFFFFC0000000000000
FFFF80001FFFFFE0000000000000
FFFF80000FFFFFF8000000000000
FFFF800007FFFFFC000000000000
FFFF800003FFFFFE000000000000
FFFF800000FFFFFF800000000000
FFFF8000007FFFFFC00000000000
FFFF8000003FFFFFE00000000000
FFFF8000000FFFFFF80000000000
FFFF80000007FFFFFC0000000000
FFFF80000003FFFFFE0000000000
FFFF80000001FFFFFF8000000000
FFFF800000007FFFFFC000000000
FFFF800000003FFFFFE000000000
FFFF800000001FFFFFF000000000
FFFF800000000FFFFFFC00000000
FFFF8000000003FFFFFE00000000
FFFF8000000001FFFFFF00000000
FFFF8000000000FFFFFFC0000000
FFFF80000000003FFFFFE0000000
FFFF80000000001FFFFFF0000000
FFFF80000000000FFFFFFC000000
FFFF800000000007FFFFFE000000
FFFF800000000001FFFFFF000000
FFFF800000000000FFFFFFC00000
FFFF8000000000007FFFFFE00000
FFFF8000000000003FFFFFF00000
FFFF8000000000000FFFFFFC0000
FFFF80000000000007FFFFFE0000
FFFF80000000000003FFFFFF0000
FFFF80000000000001FFFFFFC000
FFFF800000000000007FFFFFE000
FFFF800000000000003FFFFFF000
FFFF800000000000001FFFFFFC00
FFFF8000000000000007FFFFFE00
FFFF8000000000000003FFFFFF00
FFFF8000000000000001FFFFFF80
FFFF8000000000000000FFFFFFE0
ENDCHAR
STARTCHAR L
ENCODING 76
SWIDTH 707 0
DWIDTH 96 0
BBX 83 99 9 0
BITMAP
FFFF800000000000000000
FFFF800000000000000000
FFFF800000000000000000
FFFF800000000000000000
FFFF800000000000000000
FFFF800000000000000000
FFFF800000000000000000
FFFF800000000000000000
FFFF800000000000000000
FFFF800000000000000000
FFFF800000000000000000
FFFF800000000000000000
FFFF800000000000000000
FFFF800000000000000000
FFFF800000000000000000
FFFF800000000000000000
FFFF800000000000000000
FFFF800000000000000000
FFFF800000000000000000
FFFF800000000000000000
FFFF800000000000000000
FFFF800000000000000000
FFFF800000000000000000
FFFF800000000000000000
FFFF800000000000000000
FFFF800000000000000000
FFFF800000000000000000
FFFF800000000000000000
FFFF800000000000000000
FFFF800000000000000000
FFFF800000000000000000
FFFF800000000000000000
FFFF800000000000000000
FFFF800000000000000000
FFFF800000000000000000
FFFF800000000000000000
FFFF800000000000000000
FFFF800000000000000000
FFFF800000000000000000
FFFF800000000000000000
FFFF800000000000000000
FFFF800000000000000000
FFFF800000000000000000
FFFF800000000000000000
FFFF800000000000000000
FFFF800000000000000000
FFFF800000000000000000
FFFF800000000000000000
FFFF800000000000000000
FFFF800000000000000000
FFFF800000000000000000
FFFF800000000000000000
FFFF800000000000000000
FFFF800000000000000000
FFFF800000000000000000
FFFF800000000000000000
FFFF800000000000000000
FFFF800000000000000000
FFFF800000000000000000
FFFF800000000000000000
FFFF800000000000000000
FFFF800000000000000000
FFFF800000000000000000
FFFF800000000000000000
FFFF800000000000000000
FFFF800000000000000000
FFFF800000000000000000
FFFF800000000000000000
FFFF800000000000000000
FFFF800000000000000000
FFFF800000000000000000
FFFF800000000000000000
FFFF800000000000000000
FFFF800000000000000000
FFFF800000000000000000
FFFF800000000000000000
FFFF800000000000000000
FFFF800000000000000000
FFFF800000000000000000
FFFF800000000000000000
FFFF800000000000000000
FFFF800000000000000000
FFFFFFFFFFFFFFFFFFFFE0
FFFFFFFFFFFFFFFFFFFFE0
FFFFFFFFFFFFFFFFFFFFE0
FFFFFFFFFFFFFFFFFFFFE0
FFFFFFFFFFFFFFFFFFFFE0
FFFFFFFFFFFFFFFFFFFFE0
FFFFFFFFFFFFFFFFFFFFE0
FFFFFFFFFFFFFFFFFFFFE0
FFFFFFFFFFFFFFFFFFFFE0
FFFFFFFFFFFFFFFFFFFFE0
FFFFFFFFFFFFFFFFFFFFE0
FFFFFFFFFFFFFFFFFFFFE0
FFFFFFFFFFFFFFFFFFFFE0
FFFFFFFFFFFFFFFFFFFFE0
FFFFFFFFFFFFFFFFFFFFE0
FFFFFFFFFFFFFFFFFFFFE0
FFFFFFFFFFFFFFFFFFFFE0
ENDCHAR
STARTCHAR M
ENCODING 77
SWIDTH 1115 0
DWIDTH 152 0
BBX 146 101 3 -2
BITMAP
00000001F8000000000000000007E000000000
00000007FE00000000000000001FF800000000
0000000FFF80000000000000003FFC00000000
0000001FFFC0000000000000007FFE00000000
0000001FFFC0000000000000007FFF00000000
0000003FFFE000000000000000FFFF00000000
0000003FFFE000000000000000FFFF00000000
0000003FFFF000000000000001FFFF80000000
0000007FFFF000000000000001FFFF80000000
0000007FFFF800000000000003FFFF80000000
0000007FFFF800000000000003FFFF80000000
000000FFFFF800000000000007FFFFC0000000
000000FFFFFC00000000000007FFFFC0000000
000000FFFFFC0000000000000FFFFFC0000000
000000FFFFFE0000000000000FFFFFE0000000
000001FFFFFE0000000000000FFFFFE0000000
000001FFFFFF0000000000001FFFFFE0000000
000001FFFFFF0000000000001FFFFFE0000000
000001FFFFFF8000000000003FFFFFF0000000
000003FFFFFF8000000000003FFFFFF0000000
000003FFFFFF8000000000007FFFFFF0000000
000003FFFFFFC000000000007FFFFFF0000000
000007FFFFFFC000000000007FFFFFF8000000
000007FFFFFFE00000000000FFFFFFF8000000
000007FFFFFFE00000000000FFFFFFF8000000
000007FFFFFFF00000000001FFFFFFFC000000
00000FFFFFFFF00000000001FFFFFFFC000000
00000FFFFFFFF80000000003FFFFFFFC000000
00000FFFFFFFF80000000003FFFFFFFC000000
00001FFFFFFFF80000000007FFFFFFFE000000
00001FFFFFFFFC0000000007FFFFFFFE000000
00001FFFF7FFFC0000000007FFFBFFFE000000
00001FFFF7FFFE000000000FFFFBFFFE000000
00003FFFE7FFFE000000000FFFF1FFFF000000
00003FFFE3FFFF000000001FFFF1FFFF000000
00003FFFE3FFFF000000001FFFF1FFFF000000
00003FFFE1FFFF000000003FFFE1FFFF800000
00007FFFC1FFFF800000003FFFE0FFFF800000
00007FFFC0FFFF800000007FFFC0FFFF800000
00007FFFC0FFFFC00000007FFFC0FFFF800000
0000FFFF807FFFC00000007FFF807FFFC00000
0000FFFF807FFFE0000000FFFF807FFFC00000
0000FFFF807FFFE0000000FFFF007FFFC00000
0000FFFF803FFFF0000001FFFF007FFFE00000
0001FFFF003FFFF0000001FFFF003FFFE00000
0001FFFF001FFFF0000003FFFE003FFFE00000
0001FFFF001FFFF8000003FFFE003FFFE00000
0003FFFE000FFFF8000003FFFC003FFFF00000
0003FFFE000FFFFC000007FFFC001FFFF00000
0003FFFE0007FFFC000007FFF8001FFFF00000
0003FFFE0007FFFE00000FFFF8001FFFF00000
0007FFFC0007FFFE00000FFFF8000FFFF80000
0007FFFC0003FFFF00001FFFF0000FFFF80000
0007FFFC0003FFFF00001FFFF0000FFFF80000
0007FFFC0001FFFF00003FFFE0000FFFFC0000
000FFFF80001FFFF80003FFFE00007FFFC0000
000FFFF80000FFFF80003FFFC00007FFFC0000
000FFFF80000FFFFC0007FFFC00007FFFC0000
001FFFF00000FFFFC0007FFF800007FFFE0000
001FFFF000007FFFE000FFFF800003FFFE0000
001FFFF000007FFFE000FFFF800003FFFE0000
001FFFF000003FFFF001FFFF000003FFFE0000
003FFFE000003FFFF001FFFF000001FFFF0000
003FFFE000001FFFF003FFFE000001FFFF0000
003FFFE000001FFFF803FFFE000001FFFF0000
003FFFE000000FFFF803FFFC000001FFFF8000
007FFFC000000FFFFC07FFFC000000FFFF8000
007FFFC000000FFFFC07FFF8000000FFFF8000
007FFFC0000007FFFE0FFFF8000000FFFF8000
00FFFF80000007FFFE0FFFF80000007FFFC000
00FFFF80000003FFFE1FFFF00000007FFFC000
00FFFF80000003FFFF1FFFF00000007FFFC000
00FFFF80000001FFFF1FFFE00000007FFFC000
01FFFF00000001FFFFBFFFE00000003FFFE000
01FFFF00000001FFFFBFFFC00000003FFFE000
01FFFF00000000FFFFFFFFC00000003FFFE000
03FFFE00000000FFFFFFFF800000003FFFF000
03FFFE000000007FFFFFFF800000001FFFF000
03FFFE000000007FFFFFFF800000001FFFF000
03FFFE000000003FFFFFFF000000001FFFF000
07FFFC000000003FFFFFFF000000000FFFF800
07FFFC000000001FFFFFFE000000000FFFF800
07FFFC000000001FFFFFFE000000000FFFF800
07FFFC000000001FFFFFFC000000000FFFFC00
0FFFF8000000000FFFFFFC0000000007FFFC00
0FFFF8000000000FFFFFFC0000000007FFFC00
0FFFF80000000007FFFFF80000000007FFFC00
1FFFF00000000007FFFFF80000000007FFFE00
1FFFF00000000003FFFFF00000000003FFFE00
1FFFF00000000003FFFFF00000000003FFFE00
1FFFF00000000003FFFFE00000000003FFFE00
3FFFE00000000001FFFFE00000000001FFFF00
3FFFE00000000001FFFFC00000000001FFFF00
3FFFE00000000000FFFFC00000000001FFFF00
7FFFE00000000000FFFF800000000001FFFF80
7FFFC000000000007FFF800000000000FFFF80
7FFFC000000000007FFF000000000000FFFF80
7FFFC000000000003FFE000000000000FFFF80
FFFF8000000000001FFE000000000000FFFFC0
000000000000000007F8000000000000000000
00000000000000000080000000000000000000
ENDCHAR
STARTCHAR N
ENCODING 78
SWIDTH 873 0
DWIDTH 119 0
BBX 103 99 8 0
BITMAP
03F0000000000000000003FFFE
0FFC000000000000000003FFFE
1FFE000000000000000003FFFE
3FFF000000000000000003FFFE
7FFF800000000000000003FFFE
7FFFC00000000000000003FFFE
7FFFE00000000000000003FFFE
FFFFF00000000000000003FFFE
FFFFF80000000000000003FFFE
FFFFFC0000000000000003FFFE
FFFFFE0000000000000003FFFE
FFFFFF0000000000000003FFFE
FFFFFFC000000000000003FFFE
FFFFFFE000000000000003FFFE
FFFFFFF000000000000003FFFE
FFFFFFF800000000000003FFFE
FFFFFFFC00000000000003FFFE
FFFFFFFE00000000000003FFFE
FFFFFFFF00000000000003FFFE
FFFFFFFF80000000000003FFFE
FFFFFFFFC0000000000003FFFE
FFFFFFFFE0000000000003FFFE
FFFFFFFFF0000000000003FFFE
FFFFFFFFF8000000000003FFFE
FFFFFFFFFC000000000003FFFE
FFFFFFFFFE000000000003FFFE
FFFFFFFFFF000000000003FFFE
FFFFFFFFFF800000000003FFFE
FFFFFFFFFFC00000000003FFFE
FFFFBFFFFFE00000000003FFFE
FFFF9FFFFFF00000000003FFFE
FFFF87FFFFF80000000003FFFE
FFFF83FFFFFC0000000003FFFE
FFFF81FFFFFE0000000003FFFE
FFFF80FFFFFF0000000003FFFE
FFFF807FFFFF8000000003FFFE
FFFF803FFFFFC000000003FFFE
FFFF801FFFFFE000000003FFFE
FFFF800FFFFFF000000003FFFE
FFFF8007FFFFF800000003FFFE
FFFF8003FFFFFC00000003FFFE
FFFF8001FFFFFE00000003FFFE
FFFF8000FFFFFF00000003FFFE
FFFF80007FFFFF80000003FFFE
FFFF80003FFFFFC0000003FFFE
FFFF80001FFFFFE0000003FFFE
FFFF80000FFFFFF0000003FFFE
FFFF800007FFFFF8000003FFFE
FFFF800003FFFFFC000003FFFE
FFFF800001FFFFFE000003FFFE
FFFF800000FFFFFF000003FFFE
FFFF8000007FFFFF800003FFFE
FFFF8000003FFFFFC00003FFFE
FFFF8000001FFFFFE00003FFFE
FFFF8000000FFFFFF00003FFFE
FFFF80000007FFFFF80003FFFE
FFFF80000003FFFFFC0003FFFE
FFFF80000001FFFFFE0003FFFE
FFFF80000000FFFFFF0003FFFE
FFFF800000007FFFFF8003FFFE
FFFF800000003FFFFFC003FFFE
FFFF800000001FFFFFE003FFFE
FFFF800000000FFFFFF003FFFE
FFFF8000000007FFFFF803FFFE
FFFF8000000003FFFFFC03FFFE
FFFF8000000001FFFFFE03FFFE
FFFF8000000000FFFFFF03FFFE
FFFF80000000007FFFFF83FFFE
FFFF80000000003FFFFFE3FFFE
FFFF80000000001FFFFFF3FFFE
FFFF800000000007FFFFFBFFFE
FFFF800000000003FFFFFFFFFE
FFFF800000000001FFFFFFFFFE
FFFF800000000000FFFFFFFFFE
FFFF8000000000007FFFFFFFFE
FFFF8000000000003FFFFFFFFE
FFFF8000000000001FFFFFFFFE
FFFF8000000000000FFFFFFFFE
FFFF80000000000007FFFFFFFE
FFFF80000000000003FFFFFFFE
FFFF80000000000001FFFFFFFE
FFFF80000000000000FFFFFFFE
FFFF800000000000007FFFFFFE
FFFF800000000000003FFFFFFE
FFFF800000000000001FFFFFFE
FFFF800000000000000FFFFFFE
FFFF8000000000000007FFFFFE
FFFF8000000000000003FFFFFE
FFFF8000000000000001FFFFFE
FFFF8000000000000000FFFFFE
FFFF80000000000000007FFFFC
FFFF80000000000000003FFFFC
FFFF80000000000000001FFFFC
FFFF80000000000000000FFFFC
FFFF800000000000000007FFF8
FFFF800000000000000003FFF8
FFFF800000000000000001FFF0
FFFF8000000000000000007FE0
FFFF8000000000000000001F80
ENDCHAR
STARTCHAR O
ENCODING 79
SWIDTH 968 0
DWIDTH 132 0
BBX 120 99 6 0
BITMAP
0000000000FFFFFFFFFF0000000000
000000001FFFFFFFFFFFF800000000
00000001FFFFFFFFFFFFFF80000000
00000007FFFFFFFFFFFFFFE0000000
0000003FFFFFFFFFFFFFFFFC000000
000000FFFFFFFFFFFFFFFFFF000000
000003FFFFFFFFFFFFFFFFFFC00000
000007FFFFFFFFFFFFFFFFFFE00000
00001FFFFFFFFFFFFFFFFFFFF80000
00003FFFFFFFFFFFFFFFFFFFFC0000
0000FFFFFFFFFFFFFFFFFFFFFE0000
0001FFFFFFFFFFFFFFFFFFFFFF8000
0003FFFFFFFFFFFFFFFFFFFFFFC000
0007FFFFFFFFFFFFFFFFFFFFFFE000
000FFFFFFFFFFFFFFFFFFFFFFFF000
001FFFFFFFFFFFFFFFFFFFFFFFF800
003FFFFFFFFFFFFFFFFFFFFFFFF800
003FFFFFFFF00000000FFFFFFFFC00
007FFFFFFE00000000007FFFFFFE00
00FFFFFFF000000000000FFFFFFF00
01FFFFFFC0000000000003FFFFFF00
01FFFFFF00000000000000FFFFFF80
03FFFFFC000000000000003FFFFFC0
03FFFFF8000000000000001FFFFFC0
07FFFFF0000000000000000FFFFFE0
07FFFFC00000000000000007FFFFE0
0FFFFF800000000000000003FFFFF0
0FFFFF800000000000000001FFFFF0
1FFFFF000000000000000000FFFFF8
1FFFFE0000000000000000007FFFF8
1FFFFC0000000000000000003FFFF8
3FFFFC0000000000000000003FFFFC
3FFFF80000000000000000001FFFFC
3FFFF80000000000000000001FFFFC
7FFFF00000000000000000000FFFFE
7FFFF00000000000000000000FFFFE
7FFFE000000000000000000007FFFE
7FFFE000000000000000000007FFFE
7FFFE000000000000000000007FFFE
FFFFC000000000000000000003FFFF
FFFFC000000000000000000003FFFF
FFFFC000000000000000000003FFFF
FFFFC000000000000000000003FFFF
FFFF8000000000000000000003FFFF
FFFF8000000000000000000001FFFF
FFFF8000000000000000000001FFFF
FFFF8000000000000000000001FFFF
FFFF8000000000000000000001FFFF
FFFF8000000000000000000001FFFF
FFFF8000000000000000000001FFFF
FFFF8000000000000000000001FFFF
FFFF8000000000000000000001FFFF
FFFF8000000000000000000001FFFF
FFFF8000000000000000000001FFFF
FFFF8000000000000000000001FFFF
FFFF8000000000000000000003FFFF
FFFFC000000000000000000003FFFF
FFFFC000000000000000000003FFFF
7FFFC000000000000000000003FFFE
7FFFC000000000000000000003FFFE
7FFFE000000000000000000007FFFE
7FFFE000000000000000000007FFFE
7FFFE000000000000000000007FFFE
3FFFF00000000000000000000FFFFC
3FFFF00000000000000000000FFFFC
3FFFF80000000000000000001FFFFC
1FFFF80000000000000000001FFFF8
1FFFFC0000000000000000003FFFF8
1FFFFC0000000000000000007FFFF8
0FFFFE0000000000000000007FFFF0
0FFFFF000000000000000000FFFFF0
07FFFF800000000000000001FFFFE0
07FFFFC00000000000000003FFFFE0
03FFFFE00000000000000007FFFFC0
03FFFFF0000000000000000FFFFFC0
01FFFFF8000000000000001FFFFF80
01FFFFFC000000000000007FFFFF80
00FFFFFF00000000000000FFFFFF00
007FFFFFC0000000000003FFFFFE00
007FFFFFF000000000000FFFFFFE00
003FFFFFFE00000000007FFFFFFC00
001FFFFFFFF00000000FFFFFFFF800
000FFFFFFFFFFFFFFFFFFFFFFFF000
000FFFFFFFFFFFFFFFFFFFFFFFE000
0007FFFFFFFFFFFFFFFFFFFFFFE000
0003FFFFFFFFFFFFFFFFFFFFFFC000
0001FFFFFFFFFFFFFFFFFFFFFF0000
00007FFFFFFFFFFFFFFFFFFFFE0000
00003FFFFFFFFFFFFFFFFFFFFC0000
00001FFFFFFFFFFFFFFFFFFFF80000
00000FFFFFFFFFFFFFFFFFFFF00000
000003FFFFFFFFFFFFFFFFFFC00000
000001FFFFFFFFFFFFFFFFFF000000
0000007FFFFFFFFFFFFFFFFE000000
0000001FFFFFFFFFFFFFFFF8000000
00000007FFFFFFFFFFFFFFC0000000
00000000FFFFFFFFFFFFFF00000000
000000001FFFFFFFFFFFF000000000
0000000000FFFFFFFFFE0000000000
ENDCHAR
STARTCHAR P
ENCODING 80
SWIDTH 867 0
DWIDTH 118 0
BBX 105 99 9 0
BITMAP
FFFFFFFFFFFFFFFFFFF000000000
FFFFFFFFFFFFFFFFFFFF80000000
FFFFFFFFFFFFFFFFFFFFF0000000
FFFFFFFFFFFFFFFFFFFFFE000000
FFFFFFFFFFFFFFFFFFFFFF800000
FFFFFFFFFFFFFFFFFFFFFFC00000
FFFFFFFFFFFFFFFFFFFFFFF00000
FFFFFFFFFFFFFFFFFFFFFFF80000
FFFFFFFFFFFFFFFFFFFFFFFC0000
FFFFFFFFFFFFFFFFFFFFFFFF0000
FFFFFFFFFFFFFFFFFFFFFFFF0000
FFFFFFFFFFFFFFFFFFFFFFFF8000
FFFFFFFFFFFFFFFFFFFFFFFFC000
FFFFFFFFFFFFFFFFFFFFFFFFE000
FFFFFFFFFFFFFFFFFFFFFFFFF000
FFFFFFFFFFFFFFFFFFFFFFFFF000
FFFFFFFFFFFFFFFFFFFFFFFFF800
FFFF80000000000000FFFFFFF800
FFFF8000000000000007FFFFFC00
FFFF8000000000000001FFFFFC00
FFFF80000000000000007FFFFE00
FFFF80000000000000003FFFFE00
FFFF80000000000000001FFFFE00
FFFF80000000000000000FFFFF00
FFFF800000000000000007FFFF00
FFFF800000000000000003FFFF00
FFFF800000000000000003FFFF00
FFFF800000000000000001FFFF80
FFFF800000000000000001FFFF80
FFFF800000000000000001FFFF80
FFFF800000000000000000FFFF80
FFFF800000000000000000FFFF80
FFFF800000000000000000FFFF80
FFFF800000000000000000FFFF80
FFFF800000000000000000FFFF80
FFFF800000000000000000FFFF80
FFFF800000000000000000FFFF80
FFFF800000000000000000FFFF80
FFFF800000000000000000FFFF80
FFFF800000000000000000FFFF80
FFFF800000000000000000FFFF80
FFFF800000000000000000FFFF80
FFFF800000000000000001FFFF80
FFFF800000000000000001FFFF80
FFFF800000000000000001FFFF00
FFFF800000000000000003FFFF00
FFFF800000000000000003FFFF00
FFFF800000000000000007FFFF00
FFFF80000000000000000FFFFE00
FFFF80000000000000000FFFFE00
FFFF80000000000000001FFFFE00
FFFF80000000000000007FFFFC00
FFFF8000000000000000FFFFFC00
FFFF8000000000000003FFFFFC00
FFFF800000000000003FFFFFF800
FFFF8007FFFFFFFFFFFFFFFFF800
FFFF8007FFFFFFFFFFFFFFFFF000
FFFF8007FFFFFFFFFFFFFFFFE000
FFFF8007FFFFFFFFFFFFFFFFE000
FFFF8007FFFFFFFFFFFFFFFFC000
FFFF8007FFFFFFFFFFFFFFFF8000
FFFF8007FFFFFFFFFFFFFFFF0000
FFFF8007FFFFFFFFFFFFFFFE0000
FFFF8007FFFFFFFFFFFFFFFC0000
FFFF8007FFFFFFFFFFFFFFF80000
FFFF8007FFFFFFFFFFFFFFF00000
FFFF8007FFFFFFFFFFFFFFC00000
FFFF8007FFFFFFFFFFFFFF800000
FFFF8007FFFFFFFFFFFFFE000000
FFFF8007FFFFFFFFFFFFF8000000
FFFF8007FFFFFFFFFFFFC0000000
FFFF8007FFFFFFFFFFFC00000000
FFFF800000000000000000000000
FFFF800000000000000000000000
FFFF800000000000000000000000
FFFF800000000000000000000000
FFFF800000000000000000000000
FFFF800000000000000000000000
FFFF800000000000000000000000
FFFF800000000000000000000000
FFFF800000000000000000000000
FFFF800000000000000000000000
FFFF800000000000000000000000
FFFF800000000000000000000000
FFFF800000000000000000000000
FFFF800000000000000000000000
FFFF800000000000000000000000
FFFF800000000000000000000000
FFFF800000000000000000000000
FFFF800000000000000000000000
FFFF800000000000000000000000
FFFF800000000000000000000000
FFFF800000000000000000000000
FFFF800000000000000000000000
FFFF800000000000000000000000
FFFF800000000000000000000000
FFFF800000000000000000000000
FFFF800000000000000000000000
FFFF800000000000000000000000
ENDCHAR
STARTCHAR Q
ENCODING 81
SWIDTH 968 0
DWIDTH 132 0
BBX 125 99 6 0
BITMAP
0000000000FFFFFFFFFF000000000000
000000001FFFFFFFFFFFF80000000000
00000001FFFFFFFFFFFFFF8000000000
00000007FFFFFFFFFFFFFFE000000000
0000003FFFFFFFFFFFFFFFFC00000000
000000FFFFFFFFFFFFFFFFFF00000000
000003FFFFFFFFFFFFFFFFFFC0000000
000007FFFFFFFFFFFFFFFFFFE0000000
00001FFFFFFFFFFFFFFFFFFFF8000000
00003FFFFFFFFFFFFFFFFFFFFC000000
0000FFFFFFFFFFFFFFFFFFFFFE000000
0001FFFFFFFFFFFFFFFFFFFFFF800000
0003FFFFFFFFFFFFFFFFFFFFFFC00000
0007FFFFFFFFFFFFFFFFFFFFFFE00000
000FFFFFFFFFFFFFFFFFFFFFFFF00000
001FFFFFFFFFFFFFFFFFFFFFFFF80000
003FFFFFFFFFFFFFFFFFFFFFFFF80000
003FFFFFFFF00000000FFFFFFFFC0000
007FFFFFFE00000000007FFFFFFE0000
00FFFFFFF000000000000FFFFFFF0000
01FFFFFFC0000000000003FFFFFF0000
01FFFFFF00000000000000FFFFFF8000
03FFFFFC000000000000003FFFFFC000
03FFFFF8000000000000001FFFFFC000
07FFFFF0000000000000000FFFFFE000
07FFFFC00000000000000007FFFFE000
0FFFFF800000000000000003FFFFF000
0FFFFF800000000000000001FFFFF000
1FFFFF000000000000000000FFFFF800
1FFFFE0000000000000000007FFFF800
1FFFFC0000000000000000003FFFF800
3FFFFC0000000000000000003FFFFC00
3FFFF80000000000000000001FFFFC00
3FFFF80000000000000000001FFFFC00
7FFFF00000000000000000000FFFFE00
7FFFF00000000000000000000FFFFE00
7FFFE000000000000000000007FFFE00
7FFFE000000000000000000007FFFE00
7FFFE000000000000000000007FFFE00
FFFFC000000000000000000003FFFF00
FFFFC000000000000000000003FFFF00
FFFFC000000000000000000003FFFF00
FFFFC000000000000000000003FFFF00
FFFF8000000000000000000003FFFF00
FFFF8000000000000000000001FFFF00
FFFF8000000000000000000001FFFF00
FFFF8000000000000000000001FFFF00
FFFF8000000000000000000001FFFF00
FFFF8000000000000000000001FFFF00
FFFF8000000000000000000001FFFF00
FFFF8000000000000000000001FFFF00
FFFF8000000000000000000001FFFF00
FFFF8000000000000000000001FFFF00
FFFF8000000000000000000001FFFF00
FFFF8000000000000000000001FFFF00
FFFF8000000000000000000003FFFF00
FFFFC000000000000000000003FFFF00
FFFFC000000000000000000003FFFF00
7FFFC00000000FFFFFE0000003FFFE00
7FFFC000000003FFFFF0000003FFFE00
7FFFE000000001FFFFF8000007FFFE00
7FFFE000000000FFFFFE000007FFFE00
7FFFE0000000007FFFFF00000FFFFE00
3FFFF0000000001FFFFF80000FFFFC00
3FFFF0000000000FFFFFC0000FFFFC00
3FFFF80000000007FFFFE0001FFFFC00
1FFFF80000000003FFFFF8001FFFF800
1FFFFC0000000000FFFFFC003FFFF800
1FFFFC00000000007FFFFE007FFFF800
0FFFFE00000000003FFFFF007FFFF000
0FFFFF00000000001FFFFF80FFFFF000
07FFFF800000000007FFFFC1FFFFE000
07FFFFC00000000003FFFFF3FFFFE000
03FFFFE00000000001FFFFFFFFFFC000
03FFFFF000000000007FFFFFFFFFC000
01FFFFF800000000003FFFFFFFFF8000
01FFFFFC00000000001FFFFFFFFF8000
00FFFFFF00000000000FFFFFFFFF0000
007FFFFFC00000000003FFFFFFFE0000
007FFFFFF00000000001FFFFFFFE0000
003FFFFFFE0000000000FFFFFFFC0000
001FFFFFFFF00000001FFFFFFFF80000
000FFFFFFFFFFFFFFFFFFFFFFFF00000
000FFFFFFFFFFFFFFFFFFFFFFFE00000
0007FFFFFFFFFFFFFFFFFFFFFFE00000
0003FFFFFFFFFFFFFFFFFFFFFFF00000
0001FFFFFFFFFFFFFFFFFFFFFFF80000
00007FFFFFFFFFFFFFFFFFFFFFFC0000
00003FFFFFFFFFFFFFFFFFFFFFFF0000
00001FFFFFFFFFFFFFFFFFFFFFFF8000
00000FFFFFFFFFFFFFFFFFFFFFFFC000
000003FFFFFFFFFFFFFFFFFFFFFFE000
000001FFFFFFFFFFFFFFFFFFFFFFF800
0000007FFFFFFFFFFFFFFFFEFFFFFC00
0000001FFFFFFFFFFFFFFFF87FFFFE00
00000007FFFFFFFFFFFFFFC03FFFFF80
00000000FFFFFFFFFFFFFE001FFFFFC0
000000001FFFFFFFFFFFF0000FFFFFE0
0000000000FFFFFFFFFE000003FFFFF8
ENDCHAR
STARTCHAR R
ENCODING 82
SWIDTH 921 0
DWIDTH 125 0
BBX 116 99 9 0
BITMAP
FFFFFFFFFFFFFFFFFFF80000000000
FFFFFFFFFFFFFFFFFFFFE000000000
FFFFFFFFFFFFFFFFFFFFFC00000000
FFFFFFFFFFFFFFFFFFFFFF00000000
FFFFFFFFFFFFFFFFFFFFFFC0000000
FFFFFFFFFFFFFFFFFFFFFFF0000000
FFFFFFFFFFFFFFFFFFFFFFF8000000
FFFFFFFFFFFFFFFFFFFFFFFE000000
FFFFFFFFFFFFFFFFFFFFFFFF000000
FFFFFFFFFFFFFFFFFFFFFFFF800000
FFFFFFFFFFFFFFFFFFFFFFFFC00000
FFFFFFFFFFFFFFFFFFFFFFFFE00000
FFFFFFFFFFFFFFFFFFFFFFFFE00000
FFFFFFFFFFFFFFFFFFFFFFFFF00000
FFFFFFFFFFFFFFFFFFFFFFFFF80000
FFFFFFFFFFFFFFFFFFFFFFFFF80000
FFFFFFFFFFFFFFFFFFFFFFFFFC0000
FFFF800000000000003FFFFFFC0000
FFFF8000000000000001FFFFFE0000
FFFF80000000000000007FFFFE0000
FFFF80000000000000001FFFFF0000
FFFF80000000000000000FFFFF0000
FFFF800000000000000007FFFF8000
FFFF800000000000000003FFFF8000
FFFF800000000000000001FFFF8000
FFFF800000000000000001FFFF8000
FFFF800000000000000000FFFFC000
FFFF800000000000000000FFFFC000
FFFF800000000000000000FFFFC000
FFFF8000000000000000007FFFC000
FFFF8000000000000000007FFFC000
FFFF8000000000000000007FFFC000
FFFF8000000000000000007FFFC000
FFFF8000000000000000007FFFC000
FFFF8000000000000000007FFFC000
FFFF8000000000000000007FFFC000
FFFF8000000000000000007FFFC000
FFFF8000000000000000007FFFC000
FFFF8000000000000000007FFFC000
FFFF8000000000000000007FFFC000
FFFF8000000000000000007FFFC000
FFFF8000000000000000007FFFC000
FFFF8000000000000000007FFFC000
FFFF8000000000000000007FFFC000
FFFF800000000000000000FFFFC000
FFFF800000000000000000FFFFC000
FFFF800000000000000000FFFF8000
FFFF800000000000000001FFFF8000
FFFF800000000000000001FFFF8000
FFFF800000000000000003FFFF0000
FFFF800000000000000007FFFF0000
FFFF80000000000000000FFFFF0000
FFFF80000000000000001FFFFE0000
FFFF80000000000000007FFFFE0000
FFFF8000000000000001FFFFFC0000
FFFF800000000000000FFFFFFC0000
FFFF8007FFFFFFFFFFFFFFFFF80000
FFFF8007FFFFFFFFFFFFFFFFF00000
FFFF8007FFFFFFFFFFFFFFFFF00000
FFFF8007FFFFFFFFFFFFFFFFE00000
FFFF8007FFFFFFFFFFFFFFFFC00000
FFFF8007FFFFFFFFFFFFFFFF800000
FFFF8007FFFFFFFFFFFFFFFF000000
FFFF8007FFFFFFFFFFFFFFFE000000
FFFF8007FFFFFFFFFFFFFFFC000000
FFFF8007FFFFFFFFFFFFFFF0000000
FFFF8007FFFFFFFFFFFFFFC0000000
FFFF8007FFFFFFFFFFFFFF00000000
FFFF8007FFFFFFFFFFFFFC00000000
FFFF8007FFFFFFFFFFFFFE00000000
FFFF8007FFFFFFFFFFFFFF00000000
FFFF8000000000001FFFFF80000000
FFFF8000000000000FFFFFC0000000
FFFF80000000000007FFFFE0000000
FFFF80000000000007FFFFF0000000
FFFF80000000000003FFFFF8000000
FFFF80000000000001FFFFFC000000
FFFF80000000000000FFFFFE000000
FFFF800000000000007FFFFF000000
FFFF800000000000003FFFFF800000
FFFF800000000000001FFFFFC00000
FFFF800000000000000FFFFFE00000
FFFF8000000000000007FFFFF00000
FFFF8000000000000003FFFFF80000
FFFF8000000000000003FFFFFC0000
FFFF8000000000000001FFFFFE0000
FFFF8000000000000000FFFFFF0000
FFFF80000000000000007FFFFF8000
FFFF80000000000000003FFFFFC000
FFFF80000000000000001FFFFFE000
FFFF80000000000000000FFFFFF000
FFFF800000000000000007FFFFF800
FFFF800000000000000003FFFFFC00
FFFF800000000000000003FFFFFC00
FFFF800000000000000001FFFFFE00
FFFF800000000000000000FFFFFF00
FFFF8000000000000000007FFFFF80
FFFF8000000000000000003FFFFFC0
FFFF8000000000000000001FFFFFF0
ENDCHAR
STARTCHAR S
ENCODING 83
SWIDTH 880 0
DWIDTH 120 0
BBX 106 99 7 0
BITMAP
000000FFFFFFFFFFFFFFFFFFFC00
00001FFFFFFFFFFFFFFFFFFFFC00
0000FFFFFFFFFFFFFFFFFFFFFC00
0003FFFFFFFFFFFFFFFFFFFFFC00
000FFFFFFFFFFFFFFFFFFFFFFC00
001FFFFFFFFFFFFFFFFFFFFFFC00
007FFFFFFFFFFFFFFFFFFFFFFC00
00FFFFFFFFFFFFFFFFFFFFFFFC00
01FFFFFFFFFFFFFFFFFFFFFFFC00
03FFFFFFFFFFFFFFFFFFFFFFFC00
03FFFFFFFFFFFFFFFFFFFFFFFC00
07FFFFFFFFFFFFFFFFFFFFFFFC00
0FFFFFFFFFFFFFFFFFFFFFFFFC00
0FFFFFFFFFFFFFFFFFFFFFFFFC00
1FFFFFFFFFFFFFFFFFFFFFFFFC00
1FFFFFFFFFFFFFFFFFFFFFFFFC00
3FFFFFFFFFFFFFFFFFFFFFFFFC00
3FFFFFF000000000000000000000
7FFFFF0000000000000000000000
7FFFFC0000000000000000000000
7FFFF80000000000000000000000
7FFFF00000000000000000000000
FFFFF00000000000000000000000
FFFFE00000000000000000000000
FFFFE00000000000000000000000
FFFFC00000000000000000000000
FFFFC00000000000000000000000
FFFFC00000000000000000000000
FFFFC00000000000000000000000
FFFFC00000000000000000000000
FFFFC00000000000000000000000
FFFFC00000000000000000000000
FFFFC00000000000000000000000
7FFFE00000000000000000000000
7FFFE00000000000000000000000
7FFFE00000000000000000000000
7FFFF00000000000000000000000
3FFFF80000000000000000000000
3FFFFC0000000000000000000000
3FFFFF0000000000000000000000
1FFFFFC000000000000000000000
1FFFFFFFFFFFFFFFFFFFE0000000
0FFFFFFFFFFFFFFFFFFFFF000000
0FFFFFFFFFFFFFFFFFFFFFE00000
07FFFFFFFFFFFFFFFFFFFFF80000
03FFFFFFFFFFFFFFFFFFFFFE0000
01FFFFFFFFFFFFFFFFFFFFFF8000
00FFFFFFFFFFFFFFFFFFFFFFC000
007FFFFFFFFFFFFFFFFFFFFFE000
003FFFFFFFFFFFFFFFFFFFFFF000
001FFFFFFFFFFFFFFFFFFFFFF800
0007FFFFFFFFFFFFFFFFFFFFFC00
0003FFFFFFFFFFFFFFFFFFFFFC00
00007FFFFFFFFFFFFFFFFFFFFE00
00001FFFFFFFFFFFFFFFFFFFFE00
000000FFFFFFFFFFFFFFFFFFFF00
000000000000000000007FFFFF00
000000000000000000000FFFFF80
0000000000000000000007FFFF80
0000000000000000000001FFFF80
0000000000000000000000FFFF80
0000000000000000000000FFFFC0
00000000000000000000007FFFC0
00000000000000000000007FFFC0
00000000000000000000003FFFC0
00000000000000000000003FFFC0
00000000000000000000003FFFC0
00000000000000000000003FFFC0
00000000000000000000003FFFC0
00000000000000000000003FFFC0
00000000000000000000003FFFC0
00000000000000000000003FFFC0
00000000000000000000003FFFC0
00000000000000000000007FFFC0
00000000000000000000007FFFC0
0000000000000000000000FFFFC0
0000000000000000000000FFFFC0
0000000000000000000001FFFFC0
0000000000000000000003FFFF80
0000000000000000000007FFFF80
000000000000000000001FFFFF80
00000000000000000001FFFFFF80
3FFFFFFFFFFFFFFFFFFFFFFFFF00
3FFFFFFFFFFFFFFFFFFFFFFFFF00
3FFFFFFFFFFFFFFFFFFFFFFFFE00
3FFFFFFFFFFFFFFFFFFFFFFFFE00
3FFFFFFFFFFFFFFFFFFFFFFFFC00
3FFFFFFFFFFFFFFFFFFFFFFFF800
3FFFFFFFFFFFFFFFFFFFFFFFF800
3FFFFFFFFFFFFFFFFFFFFFFFF000
3FFFFFFFFFFFFFFFFFFFFFFFE000
3FFFFFFFFFFFFFFFFFFFFFFFC000
3FFFFFFFFFFFFFFFFFFFFFFF8000
3FFFFFFFFFFFFFFFFFFFFFFE0000
3FFFFFFFFFFFFFFFFFFFFFFC0000
3FFFFFFFFFFFFFFFFFFFFFF00000
3FFFFFFFFFFFFFFFFFFFFFC00000
3FFFFFFFFFFFFFFFFFFFFE000000
3FFFFFFFFFFFFFFFFFFFE0000000
ENDCHAR
STARTCHAR T
ENCODING 84
SWIDTH 720 0
DWIDTH 98 0
BBX 92 99 3 0
BITMAP
FFFFFFFFFFFFFFFFFFFFFFF0
FFFFFFFFFFFFFFFFFFFFFFF0
FFFFFFFFFFFFFFFFFFFFFFF0
FFFFFFFFFFFFFFFFFFFFFFF0
FFFFFFFFFFFFFFFFFFFFFFF0
FFFFFFFFFFFFFFFFFFFFFFF0
FFFFFFFFFFFFFFFFFFFFFFF0
FFFFFFFFFFFFFFFFFFFFFFF0
FFFFFFFFFFFFFFFFFFFFFFF0
FFFFFFFFFFFFFFFFFFFFFFF0
FFFFFFFFFFFFFFFFFFFFFFF0
FFFFFFFFFFFFFFFFFFFFFFF0
FFFFFFFFFFFFFFFFFFFFFFF0
FFFFFFFFFFFFFFFFFFFFFFF0
FFFFFFFFFFFFFFFFFFFFFFF0
FFFFFFFFFFFFFFFFFFFFFFF0
FFFFFFFFFFFFFFFFFFFFFFF0
0000000007FFFE0000000000
0000000007FFFE0000000000
0000000007FFFE0000000000
0000000007FFFE0000000000
0000000007FFFE0000000000
0000000007FFFE0000000000
0000000007FFFE0000000000
0000000007FFFE0000000000
0000000007FFFE0000000000
0000000007FFFE0000000000
0000000007FFFE0000000000
0000000007FFFE0000000000
0000000007FFFE0000000000
0000000007FFFE0000000000
0000000007FFFE0000000000
0000000007FFFE0000000000
0000000007FFFE0000000000
0000000007FFFE0000000000
0000000007FFFE0000000000
0000000007FFFE0000000000
0000000007FFFE0000000000
0000000007FFFE0000000000
0000000007FFFE0000000000
0000000007FFFE0000000000
0000000007FFFE0000000000
0000000007FFFE0000000000
0000000007FFFE0000000000
0000000007FFFE0000000000
0000000007FFFE0000000000
0000000007FFFE0000000000
0000000007FFFE0000000000
0000000007FFFE0000000000
0000000007FFFE0000000000
0000000007FFFE0000000000
0000000007FFFE0000000000
0000000007FFFE0000000000
0000000007FFFE0000000000
0000000007FFFE0000000000
0000000007FFFE0000000000
0000000007FFFE0000000000
0000000007FFFE0000000000
0000000007FFFE0000000000
0000000007FFFE0000000000
0000000007FFFE0000000000
0000000007FFFE0000000000
0000000007FFFE0000000000
0000000007FFFE0000000000
0000000007FFFE0000000000
0000000007FFFE0000000000
0000000007FFFE0000000000
0000000007FFFE0000000000
0000000007FFFE0000000000
0000000007FFFE0000000000
0000000007FFFE0000000000
0000000007FFFE0000000000
0000000007FFFE0000000000
0000000007FFFE0000000000
0000000007FFFE0000000000
0000000007FFFE0000000000
0000000007FFFE0000000000
0000000007FFFE0000000000
0000000007FFFE0000000000
0000000007FFFE0000000000
0000000007FFFE0000000000
0000000007FFFE0000000000
0000000007FFFE0000000000
0000000007FFFE0000000000
0000000007FFFE0000000000
0000000007FFFE0000000000
0000000007FFFE0000000000
0000000007FFFE0000000000
0000000007FFFE0000000000
0000000007FFFE0000000000
0000000007FFFE0000000000
0000000007FFFE0000000000
0000000007FFFE0000000000
0000000007FFFE0000000000
0000000007FFFE0000000000
0000000007FFFE0000000000
0000000007FFFE0000000000
0000000007FFFE0000000000
0000000007FFFE0000000000
ENDCHAR
STARTCHAR U
ENCODING 85
SWIDTH 889 0
DWIDTH 121 0
BBX 107 100 7 -1
BITMAP
FFFFC000000000000000003FFFE0
FFFFC000000000000000003FFFE0
FFFFC000000000000000003FFFE0
FFFFC000000000000000003FFFE0
FFFFC000000000000000003FFFE0
FFFFC000000000000000003FFFE0
FFFFC000000000000000003FFFE0
FFFFC000000000000000003FFFE0
FFFFC000000000000000003FFFE0
FFFFC000000000000000003FFFE0
FFFFC000000000000000003FFFE0
FFFFC000000000000000003FFFE0
FFFFC000000000000000003FFFE0
FFFFC000000000000000003FFFE0
FFFFC000000000000000003FFFE0
FFFFC000000000000000003FFFE0
FFFFC000000000000000003FFFE0
FFFFC000000000000000003FFFE0
FFFFC000000000000000003FFFE0
FFFFC000000000000000003FFFE0
FFFFC000000000000000003FFFE0
FFFFC000000000000000003FFFE0
FFFFC000000000000000003FFFE0
FFFFC000000000000000003FFFE0
FFFFC000000000000000003FFFE0
FFFFC000000000000000003FFFE0
FFFFC000000000000000003FFFE0
FFFFC000000000000000003FFFE0
FFFFC000000000000000003FFFE0
FFFFC000000000000000003FFFE0
FFFFC000000000000000003FFFE0
FFFFC000000000000000003FFFE0
FFFFC000000000000000003FFFE0
FFFFC000000000000000003FFFE0
FFFFC000000000000000003FFFE0
FFFFC000000000000000003FFFE0
FFFFC000000000000000003FFFE0
FFFFC000000000000000003FFFE0
FFFFC000000000000000003FFFE0
FFFFC000000000000000003FFFE0
FFFFC000000000000000003FFFE0
FFFFC000000000000000003FFFE0
FFFFC000000000000000003FFFE0
FFFFC000000000000000003FFFE0
FFFFC000000000000000003FFFE0
FFFFC000000000000000003FFFE0
FFFFC000000000000000003FFFE0
FFFFC000000000000000003FFFE0
FFFFC000000000000000003FFFE0
FFFFC000000000000000003FFFE0
FFFFC000000000000000003FFFE0
FFFFC000000000000000003FFFE0
FFFFC000000000000000003FFFE0
FFFFC000000000000000003FFFE0
FFFFC000000000000000003FFFE0
FFFFC000000000000000003FFFE0
FFFFC000000000000000003FFFE0
FFFFC000000000000000003FFFE0
FFFFC000000000000000003FFFE0
FFFFC000000000000000003FFFE0
FFFFC000000000000000003FFFE0
FFFFC000000000000000003FFFE0
FFFFC000000000000000007FFFE0
FFFFE000000000000000007FFFC0
7FFFE000000000000000007FFFC0
7FFFE000000000000000007FFFC0
7FFFE000000000000000007FFFC0
7FFFF00000000000000000FFFFC0
7FFFF00000000000000000FFFFC0
7FFFF00000000000000001FFFF80
3FFFF80000000000000001FFFF80
3FFFF80000000000000003FFFF80
3FFFFC0000000000000003FFFF80
3FFFFE0000000000000007FFFF00
1FFFFF000000000000000FFFFF00
1FFFFF800000000000001FFFFF00
0FFFFFC00000000000003FFFFE00
0FFFFFE00000000000007FFFFE00
0FFFFFF8000000000001FFFFFC00
07FFFFFE000000000007FFFFFC00
07FFFFFF80000000003FFFFFFC00
03FFFFFFF800000001FFFFFFF800
01FFFFFFFFF00000FFFFFFFFF000
01FFFFFFFFFFFFFFFFFFFFFFF000
00FFFFFFFFFFFFFFFFFFFFFFE000
007FFFFFFFFFFFFFFFFFFFFFC000
003FFFFFFFFFFFFFFFFFFFFF8000
001FFFFFFFFFFFFFFFFFFFFF0000
000FFFFFFFFFFFFFFFFFFFFE0000
0007FFFFFFFFFFFFFFFFFFFC0000
0003FFFFFFFFFFFFFFFFFFF80000
0001FFFFFFFFFFFFFFFFFFF00000
00007FFFFFFFFFFFFFFFFFC00000
00001FFFFFFFFFFFFFFFFF000000
00000FFFFFFFFFFFFFFFFC000000
000001FFFFFFFFFFFFFFF0000000
0000007FFFFFFFFFFFFF80000000
00000007FFFFFFFFFFFC00000000
000000007FFFFFFFFFC000000000
0000000001FFFFFFE00000000000
ENDCHAR
STARTCHAR V
ENCODING 86
SWIDTH 989 0
DWIDTH 135 0
BBX 130 101 2 -2
BITMAP
FFFFF80000000000000000000003FFFFC0
7FFFFC0000000000000000000003FFFFC0
7FFFFC0000000000000000000007FFFF80
3FFFFE0000000000000000000007FFFF00
1FFFFF000000000000000000000FFFFF00
1FFFFF000000000000000000001FFFFE00
0FFFFF800000000000000000001FFFFE00
0FFFFF800000000000000000003FFFFC00
07FFFFC00000000000000000003FFFF800
03FFFFE00000000000000000007FFFF800
03FFFFE0000000000000000000FFFFF000
01FFFFF0000000000000000000FFFFF000
01FFFFF0000000000000000001FFFFE000
00FFFFF8000000000000000001FFFFC000
007FFFFC000000000000000003FFFFC000
007FFFFC000000000000000003FFFF8000
003FFFFE000000000000000007FFFF8000
003FFFFE00000000000000000FFFFF0000
001FFFFF00000000000000000FFFFE0000
000FFFFF00000000000000001FFFFE0000
000FFFFF80000000000000001FFFFC0000
0007FFFFC0000000000000003FFFFC0000
0007FFFFC0000000000000007FFFF80000
0003FFFFE0000000000000007FFFF00000
0001FFFFE000000000000000FFFFF00000
0001FFFFF000000000000000FFFFE00000
0000FFFFF800000000000001FFFFE00000
0000FFFFF800000000000003FFFFC00000
00007FFFFC00000000000003FFFF800000
00003FFFFC00000000000007FFFF800000
00003FFFFE00000000000007FFFF000000
00001FFFFE0000000000000FFFFF000000
00001FFFFF0000000000000FFFFE000000
00000FFFFF8000000000001FFFFC000000
000007FFFF8000000000003FFFFC000000
000007FFFFC000000000003FFFF8000000
000003FFFFC000000000007FFFF8000000
000003FFFFE000000000007FFFF0000000
000001FFFFF00000000000FFFFE0000000
000000FFFFF00000000001FFFFE0000000
000000FFFFF80000000001FFFFC0000000
0000007FFFF80000000003FFFFC0000000
0000007FFFFC0000000003FFFF80000000
0000003FFFFE0000000007FFFF00000000
0000001FFFFE0000000007FFFF00000000
0000001FFFFF000000000FFFFE00000000
0000000FFFFF000000001FFFFE00000000
0000000FFFFF800000001FFFFC00000000
00000007FFFF800000003FFFF800000000
00000003FFFFC00000003FFFF800000000
00000003FFFFE00000007FFFF000000000
00000001FFFFE0000000FFFFF000000000
00000001FFFFF0000000FFFFE000000000
00000000FFFFF0000001FFFFC000000000
000000007FFFF8000001FFFFC000000000
000000007FFFFC000003FFFF8000000000
000000003FFFFC000007FFFF8000000000
000000003FFFFE000007FFFF0000000000
000000001FFFFE00000FFFFE0000000000
000000000FFFFF00000FFFFE0000000000
000000000FFFFF80001FFFFC0000000000
0000000007FFFF80001FFFFC0000000000
0000000007FFFFC0003FFFF80000000000
0000000003FFFFC0007FFFF00000000000
0000000001FFFFE0007FFFF00000000000
0000000001FFFFE000FFFFE00000000000
0000000000FFFFF000FFFFE00000000000
0000000000FFFFF801FFFFC00000000000
00000000007FFFF803FFFF800000000000
00000000003FFFFC03FFFF800000000000
00000000003FFFFC07FFFF000000000000
00000000001FFFFE07FFFF000000000000
00000000001FFFFF0FFFFE000000000000
00000000000FFFFF0FFFFC000000000000
000000000007FFFF9FFFFC000000000000
000000000007FFFFBFFFF8000000000000
000000000003FFFFFFFFF8000000000000
000000000003FFFFFFFFF0000000000000
000000000001FFFFFFFFE0000000000000
000000000000FFFFFFFFE0000000000000
000000000000FFFFFFFFC0000000000000
0000000000007FFFFFFFC0000000000000
0000000000007FFFFFFF80000000000000
0000000000003FFFFFFF00000000000000
0000000000001FFFFFFF00000000000000
0000000000001FFFFFFE00000000000000
0000000000000FFFFFFE00000000000000
0000000000000FFFFFFC00000000000000
00000000000007FFFFF800000000000000
00000000000003FFFFF800000000000000
00000000000003FFFFF000000000000000
00000000000001FFFFF000000000000000
00000000000001FFFFE000000000000000
00000000000000FFFFC000000000000000
00000000000000FFFFC000000000000000
000000000000007FFF8000000000000000
000000000000003FFF0000000000000000
000000000000001FFF0000000000000000
000000000000000FFE0000000000000000
0000000000000007F80000000000000000
0000000000000000400000000000000000
ENDCHAR
STARTCHAR W
ENCODING 87
SWIDTH 1268 0
DWIDTH 172 0
BBX 168 100 2 -1
BITMAP
FFFFF80000003FFFFE00000000000000000007FFFF
7FFFF80000001FFFFE0000000000000000000FFFFF
7FFFFC0000001FFFFF0000000000000000000FFFFE
3FFFFC0000000FFFFF0000000000000000001FFFFE
3FFFFE0000000FFFFF8000000000000000001FFFFC
1FFFFE00000007FFFF8000000000000000003FFFF8
1FFFFF00000007FFFFC000000000000000003FFFF8
0FFFFF80000003FFFFC000000000000000007FFFF0
0FFFFF80000003FFFFE000000000000000007FFFF0
07FFFFC0000001FFFFE00000000000000000FFFFE0
03FFFFC0000001FFFFF00000000000000000FFFFE0
03FFFFE0000000FFFFF00000000000000001FFFFC0
01FFFFE0000000FFFFF80000000000000003FFFFC0
01FFFFF00000007FFFF80000000000000003FFFF80
00FFFFF00000007FFFFC0000000000000007FFFF80
00FFFFF80000003FFFFC0000000000000007FFFF00
007FFFF80000003FFFFE000000000000000FFFFF00
007FFFFC0000001FFFFE000000000000000FFFFE00
003FFFFC0000001FFFFF000000000000001FFFFC00
003FFFFE0000000FFFFF000000000000001FFFFC00
001FFFFE0000000FFFFF800000000000003FFFF800
000FFFFF00000007FFFF800000000000003FFFF800
000FFFFF00000007FFFFC00000000000007FFFF000
0007FFFF80000003FFFFC00000000000007FFFF000
0007FFFF80000001FFFFE0000000000000FFFFE000
0003FFFFC0000001FFFFE0000000000000FFFFE000
0003FFFFE0000000FFFFF0000000000001FFFFC000
0001FFFFE0000000FFFFF0000000000001FFFFC000
0001FFFFF00000007FFFF8000000000003FFFF8000
0000FFFFF00000007FFFF8000000000007FFFF0000
0000FFFFF80000003FFFFC000000000007FFFF0000
00007FFFF80000003FFFFC00000000000FFFFE0000
00007FFFFC0000001FFFFE00000000000FFFFE0000
00003FFFFC0000001FFFFE00000000001FFFFC0000
00001FFFFE0000000FFFFF00000000001FFFFC0000
00001FFFFE0000000FFFFF00000000003FFFF80000
00000FFFFF00000007FFFF80000000003FFFF80000
00000FFFFF00000007FFFF80000000007FFFF00000
000007FFFF80000003FFFFC0000000007FFFF00000
000007FFFF80000003FFFFC000000000FFFFE00000
000003FFFFC0000001FFFFE000000000FFFFE00000
000003FFFFC0000001FFFFE000000001FFFFC00000
000001FFFFE0000000FFFFF000000001FFFF800000
000001FFFFE0000000FFFFF000000003FFFF800000
000000FFFFF00000007FFFF800000003FFFF000000
0000007FFFF00000007FFFF800000007FFFF000000
0000007FFFF80000003FFFFC00000007FFFE000000
0000003FFFFC0000003FFFFC0000000FFFFE000000
0000003FFFFC0000001FFFFE0000001FFFFC000000
0000001FFFFE0000001FFFFE0000001FFFFC000000
0000001FFFFE0000001FFFFF0000003FFFF8000000
0000000FFFFF0000003FFFFF0000003FFFF8000000
0000000FFFFF0000003FFFFF8000007FFFF0000000
00000007FFFF8000007FFFFF8000007FFFE0000000
00000007FFFF8000007FFFFFC00000FFFFE0000000
00000003FFFFC00000FFFFFFC00000FFFFC0000000
00000003FFFFC00000FFFFFFE00001FFFFC0000000
00000001FFFFE00001FFFFFFE00001FFFF80000000
00000000FFFFE00003FFFFFFF00003FFFF80000000
00000000FFFFF00003FFFFFFF00003FFFF00000000
000000007FFFF00007FFFFFFF80007FFFF00000000
000000007FFFF80007FFFFFFF80007FFFE00000000
000000003FFFF8000FFFFFFFFC000FFFFE00000000
000000003FFFFC000FFFFFFFFE000FFFFC00000000
000000001FFFFC001FFFFFFFFE001FFFFC00000000
000000001FFFFE001FFFFFFFFF003FFFF800000000
000000000FFFFF003FFFFFFFFF003FFFF000000000
000000000FFFFF007FFFE7FFFF807FFFF000000000
0000000007FFFF807FFFE7FFFF807FFFE000000000
0000000007FFFF80FFFFC3FFFFC0FFFFE000000000
0000000003FFFFC0FFFFC1FFFFC0FFFFC000000000
0000000001FFFFC1FFFF81FFFFE1FFFFC000000000
0000000001FFFFE1FFFF80FFFFE1FFFF8000000000
0000000000FFFFE3FFFF00FFFFF3FFFF8000000000
0000000000FFFFF7FFFF007FFFF3FFFF0000000000
00000000007FFFF7FFFE007FFFFFFFFF0000000000
00000000007FFFFFFFFE003FFFFFFFFE0000000000
00000000003FFFFFFFFC003FFFFFFFFE0000000000
00000000003FFFFFFFFC001FFFFFFFFC0000000000
00000000001FFFFFFFF8001FFFFFFFF80000000000
00000000001FFFFFFFF0000FFFFFFFF80000000000
00000000000FFFFFFFF0000FFFFFFFF00000000000
000000000007FFFFFFE00007FFFFFFF00000000000
000000000007FFFFFFE00007FFFFFFE00000000000
000000000003FFFFFFC00003FFFFFFE00000000000
000000000003FFFFFFC00001FFFFFFC00000000000
000000000001FFFFFF800001FFFFFFC00000000000
000000000001FFFFFF800000FFFFFF800000000000
000000000000FFFFFF000000FFFFFF800000000000
000000000000FFFFFF0000007FFFFF000000000000
0000000000007FFFFE0000007FFFFE000000000000
0000000000007FFFFE0000003FFFFE000000000000
0000000000003FFFFC0000003FFFFC000000000000
0000000000003FFFF80000001FFFFC000000000000
0000000000001FFFF80000001FFFF8000000000000
0000000000000FFFF00000000FFFF8000000000000
0000000000000FFFF000000007FFF0000000000000
00000000000007FFE000000003FFE0000000000000
00000000000003FF8000000001FFC0000000000000
000000000000007E00000000007F00000000000000
ENDCHAR
STARTCHAR X
ENCODING 88
SWIDTH 1000 0
DWIDTH 136 0
BBX 129 99 3 0
BITMAP
0FFFFFF0000000000000000003FFFFF800
07FFFFF8000000000000000007FFFFE000
03FFFFFC00000000000000000FFFFFC000
01FFFFFE00000000000000001FFFFF8000
00FFFFFF00000000000000003FFFFF0000
007FFFFF80000000000000007FFFFE0000
001FFFFFC000000000000000FFFFFC0000
000FFFFFE000000000000001FFFFF80000
0007FFFFF000000000000003FFFFF00000
0003FFFFF800000000000007FFFFE00000
0001FFFFFC0000000000000FFFFFC00000
0000FFFFFE0000000000001FFFFF800000
00007FFFFF0000000000003FFFFF000000
00003FFFFF8000000000007FFFFE000000
00001FFFFFE00000000000FFFFFC000000
00000FFFFFF00000000001FFFFF8000000
000007FFFFF80000000003FFFFF0000000
000003FFFFFC0000000007FFFFE0000000
000001FFFFFE000000000FFFFFC0000000
000000FFFFFF000000001FFFFF80000000
0000007FFFFF800000003FFFFF00000000
0000003FFFFFC00000007FFFFE00000000
0000001FFFFFE0000000FFFFFC00000000
0000000FFFFFF0000001FFFFF800000000
00000007FFFFF8000003FFFFE000000000
00000003FFFFFC000007FFFFC000000000
00000001FFFFFE00000FFFFF8000000000
00000000FFFFFF00001FFFFF0000000000
000000007FFFFF80007FFFFE0000000000
000000003FFFFFC000FFFFFC0000000000
000000001FFFFFE001FFFFF80000000000
000000000FFFFFF003FFFFF00000000000
0000000007FFFFF807FFFFE00000000000
0000000003FFFFFC0FFFFFC00000000000
0000000000FFFFFE1FFFFF800000000000
00000000007FFFFF3FFFFF000000000000
00000000003FFFFFFFFFFE000000000000
00000000001FFFFFFFFFFC000000000000
00000000000FFFFFFFFFF8000000000000
000000000007FFFFFFFFF0000000000000
000000000003FFFFFFFFE0000000000000
000000000001FFFFFFFFC0000000000000
000000000000FFFFFFFF80000000000000
0000000000007FFFFFFF00000000000000
0000000000003FFFFFFE00000000000000
0000000000001FFFFFFC00000000000000
0000000000000FFFFFF800000000000000
00000000000007FFFFF000000000000000
0000000000000FFFFFF800000000000000
0000000000001FFFFFFC00000000000000
0000000000003FFFFFFE00000000000000
0000000000007FFFFFFF00000000000000
000000000000FFFFFFFF80000000000000
000000000001FFFFFFFFC0000000000000
000000000003FFFFFFFFE0000000000000
000000000007FFFFFFFFF0000000000000
00000000000FFFFFFFFFF8000000000000
00000000001FFFFFFFFFFC000000000000
00000000003FFFFFFFFFFE000000000000
00000000007FFFFEFFFFFF000000000000
0000000000FFFFFC7FFFFF800000000000
0000000001FFFFF83FFFFFC00000000000
0000000003FFFFF00FFFFFE00000000000
0000000007FFFFE007FFFFF00000000000
000000000FFFFF8003FFFFF80000000000
000000003FFFFF0001FFFFFC0000000000
000000007FFFFE0000FFFFFE0000000000
00000000FFFFFC00007FFFFF0000000000
00000001FFFFF800003FFFFF8000000000
00000003FFFFF000001FFFFFC000000000
00000007FFFFE000000FFFFFF000000000
0000000FFFFFC0000007FFFFF800000000
0000001FFFFF80000003FFFFFC00000000
0000003FFFFF00000001FFFFFE00000000
0000007FFFFE00000000FFFFFF00000000
000000FFFFFC000000007FFFFF80000000
000001FFFFF8000000003FFFFFC0000000
000003FFFFF0000000001FFFFFE0000000
000007FFFFE0000000000FFFFFF0000000
00000FFFFFC00000000007FFFFF8000000
00001FFFFF800000000003FFFFFC000000
00003FFFFF000000000001FFFFFE000000
00007FFFFE000000000000FFFFFF000000
0000FFFFFC0000000000007FFFFF800000
0001FFFFF80000000000003FFFFFC00000
0003FFFFF00000000000001FFFFFE00000
0007FFFFE00000000000000FFFFFF00000
000FFFFFC000000000000007FFFFF80000
001FFFFF8000000000000003FFFFFC0000
003FFFFF0000000000000001FFFFFE0000
007FFFFE0000000000000000FFFFFF0000
00FFFFFC00000000000000007FFFFF8000
01FFFFF800000000000000003FFFFFC000
03FFFFF000000000000000001FFFFFE000
07FFFFE000000000000000000FFFFFF800
0FFFFFC0000000000000000007FFFFFC00
1FFFFF80000000000000000003FFFFFE00
3FFFFF00000000000000000001FFFFFF00
FFFFFE00000000000000000000FFFFFF80
ENDCHAR
STARTCHAR Y
ENCODING 89
SWIDTH 926 0
DWIDTH 126 0
BBX 122 99 2 0
BITMAP
FFFFFE0000000000000000000FFFFFC0
7FFFFF0000000000000000001FFFFF80
3FFFFF8000000000000000003FFFFF00
1FFFFFC000000000000000007FFFFE00
0FFFFFE00000000000000000FFFFFC00
0FFFFFF00000000000000001FFFFF800
07FFFFF80000000000000001FFFFF800
03FFFFF80000000000000003FFFFF000
01FFFFFC0000000000000007FFFFE000
00FFFFFE000000000000000FFFFFC000
007FFFFF000000000000001FFFFF8000
003FFFFF800000000000003FFFFF0000
003FFFFFC00000000000003FFFFE0000
001FFFFFC00000000000007FFFFE0000
000FFFFFE0000000000000FFFFFC0000
0007FFFFF0000000000001FFFFF80000
0003FFFFF8000000000003FFFFF00000
0001FFFFFC000000000007FFFFE00000
0000FFFFFE00000000000FFFFFC00000
0000FFFFFE00000000000FFFFF800000
00007FFFFF00000000001FFFFF800000
00003FFFFF80000000003FFFFF000000
00001FFFFFC0000000007FFFFE000000
00000FFFFFE000000000FFFFFC000000
000007FFFFF000000001FFFFF8000000
000003FFFFF800000001FFFFF0000000
000003FFFFF800000003FFFFE0000000
000001FFFFFC00000007FFFFE0000000
000000FFFFFE0000000FFFFFC0000000
0000007FFFFF0000001FFFFF80000000
0000003FFFFF8000003FFFFF00000000
0000001FFFFFC000007FFFFE00000000
0000000FFFFFC000007FFFFC00000000
0000000FFFFFE00000FFFFF800000000
00000007FFFFF00001FFFFF800000000
00000003FFFFF80003FFFFF000000000
00000001FFFFFC0007FFFFE000000000
00000000FFFFFE000FFFFFC000000000
000000007FFFFF000FFFFF8000000000
000000003FFFFF001FFFFF0000000000
000000003FFFFF803FFFFE0000000000
000000001FFFFFC07FFFFE0000000000
000000000FFFFFE0FFFFFC0000000000
0000000007FFFFF1FFFFF80000000000
0000000003FFFFFBFFFFF00000000000
0000000001FFFFFBFFFFE00000000000
0000000001FFFFFFFFFFC00000000000
0000000000FFFFFFFFFF800000000000
00000000007FFFFFFFFF800000000000
00000000003FFFFFFFFF000000000000
00000000001FFFFFFFFE000000000000
00000000000FFFFFFFFC000000000000
000000000007FFFFFFF8000000000000
000000000003FFFFFFF0000000000000
000000000003FFFFFFE0000000000000
000000000001FFFFFFE0000000000000
000000000000FFFFFFC0000000000000
0000000000007FFFFF80000000000000
0000000000003FFFFF00000000000000
0000000000001FFFFE00000000000000
0000000000001FFFFC00000000000000
0000000000000FFFFC00000000000000
0000000000000FFFFC00000000000000
0000000000000FFFFC00000000000000
0000000000000FFFFC00000000000000
0000000000000FFFFC00000000000000
0000000000000FFFFC00000000000000
0000000000000FFFFC00000000000000
0000000000000FFFFC00000000000000
0000000000000FFFFC00000000000000
0000000000000FFFFC00000000000000
0000000000000FFFFC00000000000000
0000000000000FFFFC00000000000000
0000000000000FFFFC00000000000000
0000000000000FFFFC00000000000000
0000000000000FFFFC00000000000000
0000000000000FFFFC00000000000000
0000000000000FFFFC00000000000000
0000000000000FFFFC00000000000000
0000000000000FFFFC00000000000000
0000000000000FFFFC00000000000000
0000000000000FFFFC00000000000000
0000000000000FFFFC00000000000000
0000000000000FFFFC00000000000000
0000000000000FFFFC00000000000000
0000000000000FFFFC00000000000000
0000000000000FFFFC00000000000000
0000000000000FFFFC00000000000000
0000000000000FFFFC00000000000000
0000000000000FFFFC00000000000000
0000000000000FFFFC00000000000000
0000000000000FFFFC00000000000000
0000000000000FFFFC00000000000000
0000000000000FFFFC00000000000000
0000000000000FFFFC00000000000000
0000000000000FFFFC00000000000000
0000000000000FFFFC00000000000000
0000000000000FFFFC00000000000000
0000000000000FFFFC00000000000000
ENDCHAR
STARTCHAR Z
ENCODING 90
SWIDTH 802 0
DWIDTH 109 0
BBX 98 99 5 0
BITMAP
3FFFFFFFFFFFFFFFFFFFFFF000
3FFFFFFFFFFFFFFFFFFFFFFC00
3FFFFFFFFFFFFFFFFFFFFFFE00
3FFFFFFFFFFFFFFFFFFFFFFF00
3FFFFFFFFFFFFFFFFFFFFFFF80
3FFFFFFFFFFFFFFFFFFFFFFF80
3FFFFFFFFFFFFFFFFFFFFFFFC0
3FFFFFFFFFFFFFFFFFFFFFFFC0
3FFFFFFFFFFFFFFFFFFFFFFFC0
3FFFFFFFFFFFFFFFFFFFFFFFC0
3FFFFFFFFFFFFFFFFFFFFFFFC0
3FFFFFFFFFFFFFFFFFFFFFFFC0
3FFFFFFFFFFFFFFFFFFFFFFF80
3FFFFFFFFFFFFFFFFFFFFFFF80
3FFFFFFFFFFFFFFFFFFFFFFF00
3FFFFFFFFFFFFFFFFFFFFFFE00
000000000000000007FFFFFC00
00000000000000000FFFFFF800
00000000000000001FFFFFF000
00000000000000003FFFFFE000
00000000000000007FFFFFC000
0000000000000000FFFFFF8000
0000000000000001FFFFFF0000
0000000000000003FFFFFE0000
0000000000000007FFFFFC0000
000000000000000FFFFFF80000
000000000000001FFFFFF00000
000000000000003FFFFFE00000
000000000000007FFFFFC00000
00000000000000FFFFFF800000
00000000000001FFFFFF000000
00000000000003FFFFFE000000
00000000000007FFFFFC000000
0000000000000FFFFFF8000000
0000000000001FFFFFF8000000
0000000000003FFFFFF0000000
0000000000007FFFFFE0000000
000000000000FFFFFFC0000000
000000000001FFFFFF80000000
000000000001FFFFFF00000000
000000000003FFFFFE00000000
000000000007FFFFFC00000000
00000000000FFFFFF800000000
00000000001FFFFFF000000000
00000000003FFFFFE000000000
00000000007FFFFFC000000000
0000000000FFFFFF8000000000
0000000001FFFFFF0000000000
0000000003FFFFFE0000000000
0000000007FFFFFC0000000000
000000000FFFFFF80000000000
000000001FFFFFF00000000000
000000003FFFFFE00000000000
000000007FFFFFC00000000000
00000000FFFFFF800000000000
00000001FFFFFF000000000000
00000003FFFFFE000000000000
00000007FFFFFC000000000000
0000000FFFFFF8000000000000
0000001FFFFFF0000000000000
0000003FFFFFE0000000000000
0000007FFFFFC0000000000000
000000FFFFFF80000000000000
000001FFFFFF00000000000000
000003FFFFFE00000000000000
000007FFFFFC00000000000000
00000FFFFFF800000000000000
00001FFFFFF000000000000000
00003FFFFFE000000000000000
00007FFFFFC000000000000000
0000FFFFFF8000000000000000
0001FFFFFF0000000000000000
0003FFFFFE0000000000000000
0007FFFFFC0000000000000000
000FFFFFF80000000000000000
001FFFFFF00000000000000000
003FFFFFE00000000000000000
007FFFFFC00000000000000000
00FFFFFF800000000000000000
01FFFFFF000000000000000000
03FFFFFE000000000000000000
07FFFFFC000000000000000000
0FFFFFF8000000000000000000
1FFFFFFFFFFFFFFFFFFFFFFFC0
3FFFFFFFFFFFFFFFFFFFFFFFC0
3FFFFFFFFFFFFFFFFFFFFFFFC0
7FFFFFFFFFFFFFFFFFFFFFFFC0
7FFFFFFFFFFFFFFFFFFFFFFFC0
7FFFFFFFFFFFFFFFFFFFFFFFC0
FFFFFFFFFFFFFFFFFFFFFFFFC0
FFFFFFFFFFFFFFFFFFFFFFFFC0
FFFFFFFFFFFFFFFFFFFFFFFFC0
7FFFFFFFFFFFFFFFFFFFFFFFC0
7FFFFFFFFFFFFFFFFFFFFFFFC0
7FFFFFFFFFFFFFFFFFFFFFFFC0
3FFFFFFFFFFFFFFFFFFFFFFFC0
1FFFFFFFFFFFFFFFFFFFFFFFC0
0FFFFFFFFFFFFFFFFFFFFFFFC0
01FFFFFFFFFFFFFFFFFFFFFFC0
ENDCHAR
STARTCHAR bracketleft
ENCODING 91
SWIDTH 333 0
DWIDTH 45 0
BBX 24 124 13 -12
BITMAP
FFFFFF
FFFFFF
FFFFFF
FFFFFF
FFFFFF
FFFFFF
FFFFFF
FFFFFF
FFFFFF
FFFFFF
FFFFFF
FFF000
FFF000
FFF000
FFF000
FFF000
FFF000
FFF000
FFF000
FFF000
FFF000
FFF000
FFF000
FFF000
FFF000
FFF000
FFF000
FFF000
FFF000
FFF000
FFF000
FFF000
FFF000
FFF000
FFF000
FFF000
FFF000
FFF000
FFF000
FFF000
FFF000
FFF000
FFF000
FFF000
FFF000
FFF000
FFF000
FFF000
FFF000
FFF000
FFF000
FFF000
FFF000
FFF000
FFF000
FFF000
FFF000
FFF000
FFF000
FFF000
FFF000
FFF000
FFF000
FFF000
FFF000
FFF000
FFF000
FFF000
FFF000
FFF000
FFF000
FFF000
FFF000
FFF000
FFF000
FFF000
FFF000
FFF000
FFF000
FFF000
FFF000
FFF000
FFF000
FFF000
FFF000
FFF000
FFF000
FFF000
FFF000
FFF000
FFF000
FFF000
FFF000
FFF000
FFF000
FFF000
FFF000
FFF000
FFF000
FFF000
FFF000
FFF000
FFF000
FFF000
FFF000
FFF000
FFF000
FFF000
FFF000
FFF000
FFF000
FFF000
FFF000
FFFFFF
FFFFFF
FFFFFF
FFFFFF
FFFFFF
FFFFFF
FFFFFF
FFFFFF
FFFFFF
FFFFFF
FFFFFF
ENDCHAR
STARTCHAR backslash
ENCODING 92
SWIDTH 445 0
DWIDTH 61 0
BBX 58 99 1 0
BITMAP
FFF0000000000000
7FF0000000000000
3FF8000000000000
3FF8000000000000
3FFC000000000000
1FFC000000000000
1FFE000000000000
0FFE000000000000
0FFF000000000000
07FF000000000000
07FF800000000000
03FF800000000000
03FFC00000000000
01FFC00000000000
01FFE00000000000
00FFE00000000000
00FFF00000000000
00FFF00000000000
007FF00000000000
007FF80000000000
003FF80000000000
003FFC0000000000
001FFC0000000000
001FFE0000000000
000FFE0000000000
000FFF0000000000
0007FF0000000000
0007FF8000000000
0003FF8000000000
0003FFC000000000
0003FFC000000000
0001FFE000000000
0001FFE000000000
0000FFE000000000
0000FFF000000000
00007FF000000000
00007FF800000000
00003FF800000000
00003FFC00000000
00001FFC00000000
00001FFE00000000
00000FFE00000000
00000FFF00000000
00000FFF00000000
000007FF80000000
000007FF80000000
000003FFC0000000
000003FFC0000000
000001FFE0000000
000001FFE0000000
000000FFE0000000
000000FFF0000000
0000007FF0000000
0000007FF8000000
0000003FF8000000
0000003FFC000000
0000001FFC000000
0000001FFE000000
0000001FFE000000
0000000FFF000000
0000000FFF000000
00000007FF800000
00000007FF800000
00000003FFC00000
00000003FFC00000
00000001FFC00000
00000001FFE00000
00000000FFE00000
00000000FFF00000
000000007FF00000
000000007FF80000
000000007FF80000
000000003FFC0000
000000003FFC0000
000000001FFE0000
000000001FFE0000
000000000FFF0000
000000000FFF0000
0000000007FF8000
0000000007FF8000
0000000003FF8000
0000000003FFC000
0000000001FFC000
0000000001FFE000
0000000001FFE000
0000000000FFF000
0000000000FFF000
00000000007FF800
00000000007FF800
00000000003FFC00
00000000003FFC00
00000000001FFE00
00000000001FFE00
00000000000FFF00
00000000000FFF00
000000000007FF80
000000000007FF80
000000000007FF80
000000000003FFC0
ENDCHAR
STARTCHAR bracketright
ENCODING 93
SWIDTH 333 0
DWIDTH 45 0
BBX 23 124 9 -12
BITMAP
FFFFFE
FFFFFE
FFFFFE
FFFFFE
FFFFFE
FFFFFE
FFFFFE
FFFFFE
FFFFFE
FFFFFE
FFFFFE
001FFE
001FFE
001FFE
001FFE
001FFE
001FFE
001FFE
001FFE
001FFE
001FFE
001FFE
001FFE
001FFE
001FFE
001FFE
001FFE
001FFE
001FFE
001FFE
001FFE
001FFE
001FFE
001FFE
001FFE
001FFE
001FFE
001FFE
001FFE
001FFE
001FFE
001FFE
001FFE
001FFE
001FFE
001FFE
001FFE
001FFE
001FFE
001FFE
001FFE
001FFE
001FFE
001FFE
001FFE
001FFE
001FFE
001FFE
001FFE
001FFE
001FFE
001FFE
001FFE
001FFE
001FFE
001FFE
001FFE
001FFE
001FFE
001FFE
001FFE
001FFE
001FFE
001FFE
001FFE
001FFE
001FFE
001FFE
001FFE
001FFE
001FFE
001FFE
001FFE
001FFE
001FFE
001FFE
001FFE
001FFE
001FFE
001FFE
001FFE
001FFE
001FFE
001FFE
001FFE
001FFE
001FFE
001FFE
001FFE
001FFE
001FFE
001FFE
001FFE
001FFE
001FFE
001FFE
001FFE
001FFE
001FFE
001FFE
001FFE
001FFE
001FFE
FFFFFE
FFFFFE
FFFFFE
FFFFFE
FFFFFE
FFFFFE
FFFFFE
FFFFFE
FFFFFE
FFFFFE
FFFFFE
ENDCHAR
STARTCHAR asciicircum
ENCODING 94
SWIDTH 559 0
DWIDTH 76 0
BBX 58 60 9 39
BITMAP
0000003F00000000
0000007F80000000
000000FFC0000000
000001FFE0000000
000001FFF0000000
000003FFF0000000
000003FFF0000000
000003FFF8000000
000007FFF8000000
000007FFFC000000
00000FFFFC000000
00000FFFFC000000
00001FFFFE000000
00001FFFFE000000
00001FFFFF000000
00003FFFFF000000
00003FF3FF800000
00007FF3FF800000
00007FF1FF800000
00007FE1FFC00000
0000FFE1FFC00000
0000FFC0FFE00000
0001FFC0FFE00000
0001FFC07FE00000
0003FF807FF00000
0003FF807FF00000
0003FF003FF80000
0007FF003FF80000
0007FF001FFC0000
000FFE001FFC0000
000FFE001FFC0000
001FFC000FFE0000
001FFC000FFE0000
001FFC000FFF0000
003FF80007FF0000
003FF80007FF0000
007FF00003FF8000
007FF00003FF8000
00FFF00003FFC000
00FFE00001FFC000
00FFE00001FFE000
01FFC00000FFE000
01FFC00000FFE000
03FFC00000FFF000
03FF8000007FF000
07FF8000007FF800
07FF0000003FF800
07FF0000003FF800
0FFF0000003FFC00
0FFE0000001FFC00
1FFE0000001FFE00
1FFC0000000FFE00
1FFC0000000FFF00
3FFC0000000FFF00
3FF800000007FF00
7FF800000007FF80
7FF000000003FF80
FFF000000003FFC0
FFF000000003FFC0
FFE000000001FFC0
ENDCHAR
STARTCHAR underscore
ENCODING 95
SWIDTH 668 0
DWIDTH 91 0
BBX 92 8 0 -22
BITMAP
FFFFFFFFFFFFFFFFFFFFFFF0
FFFFFFFFFFFFFFFFFFFFFFF0
FFFFFFFFFFFFFFFFFFFFFFF0
FFFFFFFFFFFFFFFFFFFFFFF0
FFFFFFFFFFFFFFFFFFFFFFF0
FFFFFFFFFFFFFFFFFFFFFFF0
FFFFFFFFFFFFFFFFFFFFFFF0
FFFFFFFFFFFFFFFFFFFFFFF0
ENDCHAR
STARTCHAR grave
ENCODING 96
SWIDTH 362 0
DWIDTH 49 0
BBX 35 18 7 105
BITMAP
E000000000
FE00000000
FFC0000000
FFF8000000
FFFF000000
FFFFF00000
FFFFFE0000
FFFFFFC000
FFFFFFFC00
FFFFFFFF80
7FFFFFFFE0
07FFFFFFE0
003FFFFFE0
0001FFFFE0
00001FFFE0
000000FFE0
00000007E0
0000000060
ENDCHAR
STARTCHAR a
ENCODING 97
SWIDTH 989 0
DWIDTH 135 0
BBX 130 101 2 0
BITMAP
0000000000000000400000000000000000
0000000000000007F80000000000000000
000000000000000FFE0000000000000000
000000000000001FFF0000000000000000
000000000000003FFF0000000000000000
000000000000007FFF8000000000000000
00000000000000FFFFC000000000000000
00000000000000FFFFC000000000000000
00000000000001FFFFE000000000000000
00000000000001FFFFF000000000000000
00000000000003FFFFF000000000000000
00000000000007FFFFF800000000000000
00000000000007FFFFF800000000000000
0000000000000FFFFFFC00000000000000
0000000000000FFFFFFE00000000000000
0000000000001FFFFFFE00000000000000
0000000000003FFFFFFF00000000000000
0000000000003FFFFFFF00000000000000
0000000000007FFFFFFF80000000000000
0000000000007FFFFFFFC0000000000000
000000000000FFFFFFFFC0000000000000
000000000000FFFFFFFFE0000000000000
000000000001FFFFFFFFE0000000000000
000000000003FFFFFFFFF0000000000000
000000000003FFFFFFFFF8000000000000
000000000007FFFF7FFFF8000000000000
000000000007FFFF7FFFFC000000000000
00000000000FFFFE3FFFFC000000000000
00000000001FFFFC1FFFFE000000000000
00000000001FFFFC1FFFFF000000000000
00000000003FFFF80FFFFF000000000000
00000000003FFFF80FFFFF800000000000
00000000007FFFF007FFFF800000000000
0000000000FFFFE003FFFFC00000000000
0000000000FFFFE003FFFFE00000000000
0000000001FFFFC001FFFFE00000000000
0000000001FFFFC001FFFFF00000000000
0000000003FFFF8000FFFFF00000000000
0000000007FFFF80007FFFF80000000000
0000000007FFFF00007FFFFC0000000000
000000000FFFFE00003FFFFC0000000000
000000000FFFFE00003FFFFE0000000000
000000001FFFFC00001FFFFE0000000000
000000003FFFFC00000FFFFF0000000000
000000003FFFF800000FFFFF8000000000
000000007FFFF0000007FFFF8000000000
000000007FFFF0000007FFFFC000000000
00000000FFFFE0000003FFFFC000000000
00000001FFFFE0000001FFFFE000000000
00000001FFFFC0000001FFFFF000000000
00000003FFFF80000000FFFFF000000000
00000003FFFF80000000FFFFF800000000
00000007FFFF000000007FFFF800000000
0000000FFFFF000000007FFFFC00000000
0000000FFFFE000000003FFFFE00000000
0000001FFFFC000000001FFFFE00000000
0000001FFFFC000000001FFFFF00000000
0000003FFFF8000000000FFFFF00000000
0000007FFFF8000000000FFFFF80000000
0000007FFFF00000000007FFFFC0000000
000000FFFFF00000000003FFFFC0000000
000000FFFFE00000000003FFFFE0000000
000001FFFFC000FFFFFFFFFFFFE0000000
000003FFFFC001FFFFFFFFFFFFF0000000
000003FFFF8001FFFFFFFFFFFFF8000000
000007FFFF8003FFFFFFFFFFFFF8000000
000007FFFF0003FFFFFFFFFFFFFC000000
00000FFFFE0007FFFFFFFFFFFFFC000000
00001FFFFE000FFFFFFFFFFFFFFE000000
00001FFFFC000FFFFFFFFFFFFFFF000000
00003FFFFC001FFFFFFFFFFFFFFF000000
00003FFFF8001FFFFFFFFFFFFFFF800000
00007FFFF0003FFFFFFFFFFFFFFF800000
0000FFFFF0007FFFFFFFFFFFFFFFC00000
0000FFFFE0007FFFFFFFFFFFFFFFE00000
0001FFFFE000FFFFFFFFFFFFFFFFE00000
0001FFFFC000000000000001FFFFF00000
0003FFFFC000000000000000FFFFF00000
0007FFFF8000000000000000FFFFF80000
0007FFFF00000000000000007FFFFC0000
000FFFFF00000000000000007FFFFC0000
000FFFFE00000000000000003FFFFE0000
001FFFFE00000000000000001FFFFE0000
003FFFFC00000000000000001FFFFF0000
003FFFF800000000000000000FFFFF8000
007FFFF800000000000000000FFFFF8000
007FFFF0000000000000000007FFFFC000
00FFFFF0000000000000000003FFFFC000
01FFFFE0000000000000000003FFFFE000
01FFFFC0000000000000000001FFFFF000
03FFFFC0000000000000000001FFFFF000
03FFFF80000000000000000000FFFFF800
07FFFF800000000000000000007FFFF800
0FFFFF000000000000000000007FFFFC00
0FFFFE000000000000000000003FFFFE00
1FFFFE000000000000000000003FFFFE00
1FFFFC000000000000000000001FFFFF00
3FFFFC000000000000000000000FFFFF00
7FFFF8000000000000000000000FFFFF80
7FFFF80000000000000000000007FFFFC0
FFFFF00000000000000000000007FFFFC0
ENDCHAR
STARTCHAR b
ENCODING 98
SWIDTH 891 0
DWIDTH 121 0
BBX 107 99 8 0
BITMAP
FFFFFFFFFFFFFFFFFFFF00000000
FFFFFFFFFFFFFFFFFFFFF8000000
FFFFFFFFFFFFFFFFFFFFFF800000
FFFFFFFFFFFFFFFFFFFFFFE00000
FFFFFFFFFFFFFFFFFFFFFFF80000
FFFFFFFFFFFFFFFFFFFFFFFE0000
FFFFFFFFFFFFFFFFFFFFFFFF0000
FFFFFFFFFFFFFFFFFFFFFFFF8000
FFFFFFFFFFFFFFFFFFFFFFFFC000
FFFFFFFFFFFFFFFFFFFFFFFFE000
FFFFFFFFFFFFFFFFFFFFFFFFF000
FFFFFFFFFFFFFFFFFFFFFFFFF800
FFFFFFFFFFFFFFFFFFFFFFFFF800
FFFFFFFFFFFFFFFFFFFFFFFFFC00
FFFFFFFFFFFFFFFFFFFFFFFFFE00
FFFFFFFFFFFFFFFFFFFFFFFFFE00
FFFFFFFFFFFFFFFFFFFFFFFFFE00
FFFFC0000000000001FFFFFFFF00
FFFFC000000000000001FFFFFF00
FFFFC0000000000000003FFFFF00
FFFFC0000000000000001FFFFF00
FFFFC00000000000000007FFFF80
FFFFC00000000000000007FFFF80
FFFFC00000000000000003FFFF80
FFFFC00000000000000001FFFF80
FFFFC00000000000000001FFFF80
FFFFC00000000000000001FFFF80
FFFFC00000000000000001FFFF80
FFFFC00000000000000001FFFF80
FFFFC00000000000000001FFFF80
FFFFC00000000000000001FFFF80
FFFFC00000000000000001FFFF00
FFFFC00000000000000001FFFF00
FFFFC00000000000000001FFFF00
FFFFC00000000000000001FFFF00
FFFFC00000000000000003FFFE00
FFFFC00000000000000003FFFE00
FFFFC00000000000000007FFFC00
FFFFC0000000000000000FFFFC00
FFFFC0000000000000003FFFF800
FFFFC000000000000001FFFFF000
FFFFC003FFFFFFFFFFFFFFFFE000
FFFFC003FFFFFFFFFFFFFFFFC000
FFFFC003FFFFFFFFFFFFFFFF8000
FFFFC003FFFFFFFFFFFFFFFF0000
FFFFC003FFFFFFFFFFFFFFFC0000
FFFFC003FFFFFFFFFFFFFFE00000
FFFFC003FFFFFFFFFFFFFFFC0000
FFFFC003FFFFFFFFFFFFFFFE0000
FFFFC003FFFFFFFFFFFFFFFF8000
FFFFC003FFFFFFFFFFFFFFFFC000
FFFFC003FFFFFFFFFFFFFFFFF000
FFFFC003FFFFFFFFFFFFFFFFF800
FFFFC003FFFFFFFFFFFFFFFFF800
FFFFC003FFFFFFFFFFFFFFFFFC00
FFFFC003FFFFFFFFFFFFFFFFFE00
FFFFC000000000000001FFFFFF00
FFFFC0000000000000003FFFFF00
FFFFC0000000000000000FFFFF80
FFFFC00000000000000007FFFF80
FFFFC00000000000000003FFFF80
FFFFC00000000000000001FFFFC0
FFFFC00000000000000000FFFFC0
FFFFC00000000000000000FFFFC0
FFFFC000000000000000007FFFC0
FFFFC000000000000000007FFFC0
FFFFC000000000000000007FFFE0
FFFFC000000000000000007FFFE0
FFFFC000000000000000007FFFE0
FFFFC000000000000000007FFFE0
FFFFC000000000000000007FFFE0
FFFFC000000000000000007FFFE0
FFFFC000000000000000007FFFC0
FFFFC00000000000000000FFFFC0
FFFFC00000000000000000FFFFC0
FFFFC00000000000000001FFFFC0
FFFFC00000000000000003FFFFC0
FFFFC00000000000000007FFFFC0
FFFFC0000000000000000FFFFF80
FFFFC0000000000000003FFFFF80
FFFFC000000000000001FFFFFF80
FFFFC00000000000007FFFFFFF00
FFFFFFFFFFFFFFFFFFFFFFFFFF00
FFFFFFFFFFFFFFFFFFFFFFFFFE00
FFFFFFFFFFFFFFFFFFFFFFFFFE00
FFFFFFFFFFFFFFFFFFFFFFFFFC00
FFFFFFFFFFFFFFFFFFFFFFFFFC00
FFFFFFFFFFFFFFFFFFFFFFFFF800
FFFFFFFFFFFFFFFFFFFFFFFFF000
FFFFFFFFFFFFFFFFFFFFFFFFE000
FFFFFFFFFFFFFFFFFFFFFFFFC000
FFFFFFFFFFFFFFFFFFFFFFFF8000
FFFFFFFFFFFFFFFFFFFFFFFF0000
FFFFFFFFFFFFFFFFFFFFFFFE0000
FFFFFFFFFFFFFFFFFFFFFFF80000
FFFFFFFFFFFFFFFFFFFFFFE00000
FFFFFFFFFFFFFFFFFFFFFF800000
FFFFFFFFFFFFFFFFFFFFFC000000
FFFFFFFFFFFFFFFFFFFF80000000
ENDCHAR
STARTCHAR c
ENCODING 99
SWIDTH 829 0
DWIDTH 113 0
BBX 101 99 6 0
BITMAP
0000000000FFFFFFFFFFFFFFF8
000000001FFFFFFFFFFFFFFFF8
00000001FFFFFFFFFFFFFFFFF8
00000007FFFFFFFFFFFFFFFFF8
0000003FFFFFFFFFFFFFFFFFF8
000000FFFFFFFFFFFFFFFFFFF8
000003FFFFFFFFFFFFFFFFFFF8
000007FFFFFFFFFFFFFFFFFFF8
00001FFFFFFFFFFFFFFFFFFFF8
00003FFFFFFFFFFFFFFFFFFFF8
0000FFFFFFFFFFFFFFFFFFFFF8
0001FFFFFFFFFFFFFFFFFFFFF8
0003FFFFFFFFFFFFFFFFFFFFF8
0007FFFFFFFFFFFFFFFFFFFFF8
000FFFFFFFFFFFFFFFFFFFFFF8
001FFFFFFFFFFFFFFFFFFFFFF8
003FFFFFFFFFFFFFFFFFFFFFF8
003FFFFFFFF000000000000000
007FFFFFFE0000000000000000
00FFFFFFF00000000000000000
01FFFFFFC00000000000000000
01FFFFFF000000000000000000
03FFFFFC000000000000000000
03FFFFF8000000000000000000
07FFFFF0000000000000000000
07FFFFC0000000000000000000
0FFFFF80000000000000000000
0FFFFF80000000000000000000
1FFFFF00000000000000000000
1FFFFE00000000000000000000
1FFFFC00000000000000000000
3FFFFC00000000000000000000
3FFFF800000000000000000000
3FFFF800000000000000000000
7FFFF000000000000000000000
7FFFF000000000000000000000
7FFFE000000000000000000000
7FFFE000000000000000000000
7FFFE000000000000000000000
FFFFC000000000000000000000
FFFFC000000000000000000000
FFFFC000000000000000000000
FFFFC000000000000000000000
FFFF8000000000000000000000
FFFF8000000000000000000000
FFFF8000000000000000000000
FFFF8000000000000000000000
FFFF8000000000000000000000
FFFF8000000000000000000000
FFFF8000000000000000000000
FFFF8000000000000000000000
FFFF8000000000000000000000
FFFF8000000000000000000000
FFFF8000000000000000000000
FFFF8000000000000000000000
FFFF8000000000000000000000
FFFFC000000000000000000000
FFFFC000000000000000000000
7FFFC000000000000000000000
7FFFC000000000000000000000
7FFFE000000000000000000000
7FFFE000000000000000000000
7FFFE000000000000000000000
3FFFF000000000000000000000
3FFFF000000000000000000000
3FFFF800000000000000000000
1FFFF800000000000000000000
1FFFFC00000000000000000000
1FFFFC00000000000000000000
0FFFFE00000000000000000000
0FFFFF00000000000000000000
07FFFF80000000000000000000
07FFFFC0000000000000000000
03FFFFE0000000000000000000
03FFFFF0000000000000000000
01FFFFF8000000000000000000
01FFFFFC000000000000000000
00FFFFFF000000000000000000
007FFFFFC00000000000000000
007FFFFFF00000000000000000
003FFFFFFE0000000000000000
001FFFFFFFF000000000000000
000FFFFFFFFFFFFFFFFFFFFFF8
000FFFFFFFFFFFFFFFFFFFFFF8
0007FFFFFFFFFFFFFFFFFFFFF8
0003FFFFFFFFFFFFFFFFFFFFF8
0001FFFFFFFFFFFFFFFFFFFFF8
00007FFFFFFFFFFFFFFFFFFFF8
00003FFFFFFFFFFFFFFFFFFFF8
00001FFFFFFFFFFFFFFFFFFFF8
00000FFFFFFFFFFFFFFFFFFFF8
000003FFFFFFFFFFFFFFFFFFF8
000001FFFFFFFFFFFFFFFFFFF8
0000007FFFFFFFFFFFFFFFFFF8
0000001FFFFFFFFFFFFFFFFFF8
00000007FFFFFFFFFFFFFFFFF8
00000000FFFFFFFFFFFFFFFFF8
000000001FFFFFFFFFFFFFFFF8
0000000000FFFFFFFFFFFFFFF8
ENDCHAR
STARTCHAR d
ENCODING 100
SWIDTH 879 0
DWIDTH 120 0
BBX 105 99 9 0
BITMAP
FFFFFFFFFFFFFFFF800000000000
FFFFFFFFFFFFFFFFFC0000000000
FFFFFFFFFFFFFFFFFF8000000000
FFFFFFFFFFFFFFFFFFF000000000
FFFFFFFFFFFFFFFFFFFC00000000
FFFFFFFFFFFFFFFFFFFF00000000
FFFFFFFFFFFFFFFFFFFFC0000000
FFFFFFFFFFFFFFFFFFFFF0000000
FFFFFFFFFFFFFFFFFFFFF8000000
FFFFFFFFFFFFFFFFFFFFFE000000
FFFFFFFFFFFFFFFFFFFFFF000000
FFFFFFFFFFFFFFFFFFFFFF800000
FFFFFFFFFFFFFFFFFFFFFFC00000
FFFFFFFFFFFFFFFFFFFFFFE00000
FFFFFFFFFFFFFFFFFFFFFFF00000
FFFFFFFFFFFFFFFFFFFFFFF80000
FFFFFFFFFFFFFFFFFFFFFFFC0000
FFFF800000000007FFFFFFFE0000
FFFF8000000000003FFFFFFF0000
FFFF80000000000007FFFFFF0000
FFFF80000000000001FFFFFF8000
FFFF800000000000007FFFFFC000
FFFF800000000000003FFFFFC000
FFFF800000000000000FFFFFE000
FFFF8000000000000007FFFFE000
FFFF8000000000000003FFFFF000
FFFF8000000000000001FFFFF000
FFFF8000000000000000FFFFF800
FFFF80000000000000007FFFF800
FFFF80000000000000003FFFFC00
FFFF80000000000000003FFFFC00
FFFF80000000000000001FFFFC00
FFFF80000000000000000FFFFE00
FFFF80000000000000000FFFFE00
FFFF800000000000000007FFFE00
FFFF800000000000000007FFFE00
FFFF800000000000000007FFFF00
FFFF800000000000000003FFFF00
FFFF800000000000000003FFFF00
FFFF800000000000000003FFFF00
FFFF800000000000000001FFFF00
FFFF800000000000000001FFFF80
FFFF800000000000000001FFFF80
FFFF800000000000000001FFFF80
FFFF800000000000000001FFFF80
FFFF800000000000000000FFFF80
FFFF800000000000000000FFFF80
FFFF800000000000000000FFFF80
FFFF800000000000000000FFFF80
FFFF800000000000000000FFFF80
FFFF800000000000000000FFFF80
FFFF800000000000000000FFFF80
FFFF800000000000000000FFFF80
FFFF800000000000000001FFFF80
FFFF800000000000000001FFFF80
FFFF800000000000000001FFFF80
FFFF800000000000000001FFFF00
FFFF800000000000000001FFFF00
FFFF800000000000000001FFFF00
FFFF800000000000000003FFFF00
FFFF800000000000000003FFFF00
FFFF800000000000000003FFFF00
FFFF800000000000000007FFFE00
FFFF800000000000000007FFFE00
FFFF80000000000000000FFFFE00
FFFF80000000000000000FFFFC00
FFFF80000000000000001FFFFC00
FFFF80000000000000001FFFFC00
FFFF80000000000000003FFFF800
FFFF80000000000000007FFFF800
FFFF80000000000000007FFFF800
FFFF8000000000000000FFFFF000
FFFF8000000000000001FFFFF000
FFFF8000000000000003FFFFE000
FFFF8000000000000007FFFFE000
FFFF800000000000000FFFFFC000
FFFF800000000000003FFFFF8000
FFFF800000000000007FFFFF8000
FFFF80000000000001FFFFFF0000
FFFF80000000000007FFFFFF0000
FFFF8000000000003FFFFFFE0000
FFFF800000000007FFFFFFFC0000
FFFFFFFFFFFFFFFFFFFFFFF80000
FFFFFFFFFFFFFFFFFFFFFFF00000
FFFFFFFFFFFFFFFFFFFFFFE00000
FFFFFFFFFFFFFFFFFFFFFFC00000
FFFFFFFFFFFFFFFFFFFFFF800000
FFFFFFFFFFFFFFFFFFFFFF000000
FFFFFFFFFFFFFFFFFFFFFE000000
FFFFFFFFFFFFFFFFFFFFFC000000
FFFFFFFFFFFFFFFFFFFFF0000000
FFFFFFFFFFFFFFFFFFFFE0000000
FFFFFFFFFFFFFFFFFFFF80000000
FFFFFFFFFFFFFFFFFFFE00000000
FFFFFFFFFFFFFFFFFFF800000000
FFFFFFFFFFFFFFFFFFE000000000
FFFFFFFFFFFFFFFFFF8000000000
FFFFFFFFFFFFFFFFF80000000000
FFFFFFFFFFFFFFFF000000000000
ENDCHAR
STARTCHAR e
ENCODING 101
SWIDTH 759 0
DWIDTH 103 0
BBX 88 99 9 0
BITMAP
FFFFFFFFFFFFFFFFFFFFFF
FFFFFFFFFFFFFFFFFFFFFF
FFFFFFFFFFFFFFFFFFFFFF
FFFFFFFFFFFFFFFFFFFFFF
FFFFFFFFFFFFFFFFFFFFFF
FFFFFFFFFFFFFFFFFFFFFF
FFFFFFFFFFFFFFFFFFFFFF
FFFFFFFFFFFFFFFFFFFFFF
FFFFFFFFFFFFFFFFFFFFFF
FFFFFFFFFFFFFFFFFFFFFF
FFFFFFFFFFFFFFFFFFFFFF
FFFFFFFFFFFFFFFFFFFFFF
FFFFFFFFFFFFFFFFFFFFFF
FFFFFFFFFFFFFFFFFFFFFF
FFFFFFFFFFFFFFFFFFFFFF
FFFFFFFFFFFFFFFFFFFFFF
FFFFFFFFFFFFFFFFFFFFFF
FFFF800000000000000000
FFFF800000000000000000
FFFF800000000000000000
FFFF800000000000000000
FFFF800000000000000000
FFFF800000000000000000
FFFF800000000000000000
FFFF800000000000000000
FFFF800000000000000000
FFFF800000000000000000
FFFF800000000000000000
FFFF800000000000000000
FFFF800000000000000000
FFFF800000000000000000
FFFF800000000000000000
FFFF800000000000000000
FFFF800000000000000000
FFFF800000000000000000
FFFF800000000000000000
FFFF800000000000000000
FFFF800000000000000000
FFFF800000000000000000
FFFF800000000000000000
FFFF800000000000000000
FFFF8007FFFFFFFFFFFFF0
FFFF8007FFFFFFFFFFFFF0
FFFF8007FFFFFFFFFFFFF0
FFFF8007FFFFFFFFFFFFF0
FFFF8007FFFFFFFFFFFFF0
FFFF8007FFFFFFFFFFFFF0
FFFF8007FFFFFFFFFFFFF0
FFFF8007FFFFFFFFFFFFF0
FFFF8007FFFFFFFFFFFFF0
FFFF8007FFFFFFFFFFFFF0
FFFF8007FFFFFFFFFFFFF0
FFFF8007FFFFFFFFFFFFF0
FFFF8007FFFFFFFFFFFFF0
FFFF8007FFFFFFFFFFFFF0
FFFF8007FFFFFFFFFFFFF0
FFFF800000000000000000
FFFF800000000000000000
FFFF800000000000000000
FFFF800000000000000000
FFFF800000000000000000
FFFF800000000000000000
FFFF800000000000000000
FFFF800000000000000000
FFFF800000000000000000
FFFF800000000000000000
FFFF800000000000000000
FFFF800000000000000000
FFFF800000000000000000
FFFF800000000000000000
FFFF800000000000000000
FFFF800000000000000000
FFFF800000000000000000
FFFF800000000000000000
FFFF800000000000000000
FFFF800000000000000000
FFFF800000000000000000
FFFF800000000000000000
FFFF800000000000000000
FFFF800000000000000000
FFFF800000000000000000
FFFF800000000000000000
FFFFFFFFFFFFFFFFFFFFFF
FFFFFFFFFFFFFFFFFFFFFF
FFFFFFFFFFFFFFFFFFFFFF
FFFFFFFFFFFFFFFFFFFFFF
FFFFFFFFFFFFFFFFFFFFFF
FFFFFFFFFFFFFFFFFFFFFF
FFFFFFFFFFFFFFFFFFFFFF
FFFFFFFFFFFFFFFFFFFFFF
FFFFFFFFFFFFFFFFFFFFFF
FFFFFFFFFFFFFFFFFFFFFF
FFFFFFFFFFFFFFFFFFFFFF
FFFFFFFFFFFFFFFFFFFFFF
FFFFFFFFFFFFFFFFFFFFFF
FFFFFFFFFFFFFFFFFFFFFF
FFFFFFFFFFFFFFFFFFFFFF
FFFFFFFFFFFFFFFFFFFFFF
FFFFFFFFFFFFFFFFFFFFFF
ENDCHAR
STARTCHAR f
ENCODING 102
SWIDTH 705 0
DWIDTH 96 0
BBX 83 99 9 0
BITMAP
FFFFFFFFFFFFFFFFFFFFE0
FFFFFFFFFFFFFFFFFFFFE0
FFFFFFFFFFFFFFFFFFFFE0
FFFFFFFFFFFFFFFFFFFFE0
FFFFFFFFFFFFFFFFFFFFE0
FFFFFFFFFFFFFFFFFFFFE0
FFFFFFFFFFFFFFFFFFFFE0
FFFFFFFFFFFFFFFFFFFFE0
FFFFFFFFFFFFFFFFFFFFE0
FFFFFFFFFFFFFFFFFFFFE0
FFFFFFFFFFFFFFFFFFFFE0
FFFFFFFFFFFFFFFFFFFFE0
FFFFFFFFFFFFFFFFFFFFE0
FFFFFFFFFFFFFFFFFFFFE0
FFFFFFFFFFFFFFFFFFFFE0
FFFFFFFFFFFFFFFFFFFFE0
FFFFFFFFFFFFFFFFFFFFE0
FFFF800000000000000000
FFFF800000000000000000
FFFF800000000000000000
FFFF800000000000000000
FFFF800000000000000000
FFFF800000000000000000
FFFF800000000000000000
FFFF800000000000000000
FFFF800000000000000000
FFFF800000000000000000
FFFF800000000000000000
FFFF800000000000000000
FFFF800000000000000000
FFFF800000000000000000
FFFF800000000000000000
FFFF800000000000000000
FFFF800000000000000000
FFFF800000000000000000
FFFF800000000000000000
FFFF800000000000000000
FFFF800000000000000000
FFFF800000000000000000
FFFF800000000000000000
FFFF800000000000000000
FFFF800000000000000000
FFFF800000000000000000
FFFF8007FFFFFFFFFFFE00
FFFF8007FFFFFFFFFFFE00
FFFF8007FFFFFFFFFFFE00
FFFF8007FFFFFFFFFFFE00
FFFF8007FFFFFFFFFFFE00
FFFF8007FFFFFFFFFFFE00
FFFF8007FFFFFFFFFFFE00
FFFF8007FFFFFFFFFFFE00
FFFF8007FFFFFFFFFFFE00
FFFF8007FFFFFFFFFFFE00
FFFF8007FFFFFFFFFFFE00
FFFF8007FFFFFFFFFFFE00
FFFF8007FFFFFFFFFFFE00
FFFF8007FFFFFFFFFFFE00
FFFF8007FFFFFFFFFFFE00
FFFF800000000000000000
FFFF800000000000000000
FFFF800000000000000000
FFFF800000000000000000
FFFF800000000000000000
FFFF800000000000000000
FFFF800000000000000000
FFFF800000000000000000
FFFF800000000000000000
FFFF800000000000000000
FFFF800000000000000000
FFFF800000000000000000
FFFF800000000000000000
FFFF800000000000000000
FFFF800000000000000000
FFFF800000000000000000
FFFF800000000000000000
FFFF800000000000000000
FFFF800000000000000000
FFFF800000000000000000
FFFF800000000000000000
FFFF800000000000000000
FFFF800000000000000000
FFFF800000000000000000
FFFF800000000000000000
FFFF800000000000000000
FFFF800000000000000000
FFFF800000000000000000
FFFF800000000000000000
FFFF800000000000000000
FFFF800000000000000000
FFFF800000000000000000
FFFF800000000000000000
FFFF800000000000000000
FFFF800000000000000000
FFFF800000000000000000
FFFF800000000000000000
FFFF800000000000000000
FFFF800000000000000000
FFFF800000000000000000
FFFF800000000000000000
ENDCHAR
STARTCHAR g
ENCODING 103
SWIDTH 888 0
DWIDTH 121 0
BBX 107 99 6 0
BITMAP
0000000000FFFFFFFFFFFFFFF800
000000001FFFFFFFFFFFFFFFF800
00000001FFFFFFFFFFFFFFFFF800
00000007FFFFFFFFFFFFFFFFF800
0000003FFFFFFFFFFFFFFFFFF800
000000FFFFFFFFFFFFFFFFFFF800
000003FFFFFFFFFFFFFFFFFFF800
000007FFFFFFFFFFFFFFFFFFF800
00001FFFFFFFFFFFFFFFFFFFF800
00003FFFFFFFFFFFFFFFFFFFF800
0000FFFFFFFFFFFFFFFFFFFFF800
0001FFFFFFFFFFFFFFFFFFFFF800
0003FFFFFFFFFFFFFFFFFFFFF800
0007FFFFFFFFFFFFFFFFFFFFF800
000FFFFFFFFFFFFFFFFFFFFFF800
001FFFFFFFFFFFFFFFFFFFFFF800
003FFFFFFFFFFFFFFFFFFFFFF800
003FFFFFFFF00000000000000000
007FFFFFFE000000000000000000
00FFFFFFF0000000000000000000
01FFFFFFC0000000000000000000
01FFFFFF00000000000000000000
03FFFFFC00000000000000000000
03FFFFF800000000000000000000
07FFFFF000000000000000000000
07FFFFC000000000000000000000
0FFFFF8000000000000000000000
0FFFFF8000000000000000000000
1FFFFF0000000000000000000000
1FFFFE0000000000000000000000
1FFFFC0000000000000000000000
3FFFFC0000000000000000000000
3FFFF80000000000000000000000
3FFFF80000000000000000000000
7FFFF00000000000000000000000
7FFFF00000000000000000000000
7FFFE00000000000000000000000
7FFFE00000000000000000000000
7FFFE00000000000000000000000
FFFFC00000000000000000000000
FFFFC00000000000000000000000
FFFFC0000007FFFFFFFFFFFFFFE0
FFFFC0000007FFFFFFFFFFFFFFE0
FFFF80000007FFFFFFFFFFFFFFE0
FFFF80000007FFFFFFFFFFFFFFE0
FFFF80000007FFFFFFFFFFFFFFE0
FFFF80000007FFFFFFFFFFFFFFE0
FFFF80000007FFFFFFFFFFFFFFE0
FFFF80000007FFFFFFFFFFFFFFE0
FFFF80000007FFFFFFFFFFFFFFE0
FFFF80000007FFFFFFFFFFFFFFE0
FFFF80000007FFFFFFFFFFFFFFE0
FFFF80000007FFFFFFFFFFFFFFE0
FFFF80000007FFFFFFFFFFFFFFE0
FFFF80000007FFFFFFFFFFFFFFE0
FFFF80000007FFFFFFFFFFFFFFE0
FFFFC000000000000000003FFFE0
FFFFC000000000000000003FFFE0
7FFFC000000000000000003FFFE0
7FFFC000000000000000003FFFE0
7FFFE000000000000000003FFFE0
7FFFE000000000000000003FFFE0
7FFFE000000000000000003FFFE0
3FFFF000000000000000003FFFE0
3FFFF000000000000000003FFFE0
3FFFF800000000000000003FFFE0
1FFFF800000000000000003FFFE0
1FFFFC00000000000000003FFFE0
1FFFFC00000000000000003FFFE0
0FFFFE00000000000000003FFFE0
0FFFFF00000000000000003FFFE0
07FFFF80000000000000003FFFE0
07FFFFC0000000000000003FFFE0
03FFFFE0000000000000003FFFE0
03FFFFF0000000000000003FFFE0
01FFFFF8000000000000003FFFE0
01FFFFFC000000000000003FFFE0
00FFFFFF000000000000003FFFE0
007FFFFFC00000000000003FFFE0
007FFFFFF00000000000003FFFE0
003FFFFFFE0000000000003FFFE0
001FFFFFFFF000000000003FFFE0
000FFFFFFFFFFFFFFFFFFFFFFFE0
000FFFFFFFFFFFFFFFFFFFFFFFE0
0007FFFFFFFFFFFFFFFFFFFFFFE0
0003FFFFFFFFFFFFFFFFFFFFFFE0
0001FFFFFFFFFFFFFFFFFFFFFFE0
00007FFFFFFFFFFFFFFFFFFFFFE0
00003FFFFFFFFFFFFFFFFFFFFFE0
00001FFFFFFFFFFFFFFFFFFFFFE0
00000FFFFFFFFFFFFFFFFFFFFFE0
000003FFFFFFFFFFFFFFFFFFFFE0
000001FFFFFFFFFFFFFFFFFFFFE0
0000007FFFFFFFFFFFFFFFFFFFE0
0000001FFFFFFFFFFFFFFFFFFFE0
00000007FFFFFFFFFFFFFFFFFFE0
00000000FFFFFFFFFFFFFFFFFFE0
000000001FFFFFFFFFFFFFFFFFE0
0000000000FFFFFFFFFFFFFFFFE0
ENDCHAR
STARTCHAR h
ENCODING 104
SWIDTH 838 0
DWIDTH 114 0
BBX 96 99 9 0
BITMAP
FFFF8000000000000001FFFF
FFFF8000000000000001FFFF
FFFF8000000000000001FFFF
FFFF8000000000000001FFFF
FFFF8000000000000001FFFF
FFFF8000000000000001FFFF
FFFF8000000000000001FFFF
FFFF8000000000000001FFFF
FFFF8000000000000001FFFF
FFFF8000000000000001FFFF
FFFF8000000000000001FFFF
FFFF8000000000000001FFFF
FFFF8000000000000001FFFF
FFFF8000000000000001FFFF
FFFF8000000000000001FFFF
FFFF8000000000000001FFFF
FFFF8000000000000001FFFF
FFFF8000000000000001FFFF
FFFF8000000000000001FFFF
FFFF8000000000000001FFFF
FFFF8000000000000001FFFF
FFFF8000000000000001FFFF
FFFF8000000000000001FFFF
FFFF8000000000000001FFFF
FFFF8000000000000001FFFF
FFFF8000000000000001FFFF
FFFF8000000000000001FFFF
FFFF8000000000000001FFFF
FFFF8000000000000001FFFF
FFFF8000000000000001FFFF
FFFF8000000000000001FFFF
FFFF8000000000000001FFFF
FFFF8000000000000001FFFF
FFFF8000000000000001FFFF
FFFF8000000000000001FFFF
FFFF8000000000000001FFFF
FFFF8000000000000001FFFF
FFFF8000000000000001FFFF
FFFF8000000000000001FFFF
FFFF8000000000000001FFFF
FFFF8000000000000001FFFF
FFFF8007FFFFFFFFFFFFFFFF
FFFF8007FFFFFFFFFFFFFFFF
FFFF8007FFFFFFFFFFFFFFFF
FFFF8007FFFFFFFFFFFFFFFF
FFFF8007FFFFFFFFFFFFFFFF
FFFF8007FFFFFFFFFFFFFFFF
FFFF8007FFFFFFFFFFFFFFFF
FFFF8007FFFFFFFFFFFFFFFF
FFFF8007FFFFFFFFFFFFFFFF
FFFF8007FFFFFFFFFFFFFFFF
FFFF8007FFFFFFFFFFFFFFFF
FFFF8007FFFFFFFFFFFFFFFF
FFFF8007FFFFFFFFFFFFFFFF
FFFF8007FFFFFFFFFFFFFFFF
FFFF8007FFFFFFFFFFFFFFFF
FFFF8000000000000001FFFF
FFFF8000000000000001FFFF
FFFF8000000000000001FFFF
FFFF8000000000000001FFFF
FFFF8000000000000001FFFF
FFFF8000000000000001FFFF
FFFF8000000000000001FFFF
FFFF8000000000000001FFFF
FFFF8000000000000001FFFF
FFFF8000000000000001FFFF
FFFF8000000000000001FFFF
FFFF8000000000000001FFFF
FFFF8000000000000001FFFF
FFFF8000000000000001FFFF
FFFF8000000000000001FFFF
FFFF8000000000000001FFFF
FFFF8000000000000001FFFF
FFFF8000000000000001FFFF
FFFF8000000000000001FFFF
FFFF8000000000000001FFFF
FFFF8000000000000001FFFF
FFFF8000000000000001FFFF
FFFF8000000000000001FFFF
FFFF8000000000000001FFFF
FFFF8000000000000001FFFF
FFFF8000000000000001FFFF
FFFF8000000000000001FFFF
FFFF8000000000000001FFFF
FFFF8000000000000001FFFF
FFFF8000000000000001FFFF
FFFF8000000000000001FFFF
FFFF8000000000000001FFFF
FFFF8000000000000001FFFF
FFFF8000000000000001FFFF
FFFF8000000000000001FFFF
FFFF8000000000000001FFFF
FFFF8000000000000001FFFF
FFFF8000000000000001FFFF
FFFF8000000000000001FFFF
FFFF8000000000000001FFFF
FFFF8000000000000001FFFF
FFFF8000000000000001FFFF
FFFF8000000000000001FFFF
ENDCHAR
STARTCHAR i
ENCODING 105
SWIDTH 267 0
DWIDTH 36 0
BBX 17 99 10 0
BITMAP
FFFF80
FFFF80
FFFF80
FFFF80
FFFF80
FFFF80
FFFF80
FFFF80
FFFF80
FFFF80
FFFF80
FFFF80
FFFF80
FFFF80
FFFF80
FFFF80
FFFF80
FFFF80
FFFF80
FFFF80
FFFF80
FFFF80
FFFF80
FFFF80
FFFF80
FFFF80
FFFF80
FFFF80
FFFF80
FFFF80
FFFF80
FFFF80
FFFF80
FFFF80
FFFF80
FFFF80
FFFF80
FFFF80
FFFF80
FFFF80
FFFF80
FFFF80
FFFF80
FFFF80
FFFF80
FFFF80
FFFF80
FFFF80
FFFF80
FFFF80
FFFF80
FFFF80
FFFF80
FFFF80
FFFF80
FFFF80
FFFF80
FFFF80
FFFF80
FFFF80
FFFF80
FFFF80
FFFF80
FFFF80
FFFF80
FFFF80
FFFF80
FFFF80
FFFF80
FFFF80
FFFF80
FFFF80
FFFF80
FFFF80
FFFF80
FFFF80
FFFF80
FFFF80
FFFF80
FFFF80
FFFF80
FFFF80
FFFF80
FFFF80
FFFF80
FFFF80
FFFF80
FFFF80
FFFF80
FFFF80
FFFF80
FFFF80
FFFF80
FFFF80
FFFF80
FFFF80
FFFF80
FFFF80
FFFF80
ENDCHAR
STARTCHAR j
ENCODING 106
SWIDTH 708 0
DWIDTH 96 0
BBX 86 99 3 0
BITMAP
000000000000000007FFFC
000000000000000007FFFC
000000000000000007FFFC
000000000000000007FFFC
000000000000000007FFFC
000000000000000007FFFC
000000000000000007FFFC
000000000000000007FFFC
000000000000000007FFFC
000000000000000007FFFC
000000000000000007FFFC
000000000000000007FFFC
000000000000000007FFFC
000000000000000007FFFC
000000000000000007FFFC
000000000000000007FFFC
000000000000000007FFFC
000000000000000007FFFC
000000000000000007FFFC
000000000000000007FFFC
000000000000000007FFFC
000000000000000007FFFC
000000000000000007FFFC
000000000000000007FFFC
000000000000000007FFFC
000000000000000007FFFC
000000000000000007FFFC
000000000000000007FFFC
000000000000000007FFFC
000000000000000007FFFC
000000000000000007FFFC
000000000000000007FFFC
000000000000000007FFFC
000000000000000007FFFC
000000000000000007FFFC
000000000000000007FFFC
000000000000000007FFFC
000000000000000007FFFC
000000000000000007FFFC
000000000000000007FFFC
000000000000000007FFFC
000000000000000007FFFC
000000000000000007FFFC
000000000000000007FFFC
000000000000000007FFFC
000000000000000007FFFC
000000000000000007FFFC
000000000000000007FFFC
000000000000000007FFFC
000000000000000007FFFC
000000000000000007FFFC
000000000000000007FFFC
000000000000000007FFFC
000000000000000007FFFC
000000000000000007FFFC
000000000000000007FFFC
000000000000000007FFFC
000000000000000007FFFC
000000000000000007FFFC
000000000000000007FFFC
00000000000000000FFFFC
00000000000000000FFFFC
00000000000000000FFFFC
00000000000000000FFFFC
00000000000000000FFFFC
00000000000000001FFFF8
00000000000000001FFFF8
00000000000000001FFFF8
00000000000000003FFFF8
00000000000000003FFFF8
00000000000000007FFFF0
0000000000000000FFFFF0
0000000000000000FFFFF0
0000000000000001FFFFE0
0000000000000003FFFFE0
0000000000000007FFFFE0
000000000000001FFFFFC0
000000000000003FFFFFC0
00000000000000FFFFFF80
00000000000007FFFFFF80
0000000000003FFFFFFF00
00000000007FFFFFFFFF00
FFFFFFFFFFFFFFFFFFFE00
FFFFFFFFFFFFFFFFFFFC00
FFFFFFFFFFFFFFFFFFFC00
FFFFFFFFFFFFFFFFFFF800
FFFFFFFFFFFFFFFFFFF000
FFFFFFFFFFFFFFFFFFE000
FFFFFFFFFFFFFFFFFFC000
FFFFFFFFFFFFFFFFFF0000
FFFFFFFFFFFFFFFFFE0000
FFFFFFFFFFFFFFFFFC0000
FFFFFFFFFFFFFFFFF00000
FFFFFFFFFFFFFFFFC00000
FFFFFFFFFFFFFFFF000000
FFFFFFFFFFFFFFF8000000
FFFFFFFFFFFFFFC0000000
FFFFFFFFFFFFFC00000000
FFFFFFFFFFFE0000000000
ENDCHAR
STARTCHAR k
ENCODING 107
SWIDTH 875 0
DWIDTH 119 0
BBX 107 99 9 0
BITMAP
FFFF8000000000000003FFFFFF80
FFFF8000000000000007FFFFFE00
FFFF800000000000000FFFFFFC00
FFFF800000000000003FFFFFF800
FFFF800000000000007FFFFFE000
FFFF80000000000000FFFFFFC000
FFFF80000000000003FFFFFF8000
FFFF80000000000007FFFFFE0000
FFFF8000000000000FFFFFFC0000
FFFF8000000000001FFFFFF80000
FFFF8000000000007FFFFFE00000
FFFF800000000000FFFFFFC00000
FFFF800000000001FFFFFF800000
FFFF800000000007FFFFFE000000
FFFF80000000000FFFFFFC000000
FFFF80000000001FFFFFF8000000
FFFF80000000007FFFFFE0000000
FFFF8000000000FFFFFFC0000000
FFFF8000000001FFFFFF80000000
FFFF8000000003FFFFFE00000000
FFFF800000000FFFFFFC00000000
FFFF800000001FFFFFF800000000
FFFF800000003FFFFFE000000000
FFFF80000000FFFFFFC000000000
FFFF80000001FFFFFF8000000000
FFFF80000003FFFFFE0000000000
FFFF8000000FFFFFFC0000000000
FFFF8000001FFFFFF80000000000
FFFF8000003FFFFFE00000000000
FFFF8000007FFFFFC00000000000
FFFF800001FFFFFF800000000000
FFFF800003FFFFFE000000000000
FFFF800007FFFFFC000000000000
FFFF80001FFFFFF8000000000000
FFFF80003FFFFFE0000000000000
FFFF80007FFFFFC0000000000000
FFFF8001FFFFFF80000000000000
FFFF8003FFFFFE00000000000000
FFFF8007FFFFFC00000000000000
FFFF800FFFFFF000000000000000
FFFF803FFFFFE000000000000000
FFFF807FFFFFC000000000000000
FFFF80FFFFFF0000000000000000
FFFF81FFFFFE0000000000000000
FFFF81FFFFFC0000000000000000
FFFF83FFFFF00000000000000000
FFFF83FFFFE00000000000000000
FFFF83FFFFC00000000000000000
FFFF83FFFF800000000000000000
FFFF83FFFFC00000000000000000
FFFF83FFFFE00000000000000000
FFFF81FFFFF80000000000000000
FFFF81FFFFFC0000000000000000
FFFF80FFFFFE0000000000000000
FFFF807FFFFF8000000000000000
FFFF803FFFFFC000000000000000
FFFF801FFFFFE000000000000000
FFFF800FFFFFF800000000000000
FFFF8003FFFFFC00000000000000
FFFF8001FFFFFE00000000000000
FFFF8000FFFFFF80000000000000
FFFF80007FFFFFC0000000000000
FFFF80001FFFFFE0000000000000
FFFF80000FFFFFF8000000000000
FFFF800007FFFFFC000000000000
FFFF800003FFFFFE000000000000
FFFF800000FFFFFF800000000000
FFFF8000007FFFFFC00000000000
FFFF8000003FFFFFE00000000000
FFFF8000000FFFFFF80000000000
FFFF80000007FFFFFC0000000000
FFFF80000003FFFFFE0000000000
FFFF80000001FFFFFF8000000000
FFFF800000007FFFFFC000000000
FFFF800000003FFFFFE000000000
FFFF800000001FFFFFF000000000
FFFF800000000FFFFFFC00000000
FFFF8000000003FFFFFE00000000
FFFF8000000001FFFFFF00000000
FFFF8000000000FFFFFFC0000000
FFFF80000000003FFFFFE0000000
FFFF80000000001FFFFFF0000000
FFFF80000000000FFFFFFC000000
FFFF800000000007FFFFFE000000
FFFF800000000001FFFFFF000000
FFFF800000000000FFFFFFC00000
FFFF8000000000007FFFFFE00000
FFFF8000000000003FFFFFF00000
FFFF8000000000000FFFFFFC0000
FFFF80000000000007FFFFFE0000
FFFF80000000000003FFFFFF0000
FFFF80000000000001FFFFFFC000
FFFF800000000000007FFFFFE000
FFFF800000000000003FFFFFF000
FFFF800000000000001FFFFFFC00
FFFF8000000000000007FFFFFE00
FFFF8000000000000003FFFFFF00
FFFF8000000000000001FFFFFF80
FFFF8000000000000000FFFFFFE0
ENDCHAR
STARTCHAR l
ENCODING 108
SWIDTH 707 0
DWIDTH 96 0
BBX 83 99 9 0
BITMAP
FFFF800000000000000000
FFFF800000000000000000
FFFF800000000000000000
FFFF800000000000000000
FFFF800000000000000000
FFFF800000000000000000
FFFF800000000000000000
FFFF800000000000000000
FFFF800000000000000000
FFFF800000000000000000
FFFF800000000000000000
FFFF800000000000000000
FFFF800000000000000000
FFFF800000000000000000
FFFF800000000000000000
FFFF800000000000000000
FFFF800000000000000000
FFFF800000000000000000
FFFF800000000000000000
FFFF800000000000000000
FFFF800000000000000000
FFFF800000000000000000
FFFF800000000000000000
FFFF800000000000000000
FFFF800000000000000000
FFFF800000000000000000
FFFF800000000000000000
FFFF800000000000000000
FFFF800000000000000000
FFFF800000000000000000
FFFF800000000000000000
FFFF800000000000000000
FFFF800000000000000000
FFFF800000000000000000
FFFF800000000000000000
FFFF800000000000000000
FFFF800000000000000000
FFFF800000000000000000
FFFF800000000000000000
FFFF800000000000000000
FFFF800000000000000000
FFFF800000000000000000
FFFF800000000000000000
FFFF800000000000000000
FFFF800000000000000000
FFFF800000000000000000
FFFF800000000000000000
FFFF800000000000000000
FFFF800000000000000000
FFFF800000000000000000
FFFF800000000000000000
FFFF800000000000000000
FFFF800000000000000000
FFFF800000000000000000
FFFF800000000000000000
FFFF800000000000000000
FFFF800000000000000000
FFFF800000000000000000
FFFF800000000000000000
FFFF800000000000000000
FFFF800000000000000000
FFFF800000000000000000
FFFF800000000000000000
FFFF800000000000000000
FFFF800000000000000000
FFFF800000000000000000
FFFF800000000000000000
FFFF800000000000000000
FFFF800000000000000000
FFFF800000000000000000
FFFF800000000000000000
FFFF800000000000000000
FFFF800000000000000000
FFFF800000000000000000
FFFF800000000000000000
FFFF800000000000000000
FFFF800000000000000000
FFFF800000000000000000
FFFF800000000000000000
FFFF800000000000000000
FFFF800000000000000000
FFFF800000000000000000
FFFFFFFFFFFFFFFFFFFFE0
FFFFFFFFFFFFFFFFFFFFE0
FFFFFFFFFFFFFFFFFFFFE0
FFFFFFFFFFFFFFFFFFFFE0
FFFFFFFFFFFFFFFFFFFFE0
FFFFFFFFFFFFFFFFFFFFE0
FFFFFFFFFFFFFFFFFFFFE0
FFFFFFFFFFFFFFFFFFFFE0
FFFFFFFFFFFFFFFFFFFFE0
FFFFFFFFFFFFFFFFFFFFE0
FFFFFFFFFFFFFFFFFFFFE0
FFFFFFFFFFFFFFFFFFFFE0
FFFFFFFFFFFFFFFFFFFFE0
FFFFFFFFFFFFFFFFFFFFE0
FFFFFFFFFFFFFFFFFFFFE0
FFFFFFFFFFFFFFFFFFFFE0
FFFFFFFFFFFFFFFFFFFFE0
ENDCHAR
STARTCHAR m
ENCODING 109
SWIDTH 1115 0
DWIDTH 152 0
BBX 146 101 3 -2
BITMAP
00000001F8000000000000000007E000000000
00000007FE00000000000000001FF800000000
0000000FFF80000000000000003FFC00000000
0000001FFFC0000000000000007FFE00000000
0000001FFFC0000000000000007FFF00000000
0000003FFFE000000000000000FFFF00000000
0000003FFFE000000000000000FFFF00000000
0000003FFFF000000000000001FFFF80000000
0000007FFFF000000000000001FFFF80000000
0000007FFFF800000000000003FFFF80000000
0000007FFFF800000000000003FFFF80000000
000000FFFFF800000000000007FFFFC0000000
000000FFFFFC00000000000007FFFFC0000000
000000FFFFFC0000000000000FFFFFC0000000
000000FFFFFE0000000000000FFFFFE0000000
000001FFFFFE0000000000000FFFFFE0000000
000001FFFFFF0000000000001FFFFFE0000000
000001FFFFFF0000000000001FFFFFE0000000
000001FFFFFF8000000000003FFFFFF0000000
000003FFFFFF8000000000003FFFFFF0000000
000003FFFFFF8000000000007FFFFFF0000000
000003FFFFFFC000000000007FFFFFF0000000
000007FFFFFFC000000000007FFFFFF8000000
000007FFFFFFE00000000000FFFFFFF8000000
000007FFFFFFE00000000000FFFFFFF8000000
000007FFFFFFF00000000001FFFFFFFC000000
00000FFFFFFFF00000000001FFFFFFFC000000
00000FFFFFFFF80000000003FFFFFFFC000000
00000FFFFFFFF80000000003FFFFFFFC000000
00001FFFFFFFF80000000007FFFFFFFE000000
00001FFFFFFFFC0000000007FFFFFFFE000000
00001FFFF7FFFC0000000007FFFBFFFE000000
00001FFFF7FFFE000000000FFFFBFFFE000000
00003FFFE7FFFE000000000FFFF1FFFF000000
00003FFFE3FFFF000000001FFFF1FFFF000000
00003FFFE3FFFF000000001FFFF1FFFF000000
00003FFFE1FFFF000000003FFFE1FFFF800000
00007FFFC1FFFF800000003FFFE0FFFF800000
00007FFFC0FFFF800000007FFFC0FFFF800000
00007FFFC0FFFFC00000007FFFC0FFFF800000
0000FFFF807FFFC00000007FFF807FFFC00000
0000FFFF807FFFE0000000FFFF807FFFC00000
0000FFFF807FFFE0000000FFFF007FFFC00000
0000FFFF803FFFF0000001FFFF007FFFE00000
0001FFFF003FFFF0000001FFFF003FFFE00000
0001FFFF001FFFF0000003FFFE003FFFE00000
0001FFFF001FFFF8000003FFFE003FFFE00000
0003FFFE000FFFF8000003FFFC003FFFF00000
0003FFFE000FFFFC000007FFFC001FFFF00000
0003FFFE0007FFFC000007FFF8001FFFF00000
0003FFFE0007FFFE00000FFFF8001FFFF00000
0007FFFC0007FFFE00000FFFF8000FFFF80000
0007FFFC0003FFFF00001FFFF0000FFFF80000
0007FFFC0003FFFF00001FFFF0000FFFF80000
0007FFFC0001FFFF00003FFFE0000FFFFC0000
000FFFF80001FFFF80003FFFE00007FFFC0000
000FFFF80000FFFF80003FFFC00007FFFC0000
000FFFF80000FFFFC0007FFFC00007FFFC0000
001FFFF00000FFFFC0007FFF800007FFFE0000
001FFFF000007FFFE000FFFF800003FFFE0000
001FFFF000007FFFE000FFFF800003FFFE0000
001FFFF000003FFFF001FFFF000003FFFE0000
003FFFE000003FFFF001FFFF000001FFFF0000
003FFFE000001FFFF003FFFE000001FFFF0000
003FFFE000001FFFF803FFFE000001FFFF0000
003FFFE000000FFFF803FFFC000001FFFF8000
007FFFC000000FFFFC07FFFC000000FFFF8000
007FFFC000000FFFFC07FFF8000000FFFF8000
007FFFC0000007FFFE0FFFF8000000FFFF8000
00FFFF80000007FFFE0FFFF80000007FFFC000
00FFFF80000003FFFE1FFFF00000007FFFC000
00FFFF80000003FFFF1FFFF00000007FFFC000
00FFFF80000001FFFF1FFFE00000007FFFC000
01FFFF00000001FFFFBFFFE00000003FFFE000
01FFFF00000001FFFFBFFFC00000003FFFE000
01FFFF00000000FFFFFFFFC00000003FFFE000
03FFFE00000000FFFFFFFF800000003FFFF000
03FFFE000000007FFFFFFF800000001FFFF000
03FFFE000000007FFFFFFF800000001FFFF000
03FFFE000000003FFFFFFF000000001FFFF000
07FFFC000000003FFFFFFF000000000FFFF800
07FFFC000000001FFFFFFE000000000FFFF800
07FFFC000000001FFFFFFE000000000FFFF800
07FFFC000000001FFFFFFC000000000FFFFC00
0FFFF8000000000FFFFFFC0000000007FFFC00
0FFFF8000000000FFFFFFC0000000007FFFC00
0FFFF80000000007FFFFF80000000007FFFC00
1FFFF00000000007FFFFF80000000007FFFE00
1FFFF00000000003FFFFF00000000003FFFE00
1FFFF00000000003FFFFF00000000003FFFE00
1FFFF00000000003FFFFE00000000003FFFE00
3FFFE00000000001FFFFE00000000001FFFF00
3FFFE00000000001FFFFC00000000001FFFF00
3FFFE00000000000FFFFC00000000001FFFF00
7FFFE00000000000FFFF800000000001FFFF80
7FFFC000000000007FFF800000000000FFFF80
7FFFC000000000007FFF000000000000FFFF80
7FFFC000000000003FFE000000000000FFFF80
FFFF8000000000001FFE000000000000FFFFC0
000000000000000007F8000000000000000000
00000000000000000080000000000000000000
ENDCHAR
STARTCHAR n
ENCODING 110
SWIDTH 873 0
DWIDTH 119 0
BBX 103 99 8 0
BITMAP
03F0000000000000000003FFFE
0FFC000000000000000003FFFE
1FFE000000000000000003FFFE
3FFF000000000000000003FFFE
7FFF800000000000000003FFFE
7FFFC00000000000000003FFFE
7FFFE00000000000000003FFFE
FFFFF00000000000000003FFFE
FFFFF80000000000000003FFFE
FFFFFC0000000000000003FFFE
FFFFFE0000000000000003FFFE
FFFFFF0000000000000003FFFE
FFFFFFC000000000000003FFFE
FFFFFFE000000000000003FFFE
FFFFFFF000000000000003FFFE
FFFFFFF800000000000003FFFE
FFFFFFFC00000000000003FFFE
FFFFFFFE00000000000003FFFE
FFFFFFFF00000000000003FFFE
FFFFFFFF80000000000003FFFE
FFFFFFFFC0000000000003FFFE
FFFFFFFFE0000000000003FFFE
FFFFFFFFF0000000000003FFFE
FFFFFFFFF8000000000003FFFE
FFFFFFFFFC000000000003FFFE
FFFFFFFFFE000000000003FFFE
FFFFFFFFFF000000000003FFFE
FFFFFFFFFF800000000003FFFE
FFFFFFFFFFC00000000003FFFE
FFFFBFFFFFE00000000003FFFE
FFFF9FFFFFF00000000003FFFE
FFFF87FFFFF80000000003FFFE
FFFF83FFFFFC0000000003FFFE
FFFF81FFFFFE0000000003FFFE
FFFF80FFFFFF0000000003FFFE
FFFF807FFFFF8000000003FFFE
FFFF803FFFFFC000000003FFFE
FFFF801FFFFFE000000003FFFE
FFFF800FFFFFF000000003FFFE
FFFF8007FFFFF800000003FFFE
FFFF8003FFFFFC00000003FFFE
FFFF8001FFFFFE00000003FFFE
FFFF8000FFFFFF00000003FFFE
FFFF80007FFFFF80000003FFFE
FFFF80003FFFFFC0000003FFFE
FFFF80001FFFFFE0000003FFFE
FFFF80000FFFFFF0000003FFFE
FFFF800007FFFFF8000003FFFE
FFFF800003FFFFFC000003FFFE
FFFF800001FFFFFE000003FFFE
FFFF800000FFFFFF000003FFFE
FFFF8000007FFFFF800003FFFE
FFFF8000003FFFFFC00003FFFE
FFFF8000001FFFFFE00003FFFE
FFFF8000000FFFFFF00003FFFE
FFFF80000007FFFFF80003FFFE
FFFF80000003FFFFFC0003FFFE
FFFF80000001FFFFFE0003FFFE
FFFF80000000FFFFFF0003FFFE
FFFF800000007FFFFF8003FFFE
FFFF800000003FFFFFC003FFFE
FFFF800000001FFFFFE003FFFE
FFFF800000000FFFFFF003FFFE
FFFF8000000007FFFFF803FFFE
FFFF8000000003FFFFFC03FFFE
FFFF8000000001FFFFFE03FFFE
FFFF8000000000FFFFFF03FFFE
FFFF80000000007FFFFF83FFFE
FFFF80000000003FFFFFE3FFFE
FFFF80000000001FFFFFF3FFFE
FFFF800000000007FFFFFBFFFE
FFFF800000000003FFFFFFFFFE
FFFF800000000001FFFFFFFFFE
FFFF800000000000FFFFFFFFFE
FFFF8000000000007FFFFFFFFE
FFFF8000000000003FFFFFFFFE
FFFF8000000000001FFFFFFFFE
FFFF8000000000000FFFFFFFFE
FFFF80000000000007FFFFFFFE
FFFF80000000000003FFFFFFFE
FFFF80000000000001FFFFFFFE
FFFF80000000000000FFFFFFFE
FFFF800000000000007FFFFFFE
FFFF800000000000003FFFFFFE
FFFF800000000000001FFFFFFE
FFFF800000000000000FFFFFFE
FFFF8000000000000007FFFFFE
FFFF8000000000000003FFFFFE
FFFF8000000000000001FFFFFE
FFFF8000000000000000FFFFFE
FFFF80000000000000007FFFFC
FFFF80000000000000003FFFFC
FFFF80000000000000001FFFFC
FFFF80000000000000000FFFFC
FFFF800000000000000007FFF8
FFFF800000000000000003FFF8
FFFF800000000000000001FFF0
FFFF8000000000000000007FE0
FFFF8000000000000000001F80
ENDCHAR
STARTCHAR o
ENCODING 111
SWIDTH 968 0
DWIDTH 132 0
BBX 120 99 6 0
BITMAP
0000000000FFFFFFFFFF0000000000
000000001FFFFFFFFFFFF800000000
00000001FFFFFFFFFFFFFF80000000
00000007FFFFFFFFFFFFFFE0000000
0000003FFFFFFFFFFFFFFFFC000000
000000FFFFFFFFFFFFFFFFFF000000
000003FFFFFFFFFFFFFFFFFFC00000
000007FFFFFFFFFFFFFFFFFFE00000
00001FFFFFFFFFFFFFFFFFFFF80000
00003FFFFFFFFFFFFFFFFFFFFC0000
0000FFFFFFFFFFFFFFFFFFFFFE0000
0001FFFFFFFFFFFFFFFFFFFFFF8000
0003FFFFFFFFFFFFFFFFFFFFFFC000
0007FFFFFFFFFFFFFFFFFFFFFFE000
000FFFFFFFFFFFFFFFFFFFFFFFF000
001FFFFFFFFFFFFFFFFFFFFFFFF800
003FFFFFFFFFFFFFFFFFFFFFFFF800
003FFFFFFFF00000000FFFFFFFFC00
007FFFFFFE00000000007FFFFFFE00
00FFFFFFF000000000000FFFFFFF00
01FFFFFFC0000000000003FFFFFF00
01FFFFFF00000000000000FFFFFF80
03FFFFFC000000000000003FFFFFC0
03FFFFF8000000000000001FFFFFC0
07FFFFF0000000000000000FFFFFE0
07FFFFC00000000000000007FFFFE0
0FFFFF800000000000000003FFFFF0
0FFFFF800000000000000001FFFFF0
1FFFFF000000000000000000FFFFF8
1FFFFE0000000000000000007FFFF8
1FFFFC0000000000000000003FFFF8
3FFFFC0000000000000000003FFFFC
3FFFF80000000000000000001FFFFC
3FFFF80000000000000000001FFFFC
7FFFF00000000000000000000FFFFE
7FFFF00000000000000000000FFFFE
7FFFE000000000000000000007FFFE
7FFFE000000000000000000007FFFE
7FFFE000000000000000000007FFFE
FFFFC000000000000000000003FFFF
FFFFC000000000000000000003FFFF
FFFFC000000000000000000003FFFF
FFFFC000000000000000000003FFFF
FFFF8000000000000000000003FFFF
FFFF8000000000000000000001FFFF
FFFF8000000000000000000001FFFF
FFFF8000000000000000000001FFFF
FFFF8000000000000000000001FFFF
FFFF8000000000000000000001FFFF
FFFF8000000000000000000001FFFF
FFFF8000000000000000000001FFFF
FFFF8000000000000000000001FFFF
FFFF8000000000000000000001FFFF
FFFF8000000000000000000001FFFF
FFFF8000000000000000000001FFFF
FFFF8000000000000000000003FFFF
FFFFC000000000000000000003FFFF
FFFFC000000000000000000003FFFF
7FFFC000000000000000000003FFFE
7FFFC000000000000000000003FFFE
7FFFE000000000000000000007FFFE
7FFFE000000000000000000007FFFE
7FFFE000000000000000000007FFFE
3FFFF00000000000000000000FFFFC
3FFFF00000000000000000000FFFFC
3FFFF80000000000000000001FFFFC
1FFFF80000000000000000001FFFF8
1FFFFC0000000000000000003FFFF8
1FFFFC0000000000000000007FFFF8
0FFFFE0000000000000000007FFFF0
0FFFFF000000000000000000FFFFF0
07FFFF800000000000000001FFFFE0
07FFFFC00000000000000003FFFFE0
03FFFFE00000000000000007FFFFC0
03FFFFF0000000000000000FFFFFC0
01FFFFF8000000000000001FFFFF80
01FFFFFC000000000000007FFFFF80
00FFFFFF00000000000000FFFFFF00
007FFFFFC0000000000003FFFFFE00
007FFFFFF000000000000FFFFFFE00
003FFFFFFE00000000007FFFFFFC00
001FFFFFFFF00000000FFFFFFFF800
000FFFFFFFFFFFFFFFFFFFFFFFF000
000FFFFFFFFFFFFFFFFFFFFFFFE000
0007FFFFFFFFFFFFFFFFFFFFFFE000
0003FFFFFFFFFFFFFFFFFFFFFFC000
0001FFFFFFFFFFFFFFFFFFFFFF0000
00007FFFFFFFFFFFFFFFFFFFFE0000
00003FFFFFFFFFFFFFFFFFFFFC0000
00001FFFFFFFFFFFFFFFFFFFF80000
00000FFFFFFFFFFFFFFFFFFFF00000
000003FFFFFFFFFFFFFFFFFFC00000
000001FFFFFFFFFFFFFFFFFF000000
0000007FFFFFFFFFFFFFFFFE000000
0000001FFFFFFFFFFFFFFFF8000000
00000007FFFFFFFFFFFFFFC0000000
00000000FFFFFFFFFFFFFF00000000
000000001FFFFFFFFFFFF000000000
0000000000FFFFFFFFFE0000000000
ENDCHAR
STARTCHAR p
ENCODING 112
SWIDTH 867 0
DWIDTH 118 0
BBX 105 99 9 0
BITMAP
FFFFFFFFFFFFFFFFFFF000000000
FFFFFFFFFFFFFFFFFFFF80000000
FFFFFFFFFFFFFFFFFFFFF0000000
FFFFFFFFFFFFFFFFFFFFFE000000
FFFFFFFFFFFFFFFFFFFFFF800000
FFFFFFFFFFFFFFFFFFFFFFC00000
FFFFFFFFFFFFFFFFFFFFFFF00000
FFFFFFFFFFFFFFFFFFFFFFF80000
FFFFFFFFFFFFFFFFFFFFFFFC0000
FFFFFFFFFFFFFFFFFFFFFFFF0000
FFFFFFFFFFFFFFFFFFFFFFFF0000
FFFFFFFFFFFFFFFFFFFFFFFF8000
FFFFFFFFFFFFFFFFFFFFFFFFC000
FFFFFFFFFFFFFFFFFFFFFFFFE000
FFFFFFFFFFFFFFFFFFFFFFFFF000
FFFFFFFFFFFFFFFFFFFFFFFFF000
FFFFFFFFFFFFFFFFFFFFFFFFF800
FFFF80000000000000FFFFFFF800
FFFF8000000000000007FFFFFC00
FFFF8000000000000001FFFFFC00
FFFF80000000000000007FFFFE00
FFFF80000000000000003FFFFE00
FFFF80000000000000001FFFFE00
FFFF80000000000000000FFFFF00
FFFF800000000000000007FFFF00
FFFF800000000000000003FFFF00
FFFF800000000000000003FFFF00
FFFF800000000000000001FFFF80
FFFF800000000000000001FFFF80
FFFF800000000000000001FFFF80
FFFF800000000000000000FFFF80
FFFF800000000000000000FFFF80
FFFF800000000000000000FFFF80
FFFF800000000000000000FFFF80
FFFF800000000000000000FFFF80
FFFF800000000000000000FFFF80
FFFF800000000000000000FFFF80
FFFF800000000000000000FFFF80
FFFF800000000000000000FFFF80
FFFF800000000000000000FFFF80
FFFF800000000000000000FFFF80
FFFF800000000000000000FFFF80
FFFF800000000000000001FFFF80
FFFF800000000000000001FFFF80
FFFF800000000000000001FFFF00
FFFF800000000000000003FFFF00
FFFF800000000000000003FFFF00
FFFF800000000000000007FFFF00
FFFF80000000000000000FFFFE00
FFFF80000000000000000FFFFE00
FFFF80000000000000001FFFFE00
FFFF80000000000000007FFFFC00
FFFF8000000000000000FFFFFC00
FFFF8000000000000003FFFFFC00
FFFF800000000000003FFFFFF800
FFFF8007FFFFFFFFFFFFFFFFF800
FFFF8007FFFFFFFFFFFFFFFFF000
FFFF8007FFFFFFFFFFFFFFFFE000
FFFF8007FFFFFFFFFFFFFFFFE000
FFFF8007FFFFFFFFFFFFFFFFC000
FFFF8007FFFFFFFFFFFFFFFF8000
FFFF8007FFFFFFFFFFFFFFFF0000
FFFF8007FFFFFFFFFFFFFFFE0000
FFFF8007FFFFFFFFFFFFFFFC0000
FFFF8007FFFFFFFFFFFFFFF80000
FFFF8007FFFFFFFFFFFFFFF00000
FFFF8007FFFFFFFFFFFFFFC00000
FFFF8007FFFFFFFFFFFFFF800000
FFFF8007FFFFFFFFFFFFFE000000
FFFF8007FFFFFFFFFFFFF8000000
FFFF8007FFFFFFFFFFFFC0000000
FFFF8007FFFFFFFFFFFC00000000
FFFF800000000000000000000000
FFFF800000000000000000000000
FFFF800000000000000000000000
FFFF800000000000000000000000
FFFF800000000000000000000000
FFFF800000000000000000000000
FFFF800000000000000000000000
FFFF800000000000000000000000
FFFF800000000000000000000000
FFFF800000000000000000000000
FFFF800000000000000000000000
FFFF800000000000000000000000
FFFF800000000000000000000000
FFFF800000000000000000000000
FFFF800000000000000000000000
FFFF800000000000000000000000
FFFF800000000000000000000000
FFFF800000000000000000000000
FFFF800000000000000000000000
FFFF800000000000000000000000
FFFF800000000000000000000000
FFFF800000000000000000000000
FFFF800000000000000000000000
FFFF800000000000000000000000
FFFF800000000000000000000000
FFFF800000000000000000000000
FFFF800000000000000000000000
ENDCHAR
STARTCHAR q
ENCODING 113
SWIDTH 968 0
DWIDTH 132 0
BBX 125 99 6 0
BITMAP
0000000000FFFFFFFFFF000000000000
000000001FFFFFFFFFFFF80000000000
00000001FFFFFFFFFFFFFF8000000000
00000007FFFFFFFFFFFFFFE000000000
0000003FFFFFFFFFFFFFFFFC00000000
000000FFFFFFFFFFFFFFFFFF00000000
000003FFFFFFFFFFFFFFFFFFC0000000
000007FFFFFFFFFFFFFFFFFFE0000000
00001FFFFFFFFFFFFFFFFFFFF8000000
00003FFFFFFFFFFFFFFFFFFFFC000000
0000FFFFFFFFFFFFFFFFFFFFFE000000
0001FFFFFFFFFFFFFFFFFFFFFF800000
0003FFFFFFFFFFFFFFFFFFFFFFC00000
0007FFFFFFFFFFFFFFFFFFFFFFE00000
000FFFFFFFFFFFFFFFFFFFFFFFF00000
001FFFFFFFFFFFFFFFFFFFFFFFF80000
003FFFFFFFFFFFFFFFFFFFFFFFF80000
003FFFFFFFF00000000FFFFFFFFC0000
007FFFFFFE00000000007FFFFFFE0000
00FFFFFFF000000000000FFFFFFF0000
01FFFFFFC0000000000003FFFFFF0000
01FFFFFF00000000000000FFFFFF8000
03FFFFFC000000000000003FFFFFC000
03FFFFF8000000000000001FFFFFC000
07FFFFF0000000000000000FFFFFE000
07FFFFC00000000000000007FFFFE000
0FFFFF800000000000000003FFFFF000
0FFFFF800000000000000001FFFFF000
1FFFFF000000000000000000FFFFF800
1FFFFE0000000000000000007FFFF800
1FFFFC0000000000000000003FFFF800
3FFFFC0000000000000000003FFFFC00
3FFFF80000000000000000001FFFFC00
3FFFF80000000000000000001FFFFC00
7FFFF00000000000000000000FFFFE00
7FFFF00000000000000000000FFFFE00
7FFFE000000000000000000007FFFE00
7FFFE000000000000000000007FFFE00
7FFFE000000000000000000007FFFE00
FFFFC000000000000000000003FFFF00
FFFFC000000000000000000003FFFF00
FFFFC000000000000000000003FFFF00
FFFFC000000000000000000003FFFF00
FFFF8000000000000000000003FFFF00
FFFF8000000000000000000001FFFF00
FFFF8000000000000000000001FFFF00
FFFF8000000000000000000001FFFF00
FFFF8000000000000000000001FFFF00
FFFF8000000000000000000001FFFF00
FFFF8000000000000000000001FFFF00
FFFF8000000000000000000001FFFF00
FFFF8000000000000000000001FFFF00
FFFF8000000000000000000001FFFF00
FFFF8000000000000000000001FFFF00
FFFF8000000000000000000001FFFF00
FFFF8000000000000000000003FFFF00
FFFFC000000000000000000003FFFF00
FFFFC000000000000000000003FFFF00
7FFFC00000000FFFFFE0000003FFFE00
7FFFC000000003FFFFF0000003FFFE00
7FFFE000000001FFFFF8000007FFFE00
7FFFE000000000FFFFFE000007FFFE00
7FFFE0000000007FFFFF00000FFFFE00
3FFFF0000000001FFFFF80000FFFFC00
3FFFF0000000000FFFFFC0000FFFFC00
3FFFF80000000007FFFFE0001FFFFC00
1FFFF80000000003FFFFF8001FFFF800
1FFFFC0000000000FFFFFC003FFFF800
1FFFFC00000000007FFFFE007FFFF800
0FFFFE00000000003FFFFF007FFFF000
0FFFFF00000000001FFFFF80FFFFF000
07FFFF800000000007FFFFC1FFFFE000
07FFFFC00000000003FFFFF3FFFFE000
03FFFFE00000000001FFFFFFFFFFC000
03FFFFF000000000007FFFFFFFFFC000
01FFFFF800000000003FFFFFFFFF8000
01FFFFFC00000000001FFFFFFFFF8000
00FFFFFF00000000000FFFFFFFFF0000
007FFFFFC00000000003FFFFFFFE0000
007FFFFFF00000000001FFFFFFFE0000
003FFFFFFE0000000000FFFFFFFC0000
001FFFFFFFF00000001FFFFFFFF80000
000FFFFFFFFFFFFFFFFFFFFFFFF00000
000FFFFFFFFFFFFFFFFFFFFFFFE00000
0007FFFFFFFFFFFFFFFFFFFFFFE00000
0003FFFFFFFFFFFFFFFFFFFFFFF00000
0001FFFFFFFFFFFFFFFFFFFFFFF80000
00007FFFFFFFFFFFFFFFFFFFFFFC0000
00003FFFFFFFFFFFFFFFFFFFFFFF0000
00001FFFFFFFFFFFFFFFFFFFFFFF8000
00000FFFFFFFFFFFFFFFFFFFFFFFC000
000003FFFFFFFFFFFFFFFFFFFFFFE000
000001FFFFFFFFFFFFFFFFFFFFFFF800
0000007FFFFFFFFFFFFFFFFEFFFFFC00
0000001FFFFFFFFFFFFFFFF87FFFFE00
00000007FFFFFFFFFFFFFFC03FFFFF80
00000000FFFFFFFFFFFFFE001FFFFFC0
000000001FFFFFFFFFFFF0000FFFFFE0
0000000000FFFFFFFFFE000003FFFFF8
ENDCHAR
STARTCHAR r
ENCODING 114
SWIDTH 921 0
DWIDTH 125 0
BBX 116 99 9 0
BITMAP
FFFFFFFFFFFFFFFFFFF80000000000
FFFFFFFFFFFFFFFFFFFFE000000000
FFFFFFFFFFFFFFFFFFFFFC00000000
FFFFFFFFFFFFFFFFFFFFFF00000000
FFFFFFFFFFFFFFFFFFFFFFC0000000
FFFFFFFFFFFFFFFFFFFFFFF0000000
FFFFFFFFFFFFFFFFFFFFFFF8000000
FFFFFFFFFFFFFFFFFFFFFFFE000000
FFFFFFFFFFFFFFFFFFFFFFFF000000
FFFFFFFFFFFFFFFFFFFFFFFF800000
FFFFFFFFFFFFFFFFFFFFFFFFC00000
FFFFFFFFFFFFFFFFFFFFFFFFE00000
FFFFFFFFFFFFFFFFFFFFFFFFE00000
FFFFFFFFFFFFFFFFFFFFFFFFF00000
FFFFFFFFFFFFFFFFFFFFFFFFF80000
FFFFFFFFFFFFFFFFFFFFFFFFF80000
FFFFFFFFFFFFFFFFFFFFFFFFFC0000
FFFF800000000000003FFFFFFC0000
FFFF8000000000000001FFFFFE0000
FFFF80000000000000007FFFFE0000
FFFF80000000000000001FFFFF0000
FFFF80000000000000000FFFFF0000
FFFF800000000000000007FFFF8000
FFFF800000000000000003FFFF8000
FFFF800000000000000001FFFF8000
FFFF800000000000000001FFFF8000
FFFF800000000000000000FFFFC000
FFFF800000000000000000FFFFC000
FFFF800000000000000000FFFFC000
FFFF8000000000000000007FFFC000
FFFF8000000000000000007FFFC000
FFFF8000000000000000007FFFC000
FFFF8000000000000000007FFFC000
FFFF8000000000000000007FFFC000
FFFF8000000000000000007FFFC000
FFFF8000000000000000007FFFC000
FFFF8000000000000000007FFFC000
FFFF8000000000000000007FFFC000
FFFF8000000000000000007FFFC000
FFFF8000000000000000007FFFC000
FFFF8000000000000000007FFFC000
FFFF8000000000000000007FFFC000
FFFF8000000000000000007FFFC000
FFFF8000000000000000007FFFC000
FFFF800000000000000000FFFFC000
FFFF800000000000000000FFFFC000
FFFF800000000000000000FFFF8000
FFFF800000000000000001FFFF8000
FFFF800000000000000001FFFF8000
FFFF800000000000000003FFFF0000
FFFF800000000000000007FFFF0000
FFFF80000000000000000FFFFF0000
FFFF80000000000000001FFFFE0000
FFFF80000000000000007FFFFE0000
FFFF8000000000000001FFFFFC0000
FFFF800000000000000FFFFFFC0000
FFFF8007FFFFFFFFFFFFFFFFF80000
FFFF8007FFFFFFFFFFFFFFFFF00000
FFFF8007FFFFFFFFFFFFFFFFF00000
FFFF8007FFFFFFFFFFFFFFFFE00000
FFFF8007FFFFFFFFFFFFFFFFC00000
FFFF8007FFFFFFFFFFFFFFFF800000
FFFF8007FFFFFFFFFFFFFFFF000000
FFFF8007FFFFFFFFFFFFFFFE000000
FFFF8007FFFFFFFFFFFFFFFC000000
FFFF8007FFFFFFFFFFFFFFF0000000
FFFF8007FFFFFFFFFFFFFFC0000000
FFFF8007FFFFFFFFFFFFFF00000000
FFFF8007FFFFFFFFFFFFFC00000000
FFFF8007FFFFFFFFFFFFFE00000000
FFFF8007FFFFFFFFFFFFFF00000000
FFFF8000000000001FFFFF80000000
FFFF8000000000000FFFFFC0000000
FFFF80000000000007FFFFE0000000
FFFF80000000000007FFFFF0000000
FFFF80000000000003FFFFF8000000
FFFF80000000000001FFFFFC000000
FFFF80000000000000FFFFFE000000
FFFF800000000000007FFFFF000000
FFFF800000000000003FFFFF800000
FFFF800000000000001FFFFFC00000
FFFF800000000000000FFFFFE00000
FFFF8000000000000007FFFFF00000
FFFF8000000000000003FFFFF80000
FFFF8000000000000003FFFFFC0000
FFFF8000000000000001FFFFFE0000
FFFF8000000000000000FFFFFF0000
FFFF80000000000000007FFFFF8000
FFFF80000000000000003FFFFFC000
FFFF80000000000000001FFFFFE000
FFFF80000000000000000FFFFFF000
FFFF800000000000000007FFFFF800
FFFF800000000000000003FFFFFC00
FFFF800000000000000003FFFFFC00
FFFF800000000000000001FFFFFE00
FFFF800000000000000000FFFFFF00
FFFF8000000000000000007FFFFF80
FFFF8000000000000000003FFFFFC0
FFFF8000000000000000001FFFFFF0
ENDCHAR
STARTCHAR s
ENCODING 115
SWIDTH 880 0
DWIDTH 120 0
BBX 106 99 7 0
BITMAP
000000FFFFFFFFFFFFFFFFFFFC00
00001FFFFFFFFFFFFFFFFFFFFC00
0000FFFFFFFFFFFFFFFFFFFFFC00
0003FFFFFFFFFFFFFFFFFFFFFC00
000FFFFFFFFFFFFFFFFFFFFFFC00
001FFFFFFFFFFFFFFFFFFFFFFC00
007FFFFFFFFFFFFFFFFFFFFFFC00
00FFFFFFFFFFFFFFFFFFFFFFFC00
01FFFFFFFFFFFFFFFFFFFFFFFC00
03FFFFFFFFFFFFFFFFFFFFFFFC00
03FFFFFFFFFFFFFFFFFFFFFFFC00
07FFFFFFFFFFFFFFFFFFFFFFFC00
0FFFFFFFFFFFFFFFFFFFFFFFFC00
0FFFFFFFFFFFFFFFFFFFFFFFFC00
1FFFFFFFFFFFFFFFFFFFFFFFFC00
1FFFFFFFFFFFFFFFFFFFFFFFFC00
3FFFFFFFFFFFFFFFFFFFFFFFFC00
3FFFFFF000000000000000000000
7FFFFF0000000000000000000000
7FFFFC0000000000000000000000
7FFFF80000000000000000000000
7FFFF00000000000000000000000
FFFFF00000000000000000000000
FFFFE00000000000000000000000
FFFFE00000000000000000000000
FFFFC00000000000000000000000
FFFFC00000000000000000000000
FFFFC00000000000000000000000
FFFFC00000000000000000000000
FFFFC00000000000000000000000
FFFFC00000000000000000000000
FFFFC00000000000000000000000
FFFFC00000000000000000000000
7FFFE00000000000000000000000
7FFFE00000000000000000000000
7FFFE00000000000000000000000
7FFFF00000000000000000000000
3FFFF80000000000000000000000
3FFFFC0000000000000000000000
3FFFFF0000000000000000000000
1FFFFFC000000000000000000000
1FFFFFFFFFFFFFFFFFFFE0000000
0FFFFFFFFFFFFFFFFFFFFF000000
0FFFFFFFFFFFFFFFFFFFFFE00000
07FFFFFFFFFFFFFFFFFFFFF80000
03FFFFFFFFFFFFFFFFFFFFFE0000
01FFFFFFFFFFFFFFFFFFFFFF8000
00FFFFFFFFFFFFFFFFFFFFFFC000
007FFFFFFFFFFFFFFFFFFFFFE000
003FFFFFFFFFFFFFFFFFFFFFF000
001FFFFFFFFFFFFFFFFFFFFFF800
0007FFFFFFFFFFFFFFFFFFFFFC00
0003FFFFFFFFFFFFFFFFFFFFFC00
00007FFFFFFFFFFFFFFFFFFFFE00
00001FFFFFFFFFFFFFFFFFFFFE00
000000FFFFFFFFFFFFFFFFFFFF00
000000000000000000007FFFFF00
000000000000000000000FFFFF80
0000000000000000000007FFFF80
0000000000000000000001FFFF80
0000000000000000000000FFFF80
0000000000000000000000FFFFC0
00000000000000000000007FFFC0
00000000000000000000007FFFC0
00000000000000000000003FFFC0
00000000000000000000003FFFC0
00000000000000000000003FFFC0
00000000000000000000003FFFC0
00000000000000000000003FFFC0
00000000000000000000003FFFC0
00000000000000000000003FFFC0
00000000000000000000003FFFC0
00000000000000000000003FFFC0
00000000000000000000007FFFC0
00000000000000000000007FFFC0
0000000000000000000000FFFFC0
0000000000000000000000FFFFC0
0000000000000000000001FFFFC0
0000000000000000000003FFFF80
0000000000000000000007FFFF80
000000000000000000001FFFFF80
00000000000000000001FFFFFF80
3FFFFFFFFFFFFFFFFFFFFFFFFF00
3FFFFFFFFFFFFFFFFFFFFFFFFF00
3FFFFFFFFFFFFFFFFFFFFFFFFE00
3FFFFFFFFFFFFFFFFFFFFFFFFE00
3FFFFFFFFFFFFFFFFFFFFFFFFC00
3FFFFFFFFFFFFFFFFFFFFFFFF800
3FFFFFFFFFFFFFFFFFFFFFFFF800
3FFFFFFFFFFFFFFFFFFFFFFFF000
3FFFFFFFFFFFFFFFFFFFFFFFE000
3FFFFFFFFFFFFFFFFFFFFFFFC000
3FFFFFFFFFFFFFFFFFFFFFFF8000
3FFFFFFFFFFFFFFFFFFFFFFE0000
3FFFFFFFFFFFFFFFFFFFFFFC0000
3FFFFFFFFFFFFFFFFFFFFFF00000
3FFFFFFFFFFFFFFFFFFFFFC00000
3FFFFFFFFFFFFFFFFFFFFE000000
3FFFFFFFFFFFFFFFFFFFE0000000
ENDCHAR
STARTCHAR t
ENCODING 116
SWIDTH 720 0
DWIDTH 98 0
BBX 92 99 3 0
BITMAP
FFFFFFFFFFFFFFFFFFFFFFF0
FFFFFFFFFFFFFFFFFFFFFFF0
FFFFFFFFFFFFFFFFFFFFFFF0
FFFFFFFFFFFFFFFFFFFFFFF0
FFFFFFFFFFFFFFFFFFFFFFF0
FFFFFFFFFFFFFFFFFFFFFFF0
FFFFFFFFFFFFFFFFFFFFFFF0
FFFFFFFFFFFFFFFFFFFFFFF0
FFFFFFFFFFFFFFFFFFFFFFF0
FFFFFFFFFFFFFFFFFFFFFFF0
FFFFFFFFFFFFFFFFFFFFFFF0
FFFFFFFFFFFFFFFFFFFFFFF0
FFFFFFFFFFFFFFFFFFFFFFF0
FFFFFFFFFFFFFFFFFFFFFFF0
FFFFFFFFFFFFFFFFFFFFFFF0
FFFFFFFFFFFFFFFFFFFFFFF0
FFFFFFFFFFFFFFFFFFFFFFF0
0000000007FFFE0000000000
0000000007FFFE0000000000
0000000007FFFE0000000000
0000000007FFFE0000000000
0000000007FFFE0000000000
0000000007FFFE0000000000
0000000007FFFE0000000000
0000000007FFFE0000000000
0000000007FFFE0000000000
0000000007FFFE0000000000
0000000007FFFE0000000000
0000000007FFFE0000000000
0000000007FFFE0000000000
0000000007FFFE0000000000
0000000007FFFE0000000000
0000000007FFFE0000000000
0000000007FFFE0000000000
0000000007FFFE0000000000
0000000007FFFE0000000000
0000000007FFFE0000000000
0000000007FFFE0000000000
0000000007FFFE0000000000
0000000007FFFE0000000000
0000000007FFFE0000000000
0000000007FFFE0000000000
0000000007FFFE0000000000
0000000007FFFE0000000000
0000000007FFFE0000000000
0000000007FFFE0000000000
0000000007FFFE0000000000
0000000007FFFE0000000000
0000000007FFFE0000000000
0000000007FFFE0000000000
0000000007FFFE0000000000
0000000007FFFE0000000000
0000000007FFFE0000000000
0000000007FFFE0000000000
0000000007FFFE0000000000
0000000007FFFE0000000000
0000000007FFFE0000000000
0000000007FFFE0000000000
0000000007FFFE0000000000
0000000007FFFE0000000000
0000000007FFFE0000000000
0000000007FFFE0000000000
0000000007FFFE0000000000
0000000007FFFE0000000000
0000000007FFFE0000000000
0000000007FFFE0000000000
0000000007FFFE0000000000
0000000007FFFE0000000000
0000000007FFFE0000000000
0000000007FFFE0000000000
0000000007FFFE0000000000
0000000007FFFE0000000000
0000000007FFFE0000000000
0000000007FFFE0000000000
0000000007FFFE0000000000
0000000007FFFE0000000000
0000000007FFFE0000000000
0000000007FFFE0000000000
0000000007FFFE0000000000
0000000007FFFE0000000000
0000000007FFFE0000000000
0000000007FFFE0000000000
0000000007FFFE0000000000
0000000007FFFE0000000000
0000000007FFFE0000000000
0000000007FFFE0000000000
0000000007FFFE0000000000
0000000007FFFE0000000000
0000000007FFFE0000000000
0000000007FFFE0000000000
0000000007FFFE0000000000
0000000007FFFE0000000000
0000000007FFFE0000000000
0000000007FFFE0000000000
0000000007FFFE0000000000
0000000007FFFE0000000000
0000000007FFFE0000000000
0000000007FFFE0000000000
0000000007FFFE0000000000
ENDCHAR
STARTCHAR u
ENCODING 117
SWIDTH 889 0
DWIDTH 121 0
BBX 107 100 7 -1
BITMAP
FFFFC000000000000000003FFFE0
FFFFC000000000000000003FFFE0
FFFFC000000000000000003FFFE0
FFFFC000000000000000003FFFE0
FFFFC000000000000000003FFFE0
FFFFC000000000000000003FFFE0
FFFFC000000000000000003FFFE0
FFFFC000000000000000003FFFE0
FFFFC000000000000000003FFFE0
FFFFC000000000000000003FFFE0
FFFFC000000000000000003FFFE0
FFFFC000000000000000003FFFE0
FFFFC000000000000000003FFFE0
FFFFC000000000000000003FFFE0
FFFFC000000000000000003FFFE0
FFFFC000000000000000003FFFE0
FFFFC000000000000000003FFFE0
FFFFC000000000000000003FFFE0
FFFFC000000000000000003FFFE0
FFFFC000000000000000003FFFE0
FFFFC000000000000000003FFFE0
FFFFC000000000000000003FFFE0
FFFFC000000000000000003FFFE0
FFFFC000000000000000003FFFE0
FFFFC000000000000000003FFFE0
FFFFC000000000000000003FFFE0
FFFFC000000000000000003FFFE0
FFFFC000000000000000003FFFE0
FFFFC000000000000000003FFFE0
FFFFC000000000000000003FFFE0
FFFFC000000000000000003FFFE0
FFFFC000000000000000003FFFE0
FFFFC000000000000000003FFFE0
FFFFC000000000000000003FFFE0
FFFFC000000000000000003FFFE0
FFFFC000000000000000003FFFE0
FFFFC000000000000000003FFFE0
FFFFC000000000000000003FFFE0
FFFFC000000000000000003FFFE0
FFFFC000000000000000003FFFE0
FFFFC000000000000000003FFFE0
FFFFC000000000000000003FFFE0
FFFFC000000000000000003FFFE0
FFFFC000000000000000003FFFE0
FFFFC000000000000000003FFFE0
FFFFC000000000000000003FFFE0
FFFFC000000000000000003FFFE0
FFFFC000000000000000003FFFE0
FFFFC000000000000000003FFFE0
FFFFC000000000000000003FFFE0
FFFFC000000000000000003FFFE0
FFFFC000000000000000003FFFE0
FFFFC000000000000000003FFFE0
FFFFC000000000000000003FFFE0
FFFFC000000000000000003FFFE0
FFFFC000000000000000003FFFE0
FFFFC000000000000000003FFFE0
FFFFC000000000000000003FFFE0
FFFFC000000000000000003FFFE0
FFFFC000000000000000003FFFE0
FFFFC000000000000000003FFFE0
FFFFC000000000000000003FFFE0
FFFFC000000000000000007FFFE0
FFFFE000000000000000007FFFC0
7FFFE000000000000000007FFFC0
7FFFE000000000000000007FFFC0
7FFFE000000000000000007FFFC0
7FFFF00000000000000000FFFFC0
7FFFF00000000000000000FFFFC0
7FFFF00000000000000001FFFF80
3FFFF80000000000000001FFFF80
3FFFF80000000000000003FFFF80
3FFFFC0000000000000003FFFF80
3FFFFE0000000000000007FFFF00
1FFFFF000000000000000FFFFF00
1FFFFF800000000000001FFFFF00
0FFFFFC00000000000003FFFFE00
0FFFFFE00000000000007FFFFE00
0FFFFFF8000000000001FFFFFC00
07FFFFFE000000000007FFFFFC00
07FFFFFF80000000003FFFFFFC00
03FFFFFFF800000001FFFFFFF800
01FFFFFFFFF00000FFFFFFFFF000
01FFFFFFFFFFFFFFFFFFFFFFF000
00FFFFFFFFFFFFFFFFFFFFFFE000
007FFFFFFFFFFFFFFFFFFFFFC000
003FFFFFFFFFFFFFFFFFFFFF8000
001FFFFFFFFFFFFFFFFFFFFF0000
000FFFFFFFFFFFFFFFFFFFFE0000
0007FFFFFFFFFFFFFFFFFFFC0000
0003FFFFFFFFFFFFFFFFFFF80000
0001FFFFFFFFFFFFFFFFFFF00000
00007FFFFFFFFFFFFFFFFFC00000
00001FFFFFFFFFFFFFFFFF000000
00000FFFFFFFFFFFFFFFFC000000
000001FFFFFFFFFFFFFFF0000000
0000007FFFFFFFFFFFFF80000000
00000007FFFFFFFFFFFC00000000
000000007FFFFFFFFFC000000000
0000000001FFFFFFE00000000000
ENDCHAR
ENDFONT
